Rubik-Light.ufo
<glyph name="quotedbl" format="1">
  <advance width="340"/>
  <unicode hex="0022"/>
  <outline>
    <contour>
      <point x="145" y="690" type="line" name="hr00"/>
      <point x="146" y="702"/>
      <point x="138" y="710"/>
      <point x="126" y="710" type="curve" smooth="yes"/>
      <point x="81" y="710" type="line" smooth="yes"/>
      <point x="69" y="710"/>
      <point x="61" y="702"/>
      <point x="62" y="690" type="curve" smooth="yes"/>
      <point x="77" y="527" type="line" smooth="yes"/>
      <point x="78" y="516"/>
      <point x="83" y="508"/>
      <point x="94" y="508" type="curve" smooth="yes"/>
      <point x="113" y="508" type="line" smooth="yes"/>
      <point x="124" y="508"/>
      <point x="129" y="516"/>
      <point x="130" y="527" type="curve" smooth="yes"/>
    </contour>
    <contour>
      <point x="278" y="690" type="line"/>
      <point x="279" y="702"/>
      <point x="271" y="710"/>
      <point x="259" y="710" type="curve" smooth="yes"/>
      <point x="214" y="710" type="line" smooth="yes"/>
      <point x="202" y="710"/>
      <point x="194" y="702"/>
      <point x="195" y="690" type="curve" smooth="yes"/>
      <point x="210" y="527" type="line" smooth="yes"/>
      <point x="211" y="516"/>
      <point x="216" y="508"/>
      <point x="227" y="508" type="curve" smooth="yes"/>
      <point x="246" y="508" type="line" smooth="yes"/>
      <point x="257" y="508"/>
      <point x="262" y="516"/>
      <point x="263" y="527" type="curve" smooth="yes"/>
    </contour>
  </outline>
</glyph>
<glyph name="numbersign" format="1">
  <advance width="701"/>
  <unicode hex="0023"/>
  <outline>
    <contour>
      <point x="627" y="445" type="line"/>
      <point x="640" y="445"/>
      <point x="649" y="454"/>
      <point x="649" y="467" type="curve"/>
      <point x="649" y="481" type="line"/>
      <point x="649" y="494"/>
      <point x="640" y="503"/>
      <point x="627" y="503" type="curve"/>
      <point x="518" y="503" type="line"/>
      <point x="538" y="634" type="line"/>
      <point x="539" y="646"/>
      <point x="530" y="655"/>
      <point x="518" y="655" type="curve" name="hr01"/>
      <point x="500" y="655" type="line"/>
      <point x="487" y="655"/>
      <point x="480" y="645"/>
      <point x="478" y="634" type="curve"/>
      <point x="458" y="503" type="line" name="hr02"/>
      <point x="291" y="503" type="line"/>
      <point x="311" y="634" type="line"/>
      <point x="312" y="646"/>
      <point x="303" y="655"/>
      <point x="291" y="655" type="curve" name="hr03"/>
      <point x="273" y="655" type="line"/>
      <point x="260" y="655"/>
      <point x="253" y="645"/>
      <point x="251" y="634" type="curve"/>
      <point x="231" y="503" type="line" name="hr04"/>
      <point x="100" y="503" type="line"/>
      <point x="87" y="503"/>
      <point x="78" y="494"/>
      <point x="78" y="481" type="curve"/>
      <point x="78" y="467" type="line"/>
      <point x="78" y="454"/>
      <point x="87" y="445"/>
      <point x="100" y="445" type="curve"/>
      <point x="222" y="445" type="line"/>
      <point x="193" y="249" type="line"/>
      <point x="74" y="249" type="line"/>
      <point x="61" y="249"/>
      <point x="52" y="240"/>
      <point x="52" y="227" type="curve"/>
      <point x="52" y="213" type="line"/>
      <point x="52" y="200"/>
      <point x="61" y="191"/>
      <point x="74" y="191" type="curve" name="hr05"/>
      <point x="185" y="191" type="line"/>
      <point x="168" y="79"/>
      <point x="165" y="60"/>
      <point x="165" y="60" type="curve"/>
      <point x="163" y="48"/>
      <point x="173" y="39"/>
      <point x="185" y="39" type="curve" name="hr06"/>
      <point x="203" y="39" type="line"/>
      <point x="216" y="39"/>
      <point x="224" y="48"/>
      <point x="226" y="60" type="curve"/>
      <point x="245" y="191" type="line" name="hr07"/>
      <point x="412" y="191" type="line"/>
      <point x="395" y="79"/>
      <point x="392" y="60"/>
      <point x="392" y="60" type="curve"/>
      <point x="390" y="48"/>
      <point x="400" y="39"/>
      <point x="412" y="39" type="curve" name="hr08"/>
      <point x="430" y="39" type="line"/>
      <point x="443" y="39"/>
      <point x="451" y="48"/>
      <point x="453" y="60" type="curve"/>
      <point x="472" y="191" type="line" name="hr09"/>
      <point x="601" y="191" type="line"/>
      <point x="614" y="191"/>
      <point x="623" y="200"/>
      <point x="623" y="213" type="curve"/>
      <point x="623" y="227" type="line"/>
      <point x="623" y="240"/>
      <point x="614" y="249"/>
      <point x="601" y="249" type="curve"/>
      <point x="481" y="249" type="line"/>
      <point x="510" y="445" type="line"/>
    </contour>
    <contour>
      <point x="254" y="249" type="line"/>
      <point x="283" y="445" type="line"/>
      <point x="449" y="445" type="line"/>
      <point x="420" y="249" type="line"/>
    </contour>
  </outline>
</glyph>
<glyph name="dollar" format="1">
  <advance width="596"/>
  <unicode hex="0024"/>
  <outline>
    <contour>
      <point x="289" y="-100" type="curve" name="hr00"/>
      <point x="308" y="-100" type="line"/>
      <point x="321" y="-100"/>
      <point x="330" y="-91"/>
      <point x="330" y="-78" type="curve"/>
      <point x="330" y="-9" type="line"/>
      <point x="467" y="0"/>
      <point x="551" y="68"/>
      <point x="551" y="181" type="curve" smooth="yes"/>
      <point x="551" y="291"/>
      <point x="480" y="329"/>
      <point x="330" y="377" type="curve" smooth="yes"/>
      <point x="187" y="423"/>
      <point x="127" y="450"/>
      <point x="127" y="530" type="curve" smooth="yes"/>
      <point x="127" y="612"/>
      <point x="196" y="650"/>
      <point x="295" y="650" type="curve" smooth="yes"/>
      <point x="393" y="650"/>
      <point x="460" y="601"/>
      <point x="468" y="535" type="curve" smooth="yes"/>
      <point x="470" y="519"/>
      <point x="483" y="515"/>
      <point x="490" y="515" type="curve"/>
      <point x="510" y="515" type="line"/>
      <point x="524" y="515"/>
      <point x="531" y="525"/>
      <point x="531" y="535" type="curve" smooth="yes"/>
      <point x="528" y="606"/>
      <point x="464" y="695"/>
      <point x="330" y="708" type="curve"/>
      <point x="330" y="778" type="line"/>
      <point x="330" y="791"/>
      <point x="321" y="800"/>
      <point x="308" y="800" type="curve"/>
      <point x="289" y="800" type="line"/>
      <point x="276" y="800"/>
      <point x="267" y="791"/>
      <point x="267" y="778" type="curve"/>
      <point x="267" y="709" type="line"/>
      <point x="136" y="699"/>
      <point x="64" y="624"/>
      <point x="64" y="530" type="curve" smooth="yes"/>
      <point x="64" y="420"/>
      <point x="127" y="379"/>
      <point x="270" y="333" type="curve" smooth="yes"/>
      <point x="419" y="285"/>
      <point x="488" y="260"/>
      <point x="488" y="181" type="curve" smooth="yes"/>
      <point x="488" y="101"/>
      <point x="430" y="50"/>
      <point x="300" y="50" type="curve" smooth="yes"/>
      <point x="170" y="50"/>
      <point x="115" y="114"/>
      <point x="107" y="170" type="curve" smooth="yes"/>
      <point x="105" y="181"/>
      <point x="98" y="190"/>
      <point x="85" y="190" type="curve"/>
      <point x="65" y="190" type="line"/>
      <point x="53" y="190"/>
      <point x="44" y="181"/>
      <point x="44" y="170" type="curve" smooth="yes"/>
      <point x="47" y="85"/>
      <point x="125" y="2"/>
      <point x="267" y="-8" type="curve"/>
      <point x="267" y="-78" type="line"/>
      <point x="267" y="-91"/>
      <point x="276" y="-100"/>
    </contour>
  </outline>
</glyph>
<glyph name="percent" format="1">
  <advance width="741"/>
  <unicode hex="0025"/>
  <outline>
    <contour>
      <point x="334" y="569" type="curve" smooth="yes"/>
      <point x="330" y="649"/>
      <point x="286" y="705"/>
      <point x="194" y="705" type="curve" smooth="yes"/>
      <point x="102" y="705"/>
      <point x="58" y="649"/>
      <point x="54" y="569" type="curve" smooth="yes"/>
      <point x="52" y="532"/>
      <point x="52" y="514"/>
      <point x="54" y="480" type="curve" smooth="yes"/>
      <point x="58" y="400"/>
      <point x="107" y="350"/>
      <point x="194" y="350" type="curve" smooth="yes"/>
      <point x="281" y="350"/>
      <point x="330" y="400"/>
      <point x="334" y="480" type="curve" smooth="yes"/>
      <point x="336" y="514"/>
      <point x="336" y="532"/>
    </contour>
    <contour>
      <point x="112" y="483" type="curve" smooth="yes"/>
      <point x="110" y="520"/>
      <point x="110" y="531"/>
      <point x="112" y="566" type="curve" smooth="yes"/>
      <point x="114" y="606"/>
      <point x="135" y="649"/>
      <point x="194" y="649" type="curve" smooth="yes"/>
      <point x="253" y="649"/>
      <point x="274" y="606"/>
      <point x="276" y="566" type="curve" smooth="yes"/>
      <point x="278" y="531"/>
      <point x="278" y="520"/>
      <point x="276" y="483" type="curve" smooth="yes"/>
      <point x="273" y="445"/>
      <point x="254" y="401"/>
      <point x="194" y="401" type="curve" smooth="yes"/>
      <point x="134" y="401"/>
      <point x="115" y="445"/>
    </contour>
    <contour>
      <point x="687" y="218" type="curve" smooth="yes"/>
      <point x="683" y="298"/>
      <point x="639" y="354"/>
      <point x="547" y="354" type="curve" name="hr01" smooth="yes"/>
      <point x="455" y="354"/>
      <point x="411" y="298"/>
      <point x="407" y="218" type="curve" smooth="yes"/>
      <point x="405" y="181"/>
      <point x="405" y="163"/>
      <point x="407" y="129" type="curve" smooth="yes"/>
      <point x="411" y="49"/>
      <point x="460" y="-6"/>
      <point x="547" y="-6" type="curve" smooth="yes"/>
      <point x="634" y="-6"/>
      <point x="683" y="49"/>
      <point x="687" y="129" type="curve" smooth="yes"/>
      <point x="689" y="163"/>
      <point x="689" y="181"/>
    </contour>
    <contour>
      <point x="465" y="132" type="curve" smooth="yes"/>
      <point x="463" y="169"/>
      <point x="463" y="180"/>
      <point x="465" y="215" type="curve" smooth="yes"/>
      <point x="467" y="255"/>
      <point x="488" y="298"/>
      <point x="547" y="298" type="curve" smooth="yes"/>
      <point x="606" y="298"/>
      <point x="627" y="255"/>
      <point x="629" y="215" type="curve" smooth="yes"/>
      <point x="631" y="180"/>
      <point x="631" y="169"/>
      <point x="629" y="132" type="curve" smooth="yes"/>
      <point x="626" y="94"/>
      <point x="607" y="50"/>
      <point x="547" y="50" type="curve" smooth="yes"/>
      <point x="487" y="50"/>
      <point x="468" y="94"/>
    </contour>
    <contour>
      <point x="651" y="669" type="line" smooth="yes"/>
      <point x="654" y="673"/>
      <point x="655" y="678"/>
      <point x="655" y="680" type="curve" smooth="yes"/>
      <point x="655" y="692"/>
      <point x="647" y="700"/>
      <point x="635" y="700" type="curve" smooth="yes"/>
      <point x="618" y="700" type="line" smooth="yes"/>
      <point x="600" y="700"/>
      <point x="594" y="693"/>
      <point x="585" y="681" type="curve" smooth="yes"/>
      <point x="92" y="31" type="line" smooth="yes"/>
      <point x="89" y="27"/>
      <point x="88" y="22"/>
      <point x="88" y="20" type="curve" smooth="yes"/>
      <point x="88" y="8"/>
      <point x="96" y="0"/>
      <point x="108" y="0" type="curve" name="hr02" smooth="yes"/>
      <point x="125" y="0" type="line" smooth="yes"/>
      <point x="143" y="0"/>
      <point x="149" y="7"/>
      <point x="158" y="19" type="curve" smooth="yes"/>
    </contour>
  </outline>
</glyph>
<glyph name="quotesingle" format="1">
  <advance width="207"/>
  <unicode hex="0027"/>
  <outline>
    <contour>
      <point x="145" y="690" type="line" name="hr00"/>
      <point x="146" y="702"/>
      <point x="138" y="710"/>
      <point x="126" y="710" type="curve" smooth="yes"/>
      <point x="81" y="710" type="line" smooth="yes"/>
      <point x="69" y="710"/>
      <point x="61" y="702"/>
      <point x="62" y="690" type="curve" smooth="yes"/>
      <point x="77" y="527" type="line" smooth="yes"/>
      <point x="78" y="516"/>
      <point x="83" y="508"/>
      <point x="94" y="508" type="curve" smooth="yes"/>
      <point x="113" y="508" type="line" smooth="yes"/>
      <point x="124" y="508"/>
      <point x="129" y="516"/>
      <point x="130" y="527" type="curve" smooth="yes"/>
    </contour>
  </outline>
</glyph>
<glyph name="parenright" format="1">
  <advance width="319"/>
  <unicode hex="0029"/>
  <outline>
    <contour>
      <point x="47" y="-159" type="curve" smooth="yes"/>
      <point x="216" y="-159"/>
      <point x="255" y="-14"/>
      <point x="255" y="309" type="curve" smooth="yes"/>
      <point x="255" y="632"/>
      <point x="216" y="776"/>
      <point x="47" y="776" type="curve" smooth="yes"/>
      <point x="35" y="776"/>
      <point x="25" y="766"/>
      <point x="25" y="754" type="curve" smooth="yes"/>
      <point x="25" y="740" type="line" smooth="yes"/>
      <point x="25" y="728"/>
      <point x="35" y="718"/>
      <point x="44" y="718" type="curve" smooth="yes"/>
      <point x="156" y="718"/>
      <point x="196" y="626"/>
      <point x="196" y="309" type="curve" name="hr01" smooth="yes"/>
      <point x="196" y="-8"/>
      <point x="156" y="-101"/>
      <point x="44" y="-101" type="curve" smooth="yes"/>
      <point x="35" y="-101"/>
      <point x="25" y="-111"/>
      <point x="25" y="-123" type="curve" name="hr02" smooth="yes"/>
      <point x="25" y="-137" type="line" smooth="yes"/>
      <point x="25" y="-149"/>
      <point x="35" y="-159"/>
    </contour>
  </outline>
</glyph>
<glyph name="asterisk" format="1">
  <advance width="446"/>
  <unicode hex="002A"/>
  <outline>
    <contour>
      <point x="101" y="651" type="curve" name="hr00"/>
      <point x="91" y="654"/>
      <point x="77" y="648"/>
      <point x="74" y="637" type="curve" smooth="yes"/>
      <point x="61" y="599" type="line"/>
      <point x="58" y="587"/>
      <point x="65" y="574"/>
      <point x="75" y="571" type="curve"/>
      <point x="76" y="571"/>
      <point x="78" y="570"/>
      <point x="83" y="569" type="curve" smooth="yes"/>
      <point x="187" y="556" type="line"/>
      <point x="111" y="484" type="line" smooth="yes"/>
      <point x="107" y="480"/>
      <point x="105" y="478"/>
      <point x="105" y="477" type="curve" smooth="yes"/>
      <point x="99" y="469"/>
      <point x="100" y="454"/>
      <point x="110" y="447" type="curve" smooth="yes"/>
      <point x="142" y="423" type="line"/>
      <point x="153" y="417"/>
      <point x="167" y="419"/>
      <point x="173" y="428" type="curve"/>
      <point x="173" y="429"/>
      <point x="175" y="430"/>
      <point x="177" y="435" type="curve" smooth="yes"/>
      <point x="223" y="531" type="line"/>
      <point x="269" y="435" type="line" smooth="yes"/>
      <point x="271" y="430"/>
      <point x="273" y="429"/>
      <point x="273" y="428" type="curve" smooth="yes"/>
      <point x="279" y="419"/>
      <point x="293" y="417"/>
      <point x="304" y="423" type="curve"/>
      <point x="336" y="447" type="line" smooth="yes"/>
      <point x="346" y="454"/>
      <point x="347" y="469"/>
      <point x="341" y="477" type="curve"/>
      <point x="341" y="478"/>
      <point x="339" y="480"/>
      <point x="335" y="484" type="curve" smooth="yes"/>
      <point x="258" y="555" type="line"/>
      <point x="363" y="569" type="line" smooth="yes"/>
      <point x="368" y="570"/>
      <point x="370" y="571"/>
      <point x="371" y="571" type="curve" smooth="yes"/>
      <point x="381" y="574"/>
      <point x="388" y="587"/>
      <point x="385" y="599" type="curve"/>
      <point x="372" y="637" type="line" smooth="yes"/>
      <point x="369" y="648"/>
      <point x="355" y="654"/>
      <point x="345" y="651" type="curve"/>
      <point x="344" y="651"/>
      <point x="342" y="650"/>
      <point x="337" y="647" type="curve" smooth="yes"/>
      <point x="244" y="596" type="line"/>
      <point x="264" y="700" type="line" smooth="yes"/>
      <point x="265" y="705"/>
      <point x="265" y="707"/>
      <point x="265" y="708" type="curve" smooth="yes"/>
      <point x="265" y="719"/>
      <point x="255" y="730"/>
      <point x="243" y="730" type="curve" smooth="yes"/>
      <point x="203" y="730" type="line" smooth="yes"/>
      <point x="191" y="730"/>
      <point x="181" y="719"/>
      <point x="181" y="708" type="curve" smooth="yes"/>
      <point x="181" y="707"/>
      <point x="181" y="705"/>
      <point x="182" y="700" type="curve" smooth="yes"/>
      <point x="201" y="597" type="line"/>
      <point x="109" y="647" type="line" smooth="yes"/>
      <point x="104" y="650"/>
      <point x="102" y="651"/>
    </contour>
  </outline>
</glyph>
<glyph name="plus" format="1">
  <advance width="628"/>
  <unicode hex="002B"/>
  <outline>
    <contour>
      <point x="343" y="545" type="line" name="hr00" smooth="yes"/>
      <point x="343" y="558"/>
      <point x="334" y="567"/>
      <point x="321" y="567" type="curve" smooth="yes"/>
      <point x="306" y="567" type="line" smooth="yes"/>
      <point x="293" y="567"/>
      <point x="284" y="558"/>
      <point x="284" y="545" type="curve" smooth="yes"/>
      <point x="284" y="332" type="line"/>
      <point x="67" y="332" type="line" smooth="yes"/>
      <point x="54" y="332"/>
      <point x="45" y="323"/>
      <point x="45" y="310" type="curve" smooth="yes"/>
      <point x="45" y="296" type="line" smooth="yes"/>
      <point x="45" y="283"/>
      <point x="54" y="274"/>
      <point x="67" y="274" type="curve" smooth="yes"/>
      <point x="284" y="274" type="line"/>
      <point x="284" y="55" type="line" smooth="yes"/>
      <point x="284" y="42"/>
      <point x="293" y="33"/>
      <point x="306" y="33" type="curve" smooth="yes"/>
      <point x="321" y="33" type="line" smooth="yes"/>
      <point x="334" y="33"/>
      <point x="343" y="42"/>
      <point x="343" y="55" type="curve" smooth="yes"/>
      <point x="343" y="274" type="line"/>
      <point x="561" y="274" type="line" smooth="yes"/>
      <point x="574" y="274"/>
      <point x="583" y="283"/>
      <point x="583" y="296" type="curve" smooth="yes"/>
      <point x="583" y="310" type="line" smooth="yes"/>
      <point x="583" y="323"/>
      <point x="574" y="332"/>
      <point x="561" y="332" type="curve" smooth="yes"/>
      <point x="343" y="332" type="line"/>
    </contour>
  </outline>
</glyph>
<glyph name="period" format="1">
  <advance width="238"/>
  <unicode hex="002E"/>
  <outline>
    <contour>
      <point x="166" y="70" type="line" name="hr00" smooth="yes"/>
      <point x="166" y="83"/>
      <point x="156" y="93"/>
      <point x="143" y="93" type="curve" smooth="yes"/>
      <point x="95" y="93" type="line" smooth="yes"/>
      <point x="82" y="93"/>
      <point x="73" y="83"/>
      <point x="73" y="70" type="curve" smooth="yes"/>
      <point x="73" y="22" type="line" smooth="yes"/>
      <point x="73" y="9"/>
      <point x="82" y="0"/>
      <point x="95" y="0" type="curve" smooth="yes"/>
      <point x="143" y="0" type="line" smooth="yes"/>
      <point x="156" y="0"/>
      <point x="166" y="9"/>
      <point x="166" y="22" type="curve" smooth="yes"/>
    </contour>
  </outline>
</glyph>
<glyph name="slash" format="1">
  <advance width="459"/>
  <unicode hex="002F"/>
  <outline>
    <contour>
      <point x="430" y="754" type="line" name="hr00"/>
      <point x="432" y="759"/>
      <point x="433" y="764"/>
      <point x="433" y="766" type="curve" smooth="yes"/>
      <point x="433" y="777"/>
      <point x="424" y="786"/>
      <point x="413" y="786" type="curve" smooth="yes"/>
      <point x="396" y="786" type="line" smooth="yes"/>
      <point x="383" y="786"/>
      <point x="376" y="776"/>
      <point x="374" y="771" type="curve" smooth="yes"/>
      <point x="30" y="-52" type="line" smooth="yes"/>
      <point x="28" y="-57"/>
      <point x="27" y="-62"/>
      <point x="27" y="-64" type="curve" smooth="yes"/>
      <point x="27" y="-75"/>
      <point x="36" y="-84"/>
      <point x="47" y="-84" type="curve" smooth="yes"/>
      <point x="64" y="-84" type="line" smooth="yes"/>
      <point x="77" y="-84"/>
      <point x="84" y="-74"/>
      <point x="86" y="-69" type="curve" smooth="yes"/>
    </contour>
  </outline>
</glyph>
<glyph name="zero" format="1">
  <advance width="616"/>
  <unicode hex="0030"/>
  <outline>
    <contour>
      <point x="68" y="434" type="curve" name="hr00" smooth="yes"/>
      <point x="67" y="377"/>
      <point x="67" y="320"/>
      <point x="68" y="266" type="curve" smooth="yes"/>
      <point x="72" y="119"/>
      <point x="127" y="-10"/>
      <point x="308" y="-10" type="curve" smooth="yes"/>
      <point x="489" y="-10"/>
      <point x="544" y="119"/>
      <point x="548" y="266" type="curve" smooth="yes"/>
      <point x="549" y="320"/>
      <point x="549" y="377"/>
      <point x="548" y="434" type="curve" smooth="yes"/>
      <point x="545" y="581"/>
      <point x="489" y="710"/>
      <point x="308" y="710" type="curve" smooth="yes"/>
      <point x="127" y="710"/>
      <point x="71" y="581"/>
    </contour>
    <contour>
      <point x="485" y="429" type="curve" smooth="yes"/>
      <point x="486" y="374"/>
      <point x="486" y="328"/>
      <point x="485" y="271" type="curve" smooth="yes"/>
      <point x="482" y="134"/>
      <point x="426" y="50"/>
      <point x="308" y="50" type="curve" smooth="yes"/>
      <point x="190" y="50"/>
      <point x="134" y="134"/>
      <point x="131" y="271" type="curve" smooth="yes"/>
      <point x="130" y="328"/>
      <point x="130" y="374"/>
      <point x="131" y="429" type="curve" smooth="yes"/>
      <point x="134" y="564"/>
      <point x="190" y="650"/>
      <point x="308" y="650" type="curve" smooth="yes"/>
      <point x="426" y="650"/>
      <point x="482" y="564"/>
    </contour>
  </outline>
</glyph>
<glyph name="one" format="1">
  <advance width="398"/>
  <unicode hex="0031"/>
  <outline>
    <contour>
      <point x="317" y="678" type="line" name="hr00" smooth="yes"/>
      <point x="317" y="691"/>
      <point x="308" y="700"/>
      <point x="295" y="700" type="curve" smooth="yes"/>
      <point x="276" y="700" type="line" smooth="yes"/>
      <point x="267" y="700"/>
      <point x="259" y="699"/>
      <point x="250" y="693" type="curve"/>
      <point x="37" y="529" type="line" smooth="yes"/>
      <point x="26" y="521"/>
      <point x="25" y="508"/>
      <point x="33" y="498" type="curve" smooth="yes"/>
      <point x="44" y="484" type="line" smooth="yes"/>
      <point x="52" y="473"/>
      <point x="64" y="472"/>
      <point x="75" y="480" type="curve" smooth="yes"/>
      <point x="254" y="618" type="line"/>
      <point x="254" y="22" type="line" smooth="yes"/>
      <point x="254" y="9"/>
      <point x="263" y="0"/>
      <point x="276" y="0" type="curve" smooth="yes"/>
      <point x="295" y="0" type="line" smooth="yes"/>
      <point x="308" y="0"/>
      <point x="317" y="9"/>
      <point x="317" y="22" type="curve" smooth="yes"/>
    </contour>
  </outline>
</glyph>
<glyph name="five" format="1">
  <advance width="572"/>
  <unicode hex="0035"/>
  <outline>
    <contour>
      <point x="458" y="224" type="curve" smooth="yes"/>
      <point x="458" y="111"/>
      <point x="378" y="50"/>
      <point x="280" y="50" type="curve" smooth="yes"/>
      <point x="208" y="50"/>
      <point x="135" y="84"/>
      <point x="114" y="171" type="curve" smooth="yes"/>
      <point x="109" y="191"/>
      <point x="100" y="194"/>
      <point x="89" y="194" type="curve" smooth="yes"/>
      <point x="70" y="194" type="line" smooth="yes"/>
      <point x="58" y="194"/>
      <point x="49" y="187"/>
      <point x="50" y="175" type="curve" smooth="yes"/>
      <point x="54" y="83"/>
      <point x="134" y="-10"/>
      <point x="280" y="-10" type="curve" smooth="yes"/>
      <point x="413" y="-10"/>
      <point x="521" y="68"/>
      <point x="521" y="224" type="curve" smooth="yes"/>
      <point x="521" y="370"/>
      <point x="413" y="448"/>
      <point x="280" y="448" type="curve" smooth="yes"/>
      <point x="205" y="448"/>
      <point x="165" y="423"/>
      <point x="151" y="414" type="curve"/>
      <point x="172" y="640" type="line"/>
      <point x="459" y="640" type="line" smooth="yes"/>
      <point x="472" y="640"/>
      <point x="481" y="649"/>
      <point x="481" y="662" type="curve" smooth="yes"/>
      <point x="481" y="678" type="line" smooth="yes"/>
      <point x="481" y="691"/>
      <point x="472" y="700"/>
      <point x="459" y="700" type="curve" smooth="yes"/>
      <point x="133" y="700" type="line" smooth="yes"/>
      <point x="120" y="700"/>
      <point x="112" y="691"/>
      <point x="111" y="677" type="curve" smooth="yes"/>
      <point x="81" y="350" type="line" smooth="yes"/>
      <point x="80" y="338"/>
      <point x="91" y="328"/>
      <point x="103" y="328" type="curve" smooth="yes"/>
      <point x="121" y="328" type="line" smooth="yes"/>
      <point x="163" y="328"/>
      <point x="180" y="388"/>
      <point x="280" y="388" type="curve" name="hr01" smooth="yes"/>
      <point x="378" y="388"/>
      <point x="458" y="327"/>
    </contour>
  </outline>
</glyph>
<glyph name="six" format="1">
  <advance width="582"/>
  <unicode hex="0036"/>
  <outline>
    <contour>
      <point x="55" y="226" type="curve" name="hr00" smooth="yes"/>
      <point x="55" y="105"/>
      <point x="138" y="-10"/>
      <point x="298" y="-10" type="curve" smooth="yes"/>
      <point x="458" y="-10"/>
      <point x="541" y="105"/>
      <point x="541" y="226" type="curve" smooth="yes"/>
      <point x="541" y="347"/>
      <point x="458" y="461"/>
      <point x="298" y="461" type="curve" smooth="yes"/>
      <point x="276" y="461"/>
      <point x="249" y="458"/>
      <point x="230" y="453" type="curve"/>
      <point x="380" y="665" type="line" smooth="yes"/>
      <point x="382" y="668"/>
      <point x="385" y="672"/>
      <point x="385" y="678" type="curve" smooth="yes"/>
      <point x="385" y="690"/>
      <point x="377" y="700"/>
      <point x="365" y="700" type="curve" smooth="yes"/>
      <point x="346" y="700" type="line" smooth="yes"/>
      <point x="328" y="700"/>
      <point x="321" y="687"/>
      <point x="315" y="680" type="curve"/>
      <point x="118" y="403" type="line" smooth="yes"/>
      <point x="95" y="370"/>
      <point x="55" y="304"/>
    </contour>
    <contour>
      <point x="478" y="226" type="curve" smooth="yes"/>
      <point x="478" y="111"/>
      <point x="392" y="50"/>
      <point x="298" y="50" type="curve" smooth="yes"/>
      <point x="204" y="50"/>
      <point x="118" y="111"/>
      <point x="118" y="226" type="curve" smooth="yes"/>
      <point x="118" y="340"/>
      <point x="204" y="401"/>
      <point x="298" y="401" type="curve" smooth="yes"/>
      <point x="392" y="401"/>
      <point x="478" y="340"/>
    </contour>
  </outline>
</glyph>
<glyph name="seven" format="1">
  <advance width="487"/>
  <unicode hex="0037"/>
  <outline>
    <contour>
      <point x="51" y="700" type="line" name="hr00"/>
      <point x="38" y="700"/>
      <point x="29" y="691"/>
      <point x="29" y="677" type="curve" smooth="yes"/>
      <point x="29" y="662" type="line" smooth="yes"/>
      <point x="29" y="649"/>
      <point x="38" y="640"/>
      <point x="51" y="640" type="curve" smooth="yes"/>
      <point x="392" y="640" type="line"/>
      <point x="135" y="31" type="line" smooth="yes"/>
      <point x="134" y="28"/>
      <point x="133" y="24"/>
      <point x="133" y="22" type="curve" smooth="yes"/>
      <point x="133" y="10"/>
      <point x="141" y="0"/>
      <point x="153" y="0" type="curve" smooth="yes"/>
      <point x="174" y="0" type="line" smooth="yes"/>
      <point x="189" y="0"/>
      <point x="195" y="14"/>
      <point x="200" y="25" type="curve" smooth="yes"/>
      <point x="453" y="625" type="line" smooth="yes"/>
      <point x="458" y="638"/>
      <point x="460" y="646"/>
      <point x="460" y="662" type="curve" smooth="yes"/>
      <point x="460" y="677" type="line" smooth="yes"/>
      <point x="460" y="691"/>
      <point x="451" y="700"/>
      <point x="437" y="700" type="curve" smooth="yes"/>
    </contour>
  </outline>
</glyph>
<glyph name="nine" format="1">
  <advance width="572"/>
  <unicode hex="0039"/>
  <outline>
    <contour>
      <point x="517" y="479" type="curve" name="hr00" smooth="yes"/>
      <point x="517" y="590"/>
      <point x="439" y="710"/>
      <point x="279" y="710" type="curve" smooth="yes"/>
      <point x="119" y="710"/>
      <point x="42" y="590"/>
      <point x="42" y="479" type="curve" smooth="yes"/>
      <point x="42" y="368"/>
      <point x="119" y="249"/>
      <point x="279" y="249" type="curve" smooth="yes"/>
      <point x="301" y="249"/>
      <point x="325" y="252"/>
      <point x="344" y="257" type="curve"/>
      <point x="186" y="35" type="line" smooth="yes"/>
      <point x="184" y="32"/>
      <point x="181" y="28"/>
      <point x="181" y="22" type="curve" smooth="yes"/>
      <point x="181" y="10"/>
      <point x="189" y="0"/>
      <point x="201" y="0" type="curve" smooth="yes"/>
      <point x="221" y="0" type="line" smooth="yes"/>
      <point x="239" y="0"/>
      <point x="246" y="13"/>
      <point x="252" y="20" type="curve"/>
      <point x="458" y="311" type="line" smooth="yes"/>
      <point x="481" y="344"/>
      <point x="517" y="400"/>
    </contour>
    <contour>
      <point x="105" y="479" type="curve" smooth="yes"/>
      <point x="105" y="584"/>
      <point x="185" y="650"/>
      <point x="279" y="650" type="curve" smooth="yes"/>
      <point x="373" y="650"/>
      <point x="454" y="584"/>
      <point x="454" y="479" type="curve" smooth="yes"/>
      <point x="454" y="375"/>
      <point x="373" y="309"/>
      <point x="279" y="309" type="curve" smooth="yes"/>
      <point x="185" y="309"/>
      <point x="105" y="375"/>
    </contour>
  </outline>
</glyph>
<glyph name="colon" format="1">
  <advance width="241"/>
  <unicode hex="003A"/>
  <outline>
    <contour>
      <point x="167" y="70" type="line" name="hr00" smooth="yes"/>
      <point x="167" y="83"/>
      <point x="157" y="93"/>
      <point x="144" y="93" type="curve" smooth="yes"/>
      <point x="96" y="93" type="line" smooth="yes"/>
      <point x="83" y="93"/>
      <point x="74" y="83"/>
      <point x="74" y="70" type="curve" smooth="yes"/>
      <point x="74" y="22" type="line" smooth="yes"/>
      <point x="74" y="9"/>
      <point x="83" y="0"/>
      <point x="96" y="0" type="curve" smooth="yes"/>
      <point x="144" y="0" type="line" smooth="yes"/>
      <point x="157" y="0"/>
      <point x="167" y="9"/>
      <point x="167" y="22" type="curve" smooth="yes"/>
    </contour>
    <contour>
      <point x="167" y="420" type="line" smooth="yes"/>
      <point x="167" y="433"/>
      <point x="157" y="443"/>
      <point x="144" y="443" type="curve" smooth="yes"/>
      <point x="96" y="443" type="line" smooth="yes"/>
      <point x="83" y="443"/>
      <point x="74" y="433"/>
      <point x="74" y="420" type="curve" smooth="yes"/>
      <point x="74" y="372" type="line" smooth="yes"/>
      <point x="74" y="359"/>
      <point x="83" y="350"/>
      <point x="96" y="350" type="curve" smooth="yes"/>
      <point x="144" y="350" type="line" smooth="yes"/>
      <point x="157" y="350"/>
      <point x="167" y="359"/>
      <point x="167" y="372" type="curve" smooth="yes"/>
    </contour>
  </outline>
</glyph>
<glyph name="less" format="1">
  <advance width="481"/>
  <unicode hex="003C"/>
  <outline>
    <contour>
      <point x="39" y="358" type="curve" name="hr00"/>
      <point x="39" y="346" type="line" smooth="yes"/>
      <point x="39" y="328"/>
      <point x="47" y="315"/>
      <point x="68" y="300" type="curve" smooth="yes"/>
      <point x="363" y="96" type="line" smooth="yes"/>
      <point x="369" y="92"/>
      <point x="381" y="84"/>
      <point x="390" y="84" type="curve" smooth="yes"/>
      <point x="401" y="84"/>
      <point x="410" y="91"/>
      <point x="410" y="104" type="curve" smooth="yes"/>
      <point x="410" y="121" type="line" smooth="yes"/>
      <point x="410" y="134"/>
      <point x="405" y="141"/>
      <point x="389" y="152" type="curve" smooth="yes"/>
      <point x="100" y="352" type="line"/>
      <point x="389" y="552" type="line" smooth="yes"/>
      <point x="405" y="563"/>
      <point x="410" y="570"/>
      <point x="410" y="583" type="curve" smooth="yes"/>
      <point x="410" y="600" type="line" smooth="yes"/>
      <point x="410" y="613"/>
      <point x="401" y="620"/>
      <point x="390" y="620" type="curve" smooth="yes"/>
      <point x="381" y="620"/>
      <point x="369" y="612"/>
      <point x="363" y="608" type="curve" smooth="yes"/>
      <point x="68" y="404" type="line" smooth="yes"/>
      <point x="47" y="389"/>
      <point x="39" y="376"/>
    </contour>
  </outline>
</glyph>
<glyph name="greater" format="1">
  <advance width="480"/>
  <unicode hex="003E"/>
  <outline>
    <contour>
      <point x="442" y="358" type="line" name="hr00"/>
      <point x="442" y="376"/>
      <point x="434" y="389"/>
      <point x="413" y="404" type="curve" smooth="yes"/>
      <point x="118" y="608" type="line" smooth="yes"/>
      <point x="112" y="612"/>
      <point x="100" y="620"/>
      <point x="91" y="620" type="curve" smooth="yes"/>
      <point x="80" y="620"/>
      <point x="71" y="613"/>
      <point x="71" y="600" type="curve" smooth="yes"/>
      <point x="71" y="583" type="line" smooth="yes"/>
      <point x="71" y="570"/>
      <point x="76" y="563"/>
      <point x="92" y="552" type="curve" smooth="yes"/>
      <point x="381" y="352" type="line"/>
      <point x="92" y="152" type="line" smooth="yes"/>
      <point x="76" y="141"/>
      <point x="71" y="134"/>
      <point x="71" y="121" type="curve" smooth="yes"/>
      <point x="71" y="104" type="line" smooth="yes"/>
      <point x="71" y="91"/>
      <point x="80" y="84"/>
      <point x="91" y="84" type="curve" smooth="yes"/>
      <point x="100" y="84"/>
      <point x="112" y="92"/>
      <point x="118" y="96" type="curve" smooth="yes"/>
      <point x="413" y="300" type="line" smooth="yes"/>
      <point x="434" y="315"/>
      <point x="442" y="328"/>
      <point x="442" y="346" type="curve" smooth="yes"/>
    </contour>
  </outline>
</glyph>
<glyph name="question" format="1">
  <advance width="503"/>
  <unicode hex="003F"/>
  <outline>
    <contour>
      <point x="247" y="143" type="curve"/>
      <point x="264" y="143" type="line" smooth="yes"/>
      <point x="277" y="143"/>
      <point x="286" y="152"/>
      <point x="286" y="165" type="curve" smooth="yes"/>
      <point x="286" y="213" type="line" smooth="yes"/>
      <point x="286" y="334"/>
      <point x="454" y="383"/>
      <point x="464" y="523" type="curve" name="hr01" smooth="yes"/>
      <point x="471" y="617"/>
      <point x="402" y="710"/>
      <point x="255" y="710" type="curve" smooth="yes"/>
      <point x="128" y="710"/>
      <point x="38" y="622"/>
      <point x="35" y="511" type="curve" smooth="yes"/>
      <point x="35" y="499"/>
      <point x="44" y="491"/>
      <point x="56" y="491" type="curve" smooth="yes"/>
      <point x="72" y="491" type="line" smooth="yes"/>
      <point x="82" y="491"/>
      <point x="93" y="495"/>
      <point x="96" y="513" type="curve" smooth="yes"/>
      <point x="113" y="615"/>
      <point x="177" y="652"/>
      <point x="255" y="652" type="curve" smooth="yes"/>
      <point x="333" y="652"/>
      <point x="413" y="605"/>
      <point x="403" y="522" type="curve" smooth="yes"/>
      <point x="390" y="417"/>
      <point x="225" y="366"/>
      <point x="225" y="213" type="curve" smooth="yes"/>
      <point x="225" y="165" type="line" smooth="yes"/>
      <point x="225" y="152"/>
      <point x="234" y="143"/>
    </contour>
    <contour>
      <point x="296" y="60" type="line" smooth="yes"/>
      <point x="296" y="73"/>
      <point x="286" y="83"/>
      <point x="273" y="83" type="curve" smooth="yes"/>
      <point x="235" y="83" type="line" smooth="yes"/>
      <point x="222" y="83"/>
      <point x="213" y="73"/>
      <point x="213" y="60" type="curve" name="hr02" smooth="yes"/>
      <point x="213" y="22" type="line" smooth="yes"/>
      <point x="213" y="9"/>
      <point x="222" y="0"/>
      <point x="235" y="0" type="curve" smooth="yes"/>
      <point x="273" y="0" type="line" smooth="yes"/>
      <point x="286" y="0"/>
      <point x="296" y="9"/>
      <point x="296" y="22" type="curve" smooth="yes"/>
    </contour>
  </outline>
</glyph>
<glyph name="at" format="1">
  <advance width="826"/>
  <unicode hex="0040"/>
  <outline>
    <contour>
      <point x="757" y="225" type="curve" smooth="yes"/>
      <point x="758" y="241"/>
      <point x="760" y="304"/>
      <point x="757" y="358" type="curve" smooth="yes"/>
      <point x="748" y="553"/>
      <point x="632" y="661"/>
      <point x="403" y="661" type="curve" smooth="yes"/>
      <point x="203" y="661"/>
      <point x="86" y="548"/>
      <point x="64" y="358" type="curve" smooth="yes"/>
      <point x="60" y="324"/>
      <point x="60" y="224"/>
      <point x="64" y="187" type="curve" smooth="yes"/>
      <point x="85" y="-7"/>
      <point x="202" y="-113"/>
      <point x="403" y="-113" type="curve" smooth="yes"/>
      <point x="559" y="-113"/>
      <point x="638" y="-63"/>
      <point x="691" y="-8" type="curve" smooth="yes"/>
      <point x="694" y="-4"/>
      <point x="696" y="0"/>
      <point x="696" y="6" type="curve" smooth="yes"/>
      <point x="696" y="18"/>
      <point x="687" y="27"/>
      <point x="675" y="27" type="curve" smooth="yes"/>
      <point x="649" y="27" type="line" smooth="yes"/>
      <point x="637" y="27"/>
      <point x="630" y="19"/>
      <point x="625" y="15" type="curve" smooth="yes"/>
      <point x="600" y="-4"/>
      <point x="554" y="-55"/>
      <point x="403" y="-55" type="curve" name="hr01" smooth="yes"/>
      <point x="240" y="-55"/>
      <point x="142" y="35"/>
      <point x="125" y="192" type="curve" smooth="yes"/>
      <point x="121" y="229"/>
      <point x="121" y="319"/>
      <point x="125" y="353" type="curve" smooth="yes"/>
      <point x="144" y="512"/>
      <point x="240" y="603"/>
      <point x="403" y="603" type="curve" smooth="yes"/>
      <point x="602" y="603"/>
      <point x="684" y="513"/>
      <point x="696" y="353" type="curve" smooth="yes"/>
      <point x="700" y="299"/>
      <point x="697" y="247"/>
      <point x="696" y="231" type="curve" smooth="yes"/>
      <point x="695" y="202"/>
      <point x="688" y="137"/>
      <point x="628" y="137" type="curve" smooth="yes"/>
      <point x="590" y="137"/>
      <point x="561" y="167"/>
      <point x="561" y="230" type="curve" smooth="yes"/>
      <point x="561" y="448" type="line" smooth="yes"/>
      <point x="561" y="461"/>
      <point x="552" y="470"/>
      <point x="539" y="470" type="curve" smooth="yes"/>
      <point x="522" y="470" type="line" smooth="yes"/>
      <point x="509" y="470"/>
      <point x="500" y="461"/>
      <point x="500" y="448" type="curve" smooth="yes"/>
      <point x="500" y="429" type="line"/>
      <point x="482" y="451"/>
      <point x="453" y="478"/>
      <point x="397" y="478" type="curve" smooth="yes"/>
      <point x="299" y="478"/>
      <point x="233" y="405"/>
      <point x="233" y="273" type="curve" smooth="yes"/>
      <point x="233" y="141"/>
      <point x="298" y="69"/>
      <point x="397" y="69" type="curve" smooth="yes"/>
      <point x="473" y="69"/>
      <point x="506" y="111"/>
      <point x="522" y="138" type="curve"/>
      <point x="531" y="124"/>
      <point x="562" y="79"/>
      <point x="628" y="79" type="curve" smooth="yes"/>
      <point x="709" y="79"/>
      <point x="751" y="129"/>
    </contour>
    <contour>
      <point x="294" y="273" type="curve" smooth="yes"/>
      <point x="294" y="358"/>
      <point x="321" y="420"/>
      <point x="397" y="420" type="curve" smooth="yes"/>
      <point x="476" y="420"/>
      <point x="500" y="358"/>
      <point x="500" y="273" type="curve" smooth="yes"/>
      <point x="500" y="188"/>
      <point x="476" y="127"/>
      <point x="397" y="127" type="curve" smooth="yes"/>
      <point x="321" y="127"/>
      <point x="294" y="198"/>
    </contour>
  </outline>
</glyph>
<glyph name="A" format="1">
  <advance width="650"/>
  <unicode hex="0041"/>
  <outline>
    <contour>
      <point x="564" y="15" type="line" name="hr00" smooth="yes"/>
      <point x="566" y="10"/>
      <point x="573" y="0"/>
      <point x="586" y="0" type="curve" smooth="yes"/>
      <point x="606" y="0" type="line" smooth="yes"/>
      <point x="617" y="0"/>
      <point x="626" y="9"/>
      <point x="626" y="20" type="curve" smooth="yes"/>
      <point x="626" y="22"/>
      <point x="625" y="28"/>
      <point x="624" y="31" type="curve" smooth="yes"/>
      <point x="371" y="680" type="line" smooth="yes"/>
      <point x="366" y="693"/>
      <point x="358" y="700"/>
      <point x="342" y="700" type="curve" smooth="yes"/>
      <point x="308" y="700" type="line" smooth="yes"/>
      <point x="292" y="700"/>
      <point x="284" y="693"/>
      <point x="279" y="680" type="curve" smooth="yes"/>
      <point x="26" y="31" type="line" smooth="yes"/>
      <point x="25" y="28"/>
      <point x="24" y="22"/>
      <point x="24" y="20" type="curve" smooth="yes"/>
      <point x="24" y="9"/>
      <point x="33" y="0"/>
      <point x="44" y="0" type="curve" smooth="yes"/>
      <point x="64" y="0" type="line" smooth="yes"/>
      <point x="77" y="0"/>
      <point x="84" y="10"/>
      <point x="86" y="15" type="curve" smooth="yes"/>
      <point x="148" y="175" type="line"/>
      <point x="502" y="175" type="line"/>
    </contour>
    <contour>
      <point x="325" y="629" type="line"/>
      <point x="478" y="235" type="line"/>
      <point x="172" y="235" type="line"/>
    </contour>
  </outline>
</glyph>
<glyph name="B" format="1">
  <advance width="653"/>
  <unicode hex="0042"/>
  <outline>
    <contour>
      <point x="384" y="0" type="line"/>
      <point x="520" y="0"/>
      <point x="592" y="97"/>
      <point x="592" y="198" type="curve" smooth="yes"/>
      <point x="592" y="282"/>
      <point x="543" y="342"/>
      <point x="490" y="369" type="curve"/>
      <point x="530" y="388"/>
      <point x="578" y="435"/>
      <point x="578" y="521" type="curve" name="hr01" smooth="yes"/>
      <point x="578" y="616"/>
      <point x="517" y="700"/>
      <point x="377" y="700" type="curve" smooth="yes"/>
      <point x="116" y="700" type="line" smooth="yes"/>
      <point x="103" y="700"/>
      <point x="94" y="691"/>
      <point x="94" y="677" type="curve" smooth="yes"/>
      <point x="94" y="22" type="line" smooth="yes"/>
      <point x="94" y="9"/>
      <point x="103" y="0"/>
      <point x="116" y="0" type="curve" smooth="yes"/>
    </contour>
    <contour>
      <point x="364" y="640" type="line"/>
      <point x="463" y="640"/>
      <point x="515" y="600"/>
      <point x="515" y="521" type="curve" smooth="yes"/>
      <point x="515" y="442"/>
      <point x="463" y="396"/>
      <point x="364" y="396" type="curve" smooth="yes"/>
      <point x="157" y="396" type="line"/>
      <point x="157" y="640" type="line"/>
    </contour>
    <contour>
      <point x="374" y="336" type="line"/>
      <point x="473" y="336"/>
      <point x="529" y="279"/>
      <point x="529" y="198" type="curve" name="hr02" smooth="yes"/>
      <point x="529" y="118"/>
      <point x="473" y="60"/>
      <point x="374" y="60" type="curve" smooth="yes"/>
      <point x="157" y="60" type="line"/>
      <point x="157" y="336" type="line"/>
    </contour>
  </outline>
</glyph>
<glyph name="C" format="1">
  <advance width="651"/>
  <unicode hex="0043"/>
  <outline>
    <contour>
      <point x="129" y="434" type="curve" name="hr00" smooth="yes"/>
      <point x="134" y="585"/>
      <point x="209" y="650"/>
      <point x="331" y="650" type="curve" smooth="yes"/>
      <point x="438" y="650"/>
      <point x="509" y="614"/>
      <point x="535" y="495" type="curve" smooth="yes"/>
      <point x="538" y="479"/>
      <point x="546" y="474"/>
      <point x="557" y="474" type="curve" smooth="yes"/>
      <point x="577" y="474" type="line" smooth="yes"/>
      <point x="589" y="474"/>
      <point x="599" y="482"/>
      <point x="598" y="494" type="curve" smooth="yes"/>
      <point x="593" y="589"/>
      <point x="521" y="710"/>
      <point x="331" y="710" type="curve" smooth="yes"/>
      <point x="149" y="710"/>
      <point x="72" y="595"/>
      <point x="66" y="439" type="curve" smooth="yes"/>
      <point x="64" y="382"/>
      <point x="64" y="315"/>
      <point x="66" y="261" type="curve" smooth="yes"/>
      <point x="72" y="105"/>
      <point x="149" y="-10"/>
      <point x="331" y="-10" type="curve" smooth="yes"/>
      <point x="521" y="-10"/>
      <point x="593" y="111"/>
      <point x="598" y="206" type="curve" smooth="yes"/>
      <point x="599" y="218"/>
      <point x="589" y="226"/>
      <point x="577" y="226" type="curve" smooth="yes"/>
      <point x="557" y="226" type="line" smooth="yes"/>
      <point x="546" y="226"/>
      <point x="538" y="221"/>
      <point x="535" y="205" type="curve" smooth="yes"/>
      <point x="509" y="86"/>
      <point x="438" y="50"/>
      <point x="331" y="50" type="curve" smooth="yes"/>
      <point x="209" y="50"/>
      <point x="134" y="115"/>
      <point x="129" y="266" type="curve" smooth="yes"/>
      <point x="127" y="323"/>
      <point x="127" y="379"/>
    </contour>
  </outline>
</glyph>
<glyph name="D" format="1">
  <advance width="677"/>
  <unicode hex="0044"/>
  <outline>
    <contour>
      <point x="329" y="700" type="curve" name="hr00"/>
      <point x="116" y="700" type="line" smooth="yes"/>
      <point x="103" y="700"/>
      <point x="94" y="691"/>
      <point x="94" y="677" type="curve" smooth="yes"/>
      <point x="94" y="22" type="line" smooth="yes"/>
      <point x="94" y="9"/>
      <point x="103" y="0"/>
      <point x="116" y="0" type="curve" smooth="yes"/>
      <point x="334" y="0" type="line" smooth="yes"/>
      <point x="540" y="0"/>
      <point x="603" y="87"/>
      <point x="607" y="271" type="curve" smooth="yes"/>
      <point x="608" y="331"/>
      <point x="608" y="370"/>
      <point x="607" y="430" type="curve" smooth="yes"/>
      <point x="604" y="604"/>
      <point x="541" y="700"/>
    </contour>
    <contour>
      <point x="544" y="425" type="curve" smooth="yes"/>
      <point x="545" y="365"/>
      <point x="545" y="336"/>
      <point x="544" y="276" type="curve" smooth="yes"/>
      <point x="541" y="120"/>
      <point x="488" y="60"/>
      <point x="329" y="60" type="curve" smooth="yes"/>
      <point x="157" y="60" type="line"/>
      <point x="157" y="640" type="line"/>
      <point x="324" y="640" type="line" smooth="yes"/>
      <point x="484" y="640"/>
      <point x="541" y="571"/>
    </contour>
  </outline>
</glyph>
<glyph name="E" format="1">
  <advance width="592"/>
  <unicode hex="0045"/>
  <outline>
    <contour>
      <point x="157" y="60" type="line" name="hr00"/>
      <point x="157" y="325" type="line"/>
      <point x="484" y="325" type="line" smooth="yes"/>
      <point x="498" y="325"/>
      <point x="507" y="334"/>
      <point x="507" y="347" type="curve" smooth="yes"/>
      <point x="507" y="362" type="line" smooth="yes"/>
      <point x="507" y="376"/>
      <point x="498" y="385"/>
      <point x="484" y="385" type="curve" smooth="yes"/>
      <point x="157" y="385" type="line"/>
      <point x="157" y="640" type="line"/>
      <point x="506" y="640" type="line" smooth="yes"/>
      <point x="520" y="640"/>
      <point x="529" y="649"/>
      <point x="529" y="662" type="curve" smooth="yes"/>
      <point x="529" y="677" type="line" smooth="yes"/>
      <point x="529" y="691"/>
      <point x="520" y="700"/>
      <point x="506" y="700" type="curve" smooth="yes"/>
      <point x="116" y="700" type="line" smooth="yes"/>
      <point x="103" y="700"/>
      <point x="94" y="691"/>
      <point x="94" y="677" type="curve" smooth="yes"/>
      <point x="94" y="22" type="line" smooth="yes"/>
      <point x="94" y="9"/>
      <point x="103" y="0"/>
      <point x="116" y="0" type="curve" smooth="yes"/>
      <point x="514" y="0" type="line" smooth="yes"/>
      <point x="528" y="0"/>
      <point x="537" y="9"/>
      <point x="537" y="22" type="curve" smooth="yes"/>
      <point x="537" y="37" type="line" smooth="yes"/>
      <point x="537" y="51"/>
      <point x="528" y="60"/>
      <point x="514" y="60" type="curve"/>
    </contour>
  </outline>
</glyph>
<glyph name="F" format="1">
  <advance width="570"/>
  <unicode hex="0046"/>
  <outline>
    <contour>
      <point x="116" y="700" type="line" name="hr00"/>
      <point x="103" y="700"/>
      <point x="94" y="691"/>
      <point x="94" y="677" type="curve" smooth="yes"/>
      <point x="94" y="22" type="line" smooth="yes"/>
      <point x="94" y="9"/>
      <point x="103" y="0"/>
      <point x="116" y="0" type="curve" smooth="yes"/>
      <point x="134" y="0" type="line" smooth="yes"/>
      <point x="148" y="0"/>
      <point x="157" y="9"/>
      <point x="157" y="22" type="curve" smooth="yes"/>
      <point x="157" y="311" type="line"/>
      <point x="482" y="311" type="line" smooth="yes"/>
      <point x="496" y="311"/>
      <point x="505" y="320"/>
      <point x="505" y="333" type="curve" smooth="yes"/>
      <point x="505" y="348" type="line" smooth="yes"/>
      <point x="505" y="362"/>
      <point x="496" y="371"/>
      <point x="482" y="371" type="curve" smooth="yes"/>
      <point x="157" y="371" type="line"/>
      <point x="157" y="640" type="line"/>
      <point x="502" y="640" type="line" smooth="yes"/>
      <point x="516" y="640"/>
      <point x="525" y="649"/>
      <point x="525" y="662" type="curve" smooth="yes"/>
      <point x="525" y="677" type="line" smooth="yes"/>
      <point x="525" y="691"/>
      <point x="516" y="700"/>
      <point x="502" y="700" type="curve" smooth="yes"/>
    </contour>
  </outline>
</glyph>
<glyph name="H" format="1">
  <advance width="700"/>
  <unicode hex="0048"/>
  <outline>
    <contour>
      <point x="565" y="700" type="line" name="hr00"/>
      <point x="552" y="700"/>
      <point x="543" y="691"/>
      <point x="543" y="677" type="curve" smooth="yes"/>
      <point x="543" y="385" type="line"/>
      <point x="157" y="385" type="line"/>
      <point x="157" y="677" type="line" smooth="yes"/>
      <point x="157" y="691"/>
      <point x="148" y="700"/>
      <point x="134" y="700" type="curve" smooth="yes"/>
      <point x="116" y="700" type="line" smooth="yes"/>
      <point x="103" y="700"/>
      <point x="94" y="691"/>
      <point x="94" y="677" type="curve" smooth="yes"/>
      <point x="94" y="22" type="line" smooth="yes"/>
      <point x="94" y="9"/>
      <point x="103" y="0"/>
      <point x="116" y="0" type="curve" smooth="yes"/>
      <point x="134" y="0" type="line" smooth="yes"/>
      <point x="148" y="0"/>
      <point x="157" y="9"/>
      <point x="157" y="22" type="curve" smooth="yes"/>
      <point x="157" y="325" type="line"/>
      <point x="543" y="325" type="line"/>
      <point x="543" y="22" type="line" smooth="yes"/>
      <point x="543" y="9"/>
      <point x="552" y="0"/>
      <point x="565" y="0" type="curve" smooth="yes"/>
      <point x="583" y="0" type="line" smooth="yes"/>
      <point x="597" y="0"/>
      <point x="606" y="9"/>
      <point x="606" y="22" type="curve" smooth="yes"/>
      <point x="606" y="677" type="line" smooth="yes"/>
      <point x="606" y="691"/>
      <point x="597" y="700"/>
      <point x="583" y="700" type="curve" smooth="yes"/>
    </contour>
  </outline>
</glyph>
<glyph name="J" format="1">
  <advance width="618"/>
  <unicode hex="004A"/>
  <outline>
    <contour>
      <point x="530" y="255" type="curve" name="hr00"/>
      <point x="530" y="677" type="line" smooth="yes"/>
      <point x="530" y="691"/>
      <point x="521" y="700"/>
      <point x="507" y="700" type="curve" smooth="yes"/>
      <point x="98" y="700" type="line" smooth="yes"/>
      <point x="85" y="700"/>
      <point x="76" y="691"/>
      <point x="76" y="678" type="curve" smooth="yes"/>
      <point x="76" y="662" type="line" smooth="yes"/>
      <point x="76" y="649"/>
      <point x="85" y="640"/>
      <point x="98" y="640" type="curve" smooth="yes"/>
      <point x="467" y="640" type="line"/>
      <point x="467" y="256" type="line" smooth="yes"/>
      <point x="467" y="135"/>
      <point x="405" y="50"/>
      <point x="288" y="50" type="curve" smooth="yes"/>
      <point x="196" y="50"/>
      <point x="116" y="91"/>
      <point x="108" y="195" type="curve" smooth="yes"/>
      <point x="107" y="207"/>
      <point x="99" y="216"/>
      <point x="86" y="216" type="curve" smooth="yes"/>
      <point x="66" y="216" type="line" smooth="yes"/>
      <point x="52" y="216"/>
      <point x="45" y="206"/>
      <point x="45" y="194" type="curve" smooth="yes"/>
      <point x="50" y="52"/>
      <point x="158" y="-10"/>
      <point x="288" y="-10" type="curve" smooth="yes"/>
      <point x="445" y="-10"/>
      <point x="530" y="99"/>
    </contour>
  </outline>
</glyph>
<glyph name="L" format="1">
  <advance width="548"/>
  <unicode hex="004C"/>
  <outline>
    <contour>
      <point x="157" y="678" type="line" name="hr00"/>
      <point x="157" y="691"/>
      <point x="148" y="700"/>
      <point x="135" y="700" type="curve"/>
      <point x="116" y="700" type="line"/>
      <point x="103" y="700"/>
      <point x="94" y="691"/>
      <point x="94" y="678" type="curve"/>
      <point x="94" y="22" type="line"/>
      <point x="94" y="9"/>
      <point x="103" y="0"/>
      <point x="116" y="0" type="curve"/>
      <point x="502" y="0" type="line"/>
      <point x="516" y="0"/>
      <point x="525" y="9"/>
      <point x="525" y="22" type="curve"/>
      <point x="525" y="37" type="line"/>
      <point x="525" y="51"/>
      <point x="516" y="60"/>
      <point x="502" y="60" type="curve"/>
      <point x="157" y="60" type="line"/>
    </contour>
  </outline>
</glyph>
<glyph name="O" format="1">
  <advance width="662"/>
  <unicode hex="004F"/>
  <outline>
    <contour>
      <point x="331" y="710" type="curve" name="hr00" smooth="yes"/>
      <point x="175" y="710"/>
      <point x="72" y="620"/>
      <point x="67" y="434" type="curve" smooth="yes"/>
      <point x="65" y="374"/>
      <point x="65" y="326"/>
      <point x="67" y="266" type="curve" smooth="yes"/>
      <point x="72" y="77"/>
      <point x="165" y="-10"/>
      <point x="331" y="-10" type="curve" smooth="yes"/>
      <point x="497" y="-10"/>
      <point x="590" y="77"/>
      <point x="595" y="266" type="curve" smooth="yes"/>
      <point x="597" y="326"/>
      <point x="597" y="374"/>
      <point x="595" y="434" type="curve" smooth="yes"/>
      <point x="590" y="620"/>
      <point x="487" y="710"/>
    </contour>
    <contour>
      <point x="331" y="650" type="curve" smooth="yes"/>
      <point x="444" y="650"/>
      <point x="527" y="585"/>
      <point x="532" y="429" type="curve" smooth="yes"/>
      <point x="534" y="369"/>
      <point x="534" y="331"/>
      <point x="532" y="271" type="curve" smooth="yes"/>
      <point x="527" y="115"/>
      <point x="445" y="50"/>
      <point x="331" y="50" type="curve" smooth="yes"/>
      <point x="217" y="50"/>
      <point x="135" y="115"/>
      <point x="130" y="271" type="curve" smooth="yes"/>
      <point x="128" y="331"/>
      <point x="128" y="369"/>
      <point x="130" y="429" type="curve" smooth="yes"/>
      <point x="135" y="585"/>
      <point x="218" y="650"/>
    </contour>
  </outline>
</glyph>
<glyph name="P" format="1">
  <advance width="628"/>
  <unicode hex="0050"/>
  <outline>
    <contour>
      <point x="116" y="700" type="line" name="hr00" smooth="yes"/>
      <point x="103" y="700"/>
      <point x="94" y="691"/>
      <point x="94" y="677" type="curve" smooth="yes"/>
      <point x="94" y="22" type="line" smooth="yes"/>
      <point x="94" y="9"/>
      <point x="103" y="0"/>
      <point x="116" y="0" type="curve" smooth="yes"/>
      <point x="134" y="0" type="line" smooth="yes"/>
      <point x="148" y="0"/>
      <point x="157" y="9"/>
      <point x="157" y="22" type="curve" smooth="yes"/>
      <point x="157" y="286" type="line"/>
      <point x="359" y="286" type="line" smooth="yes"/>
      <point x="499" y="286"/>
      <point x="589" y="357"/>
      <point x="589" y="493" type="curve" smooth="yes"/>
      <point x="589" y="629"/>
      <point x="499" y="700"/>
      <point x="359" y="700" type="curve" smooth="yes"/>
    </contour>
    <contour>
      <point x="157" y="640" type="line"/>
      <point x="354" y="640" type="line" smooth="yes"/>
      <point x="470" y="640"/>
      <point x="526" y="588"/>
      <point x="526" y="493" type="curve" smooth="yes"/>
      <point x="526" y="398"/>
      <point x="470" y="346"/>
      <point x="354" y="346" type="curve" smooth="yes"/>
      <point x="157" y="346" type="line"/>
    </contour>
  </outline>
</glyph>
<glyph name="Q" format="1">
  <advance width="662"/>
  <unicode hex="0051"/>
  <outline>
    <contour>
      <point x="331" y="710" type="curve" name="hr00" smooth="yes"/>
      <point x="175" y="710"/>
      <point x="72" y="620"/>
      <point x="67" y="434" type="curve" smooth="yes"/>
      <point x="65" y="374"/>
      <point x="65" y="326"/>
      <point x="67" y="266" type="curve" smooth="yes"/>
      <point x="72" y="77"/>
      <point x="165" y="-10"/>
      <point x="331" y="-10" type="curve" smooth="yes"/>
      <point x="386" y="-10"/>
      <point x="432" y="0"/>
      <point x="471" y="19" type="curve"/>
      <point x="515" y="-42" type="line"/>
      <point x="521" y="-50"/>
      <point x="532" y="-65"/>
      <point x="547" y="-65" type="curve"/>
      <point x="569" y="-65" type="line"/>
      <point x="580" y="-65"/>
      <point x="589" y="-56"/>
      <point x="589" y="-45" type="curve" smooth="yes"/>
      <point x="589" y="-39"/>
      <point x="587" y="-36"/>
      <point x="586" y="-34" type="curve"/>
      <point x="522" y="56" type="line"/>
      <point x="568" y="101"/>
      <point x="592" y="171"/>
      <point x="595" y="266" type="curve" smooth="yes"/>
      <point x="597" y="326"/>
      <point x="597" y="374"/>
      <point x="595" y="434" type="curve" smooth="yes"/>
      <point x="590" y="620"/>
      <point x="487" y="710"/>
    </contour>
    <contour>
      <point x="331" y="650" type="curve" smooth="yes"/>
      <point x="444" y="650"/>
      <point x="527" y="585"/>
      <point x="532" y="429" type="curve" smooth="yes"/>
      <point x="534" y="369"/>
      <point x="534" y="331"/>
      <point x="532" y="271" type="curve" smooth="yes"/>
      <point x="527" y="115"/>
      <point x="445" y="50"/>
      <point x="331" y="50" type="curve" smooth="yes"/>
      <point x="217" y="50"/>
      <point x="135" y="115"/>
      <point x="130" y="271" type="curve" smooth="yes"/>
      <point x="128" y="331"/>
      <point x="128" y="369"/>
      <point x="130" y="429" type="curve" smooth="yes"/>
      <point x="135" y="585"/>
      <point x="218" y="650"/>
    </contour>
  </outline>
</glyph>
<glyph name="S" format="1">
  <advance width="605"/>
  <unicode hex="0053"/>
  <outline>
    <contour>
      <point x="299" y="710" type="curve" name="hr00" smooth="yes"/>
      <point x="151" y="710"/>
      <point x="68" y="631"/>
      <point x="68" y="530" type="curve" smooth="yes"/>
      <point x="68" y="420"/>
      <point x="131" y="379"/>
      <point x="274" y="333" type="curve" smooth="yes"/>
      <point x="423" y="285"/>
      <point x="492" y="260"/>
      <point x="492" y="181" type="curve" smooth="yes"/>
      <point x="492" y="101"/>
      <point x="434" y="50"/>
      <point x="304" y="50" type="curve" smooth="yes"/>
      <point x="174" y="50"/>
      <point x="119" y="114"/>
      <point x="111" y="170" type="curve" smooth="yes"/>
      <point x="109" y="181"/>
      <point x="102" y="190"/>
      <point x="89" y="190" type="curve" smooth="yes"/>
      <point x="69" y="190" type="line" smooth="yes"/>
      <point x="57" y="190"/>
      <point x="48" y="181"/>
      <point x="48" y="170" type="curve" smooth="yes"/>
      <point x="51" y="79"/>
      <point x="142" y="-10"/>
      <point x="304" y="-10" type="curve" smooth="yes"/>
      <point x="459" y="-10"/>
      <point x="555" y="60"/>
      <point x="555" y="181" type="curve" smooth="yes"/>
      <point x="555" y="291"/>
      <point x="484" y="329"/>
      <point x="334" y="377" type="curve" smooth="yes"/>
      <point x="191" y="423"/>
      <point x="131" y="450"/>
      <point x="131" y="530" type="curve" smooth="yes"/>
      <point x="131" y="612"/>
      <point x="200" y="650"/>
      <point x="299" y="650" type="curve" smooth="yes"/>
      <point x="397" y="650"/>
      <point x="464" y="601"/>
      <point x="472" y="535" type="curve" smooth="yes"/>
      <point x="474" y="519"/>
      <point x="487" y="515"/>
      <point x="494" y="515" type="curve" smooth="yes"/>
      <point x="514" y="515" type="line" smooth="yes"/>
      <point x="528" y="515"/>
      <point x="535" y="525"/>
      <point x="535" y="535" type="curve" smooth="yes"/>
      <point x="532" y="612"/>
      <point x="457" y="710"/>
    </contour>
  </outline>
</glyph>
<glyph name="T" format="1">
  <advance width="557"/>
  <unicode hex="0054"/>
  <outline>
    <contour>
      <point x="49" y="700" type="line" name="hr00" smooth="yes"/>
      <point x="36" y="700"/>
      <point x="27" y="691"/>
      <point x="27" y="677" type="curve" smooth="yes"/>
      <point x="27" y="662" type="line" smooth="yes"/>
      <point x="27" y="649"/>
      <point x="36" y="640"/>
      <point x="49" y="640" type="curve" smooth="yes"/>
      <point x="247" y="640" type="line"/>
      <point x="247" y="22" type="line" smooth="yes"/>
      <point x="247" y="9"/>
      <point x="256" y="0"/>
      <point x="269" y="0" type="curve" smooth="yes"/>
      <point x="287" y="0" type="line" smooth="yes"/>
      <point x="301" y="0"/>
      <point x="310" y="9"/>
      <point x="310" y="22" type="curve" smooth="yes"/>
      <point x="310" y="640" type="line"/>
      <point x="507" y="640" type="line" smooth="yes"/>
      <point x="521" y="640"/>
      <point x="530" y="649"/>
      <point x="530" y="662" type="curve" smooth="yes"/>
      <point x="530" y="677" type="line" smooth="yes"/>
      <point x="530" y="691"/>
      <point x="521" y="700"/>
      <point x="507" y="700" type="curve" smooth="yes"/>
    </contour>
  </outline>
</glyph>
<glyph name="U" format="1">
  <advance width="691"/>
  <unicode hex="0055"/>
  <outline>
    <contour>
      <point x="540" y="268" type="line" name="hr00"/>
      <point x="540" y="118"/>
      <point x="465" y="50"/>
      <point x="346" y="50" type="curve"/>
      <point x="226" y="50"/>
      <point x="151" y="118"/>
      <point x="151" y="268" type="curve"/>
      <point x="151" y="677" type="line"/>
      <point x="151" y="691"/>
      <point x="142" y="700"/>
      <point x="128" y="700" type="curve"/>
      <point x="110" y="700" type="line"/>
      <point x="97" y="700"/>
      <point x="88" y="691"/>
      <point x="88" y="677" type="curve"/>
      <point x="88" y="271" type="line"/>
      <point x="88" y="77"/>
      <point x="184" y="-10"/>
      <point x="346" y="-10" type="curve"/>
      <point x="509" y="-10"/>
      <point x="603" y="77"/>
      <point x="603" y="271" type="curve"/>
      <point x="603" y="677" type="line"/>
      <point x="603" y="691"/>
      <point x="594" y="700"/>
      <point x="581" y="700" type="curve"/>
      <point x="563" y="700" type="line"/>
      <point x="549" y="700"/>
      <point x="540" y="691"/>
      <point x="540" y="677" type="curve"/>
    </contour>
  </outline>
</glyph>
<glyph name="V" format="1">
  <advance width="638"/>
  <unicode hex="0056"/>
  <outline>
    <contour>
      <point x="319" y="73" type="line" name="hr00"/>
      <point x="100" y="685" type="line" smooth="yes"/>
      <point x="98" y="690"/>
      <point x="91" y="700"/>
      <point x="78" y="700" type="curve" smooth="yes"/>
      <point x="57" y="700" type="line" smooth="yes"/>
      <point x="46" y="700"/>
      <point x="37" y="691"/>
      <point x="37" y="680" type="curve" smooth="yes"/>
      <point x="37" y="678"/>
      <point x="38" y="672"/>
      <point x="39" y="669" type="curve" smooth="yes"/>
      <point x="271" y="24" type="line" smooth="yes"/>
      <point x="277" y="8"/>
      <point x="287" y="0"/>
      <point x="305" y="0" type="curve" smooth="yes"/>
      <point x="333" y="0" type="line" smooth="yes"/>
      <point x="351" y="0"/>
      <point x="361" y="8"/>
      <point x="367" y="24" type="curve" smooth="yes"/>
      <point x="599" y="669" type="line" smooth="yes"/>
      <point x="600" y="672"/>
      <point x="601" y="678"/>
      <point x="601" y="680" type="curve" smooth="yes"/>
      <point x="601" y="691"/>
      <point x="592" y="700"/>
      <point x="581" y="700" type="curve" smooth="yes"/>
      <point x="560" y="700" type="line" smooth="yes"/>
      <point x="547" y="700"/>
      <point x="540" y="690"/>
      <point x="538" y="685" type="curve" smooth="yes"/>
    </contour>
  </outline>
</glyph>
<glyph name="Z" format="1">
  <advance width="579"/>
  <unicode hex="005A"/>
  <outline>
    <contour>
      <point x="122" y="60" type="line" name="hr00"/>
      <point x="514" y="621" type="line" smooth="yes"/>
      <point x="520" y="630"/>
      <point x="527" y="640"/>
      <point x="527" y="657" type="curve" smooth="yes"/>
      <point x="527" y="677" type="line" smooth="yes"/>
      <point x="527" y="691"/>
      <point x="518" y="700"/>
      <point x="504" y="700" type="curve" smooth="yes"/>
      <point x="73" y="700" type="line" smooth="yes"/>
      <point x="60" y="700"/>
      <point x="51" y="691"/>
      <point x="51" y="677" type="curve" smooth="yes"/>
      <point x="51" y="662" type="line" smooth="yes"/>
      <point x="51" y="649"/>
      <point x="60" y="640"/>
      <point x="73" y="640" type="curve" smooth="yes"/>
      <point x="451" y="640" type="line"/>
      <point x="57" y="81" type="line" smooth="yes"/>
      <point x="53" y="75"/>
      <point x="42" y="63"/>
      <point x="42" y="43" type="curve" smooth="yes"/>
      <point x="42" y="23" type="line" smooth="yes"/>
      <point x="42" y="9"/>
      <point x="51" y="0"/>
      <point x="64" y="0" type="curve" smooth="yes"/>
      <point x="514" y="0" type="line" smooth="yes"/>
      <point x="528" y="0"/>
      <point x="537" y="9"/>
      <point x="537" y="22" type="curve" smooth="yes"/>
      <point x="537" y="37" type="line" smooth="yes"/>
      <point x="537" y="51"/>
      <point x="528" y="60"/>
      <point x="514" y="60" type="curve" smooth="yes"/>
    </contour>
  </outline>
</glyph>
<glyph name="bracketleft" format="1">
  <advance width="301"/>
  <unicode hex="005B"/>
  <outline>
    <contour>
      <point x="251" y="-159" type="line" smooth="yes"/>
      <point x="264" y="-159"/>
      <point x="273" y="-150"/>
      <point x="273" y="-137" type="curve" smooth="yes"/>
      <point x="273" y="-123" type="line" smooth="yes"/>
      <point x="273" y="-110"/>
      <point x="264" y="-101"/>
      <point x="251" y="-101" type="curve" smooth="yes"/>
      <point x="139" y="-101" type="line" name="hr01"/>
      <point x="139" y="718" type="line"/>
      <point x="251" y="718" type="line" smooth="yes"/>
      <point x="264" y="718"/>
      <point x="273" y="727"/>
      <point x="273" y="740" type="curve" name="hr02" smooth="yes"/>
      <point x="273" y="754" type="line" smooth="yes"/>
      <point x="273" y="767"/>
      <point x="264" y="776"/>
      <point x="251" y="776" type="curve" smooth="yes"/>
      <point x="100" y="776" type="line" smooth="yes"/>
      <point x="87" y="776"/>
      <point x="78" y="767"/>
      <point x="78" y="754" type="curve" smooth="yes"/>
      <point x="78" y="-137" type="line" smooth="yes"/>
      <point x="78" y="-150"/>
      <point x="87" y="-159"/>
      <point x="100" y="-159" type="curve" smooth="yes"/>
    </contour>
  </outline>
</glyph>
<glyph name="backslash" format="1">
  <advance width="459"/>
  <unicode hex="005C"/>
  <outline>
    <contour>
      <point x="373" y="-69" type="line" name="hr00"/>
      <point x="375" y="-74"/>
      <point x="382" y="-84"/>
      <point x="395" y="-84" type="curve" smooth="yes"/>
      <point x="412" y="-84" type="line" smooth="yes"/>
      <point x="423" y="-84"/>
      <point x="432" y="-75"/>
      <point x="432" y="-64" type="curve" smooth="yes"/>
      <point x="432" y="-62"/>
      <point x="431" y="-57"/>
      <point x="429" y="-52" type="curve" smooth="yes"/>
      <point x="85" y="771" type="line" smooth="yes"/>
      <point x="83" y="776"/>
      <point x="76" y="786"/>
      <point x="63" y="786" type="curve" smooth="yes"/>
      <point x="46" y="786" type="line" smooth="yes"/>
      <point x="35" y="786"/>
      <point x="26" y="777"/>
      <point x="26" y="766" type="curve" smooth="yes"/>
      <point x="26" y="764"/>
      <point x="27" y="759"/>
      <point x="29" y="754" type="curve" smooth="yes"/>
    </contour>
  </outline>
</glyph>
<glyph name="asciicircum" format="1">
  <advance width="418"/>
  <unicode hex="005E"/>
  <outline>
    <contour>
      <point x="204" y="705" type="line" name="hr00" smooth="yes"/>
      <point x="194" y="705"/>
      <point x="186" y="705"/>
      <point x="172" y="691" type="curve" smooth="yes"/>
      <point x="85" y="606" type="line" smooth="yes"/>
      <point x="77" y="598"/>
      <point x="73" y="592"/>
      <point x="73" y="586" type="curve" smooth="yes"/>
      <point x="73" y="578"/>
      <point x="77" y="575"/>
      <point x="87" y="575" type="curve" smooth="yes"/>
      <point x="104" y="575" type="line" smooth="yes"/>
      <point x="112" y="575"/>
      <point x="124" y="578"/>
      <point x="129" y="582" type="curve" smooth="yes"/>
      <point x="209" y="642" type="line"/>
      <point x="289" y="582" type="line" smooth="yes"/>
      <point x="294" y="578"/>
      <point x="306" y="575"/>
      <point x="314" y="575" type="curve" smooth="yes"/>
      <point x="331" y="575" type="line" smooth="yes"/>
      <point x="341" y="575"/>
      <point x="345" y="578"/>
      <point x="345" y="586" type="curve" smooth="yes"/>
      <point x="345" y="592"/>
      <point x="341" y="598"/>
      <point x="333" y="606" type="curve" smooth="yes"/>
      <point x="246" y="691" type="line" smooth="yes"/>
      <point x="232" y="705"/>
      <point x="224" y="705"/>
      <point x="214" y="705" type="curve" smooth="yes"/>
    </contour>
  </outline>
</glyph>
<glyph name="grave" format="1">
  <advance width="311"/>
  <unicode hex="0060"/>
  <outline>
    <contour>
      <point x="167" y="707" type="line" name="hr00" smooth="yes"/>
      <point x="156" y="720"/>
      <point x="150" y="725"/>
      <point x="130" y="725" type="curve" smooth="yes"/>
      <point x="89" y="725" type="line" smooth="yes"/>
      <point x="77" y="725"/>
      <point x="70" y="718"/>
      <point x="70" y="706" type="curve" smooth="yes"/>
      <point x="70" y="701"/>
      <point x="72" y="697"/>
      <point x="75" y="694" type="curve" smooth="yes"/>
      <point x="184" y="605" type="line" smooth="yes"/>
      <point x="195" y="596"/>
      <point x="202" y="595"/>
      <point x="215" y="595" type="curve" smooth="yes"/>
      <point x="225" y="595" type="line" smooth="yes"/>
      <point x="235" y="595"/>
      <point x="241" y="601"/>
      <point x="241" y="611" type="curve" smooth="yes"/>
      <point x="241" y="616"/>
      <point x="239" y="621"/>
      <point x="236" y="624" type="curve" smooth="yes"/>
    </contour>
  </outline>
</glyph>
<glyph name="b" format="1">
  <advance width="580"/>
  <unicode hex="0062"/>
  <outline>
    <contour>
      <point x="311" y="530" type="curve" smooth="yes"/>
      <point x="228" y="530"/>
      <point x="176" y="495"/>
      <point x="143" y="451" type="curve"/>
      <point x="143" y="688" type="line" smooth="yes"/>
      <point x="143" y="701"/>
      <point x="134" y="710"/>
      <point x="121" y="710" type="curve" smooth="yes"/>
      <point x="104" y="710" type="line" smooth="yes"/>
      <point x="91" y="710"/>
      <point x="82" y="701"/>
      <point x="82" y="688" type="curve" smooth="yes"/>
      <point x="82" y="22" type="line" smooth="yes"/>
      <point x="82" y="9"/>
      <point x="91" y="0"/>
      <point x="104" y="0" type="curve" smooth="yes"/>
      <point x="121" y="0" type="line" smooth="yes"/>
      <point x="134" y="0"/>
      <point x="143" y="9"/>
      <point x="143" y="22" type="curve" smooth="yes"/>
      <point x="143" y="69" type="line"/>
      <point x="176" y="24"/>
      <point x="228" y="-10"/>
      <point x="311" y="-10" type="curve" name="hr01" smooth="yes"/>
      <point x="467" y="-10"/>
      <point x="521" y="115"/>
      <point x="525" y="232" type="curve" smooth="yes"/>
      <point x="526" y="252"/>
      <point x="526" y="268"/>
      <point x="525" y="288" type="curve" smooth="yes"/>
      <point x="521" y="405"/>
      <point x="467" y="530"/>
    </contour>
    <contour>
      <point x="143" y="224" type="curve" smooth="yes"/>
      <point x="142" y="244"/>
      <point x="142" y="282"/>
      <point x="143" y="302" type="curve" smooth="yes"/>
      <point x="145" y="382"/>
      <point x="194" y="472"/>
      <point x="305" y="472" type="curve" smooth="yes"/>
      <point x="422" y="472"/>
      <point x="460" y="384"/>
      <point x="464" y="288" type="curve" smooth="yes"/>
      <point x="465" y="268"/>
      <point x="465" y="252"/>
      <point x="464" y="232" type="curve" smooth="yes"/>
      <point x="460" y="136"/>
      <point x="422" y="48"/>
      <point x="305" y="48" type="curve" smooth="yes"/>
      <point x="191" y="48"/>
      <point x="146" y="142"/>
    </contour>
  </outline>
</glyph>
<glyph name="c" format="1">
  <advance width="536"/>
  <unicode hex="0063"/>
  <outline>
    <contour>
      <point x="118" y="295" type="curve" name="hr00" smooth="yes"/>
      <point x="122" y="420"/>
      <point x="187" y="472"/>
      <point x="278" y="472" type="curve" smooth="yes"/>
      <point x="348" y="472"/>
      <point x="397" y="446"/>
      <point x="425" y="370" type="curve" smooth="yes"/>
      <point x="431" y="354"/>
      <point x="435" y="349"/>
      <point x="449" y="349" type="curve" smooth="yes"/>
      <point x="463" y="349" type="line" smooth="yes"/>
      <point x="475" y="349"/>
      <point x="486" y="358"/>
      <point x="485" y="371" type="curve" smooth="yes"/>
      <point x="482" y="443"/>
      <point x="419" y="530"/>
      <point x="278" y="530" type="curve" smooth="yes"/>
      <point x="137" y="530"/>
      <point x="61" y="443"/>
      <point x="57" y="300" type="curve" smooth="yes"/>
      <point x="56" y="280"/>
      <point x="56" y="240"/>
      <point x="57" y="220" type="curve" smooth="yes"/>
      <point x="61" y="77"/>
      <point x="137" y="-10"/>
      <point x="278" y="-10" type="curve" smooth="yes"/>
      <point x="419" y="-10"/>
      <point x="482" y="77"/>
      <point x="485" y="149" type="curve" smooth="yes"/>
      <point x="486" y="162"/>
      <point x="475" y="171"/>
      <point x="463" y="171" type="curve" smooth="yes"/>
      <point x="449" y="171" type="line" smooth="yes"/>
      <point x="435" y="171"/>
      <point x="431" y="166"/>
      <point x="425" y="150" type="curve" smooth="yes"/>
      <point x="397" y="74"/>
      <point x="348" y="48"/>
      <point x="278" y="48" type="curve" smooth="yes"/>
      <point x="187" y="48"/>
      <point x="122" y="100"/>
      <point x="118" y="225" type="curve" smooth="yes"/>
      <point x="117" y="245"/>
      <point x="117" y="275"/>
    </contour>
  </outline>
</glyph>
<glyph name="d" format="1">
  <advance width="580"/>
  <unicode hex="0064"/>
  <outline>
    <contour>
      <point x="269" y="530" type="curve" smooth="yes"/>
      <point x="113" y="530"/>
      <point x="59" y="405"/>
      <point x="55" y="288" type="curve" smooth="yes"/>
      <point x="54" y="268"/>
      <point x="54" y="252"/>
      <point x="55" y="232" type="curve" smooth="yes"/>
      <point x="59" y="115"/>
      <point x="113" y="-10"/>
      <point x="269" y="-10" type="curve" smooth="yes"/>
      <point x="352" y="-10"/>
      <point x="404" y="24"/>
      <point x="437" y="69" type="curve"/>
      <point x="437" y="22" type="line" smooth="yes"/>
      <point x="437" y="9"/>
      <point x="446" y="0"/>
      <point x="459" y="0" type="curve" name="hr01" smooth="yes"/>
      <point x="476" y="0" type="line" smooth="yes"/>
      <point x="489" y="0"/>
      <point x="498" y="9"/>
      <point x="498" y="22" type="curve" smooth="yes"/>
      <point x="498" y="688" type="line" smooth="yes"/>
      <point x="498" y="701"/>
      <point x="489" y="710"/>
      <point x="476" y="710" type="curve" smooth="yes"/>
      <point x="459" y="710" type="line" smooth="yes"/>
      <point x="446" y="710"/>
      <point x="437" y="701"/>
      <point x="437" y="688" type="curve" smooth="yes"/>
      <point x="437" y="451" type="line"/>
      <point x="404" y="495"/>
      <point x="352" y="530"/>
    </contour>
    <contour>
      <point x="437" y="224" type="curve" smooth="yes"/>
      <point x="434" y="142"/>
      <point x="389" y="48"/>
      <point x="275" y="48" type="curve" name="hr02" smooth="yes"/>
      <point x="158" y="48"/>
      <point x="120" y="136"/>
      <point x="116" y="232" type="curve" smooth="yes"/>
      <point x="115" y="252"/>
      <point x="115" y="268"/>
      <point x="116" y="288" type="curve" smooth="yes"/>
      <point x="120" y="384"/>
      <point x="158" y="472"/>
      <point x="275" y="472" type="curve" smooth="yes"/>
      <point x="386" y="472"/>
      <point x="435" y="382"/>
      <point x="437" y="302" type="curve" smooth="yes"/>
      <point x="438" y="282"/>
      <point x="438" y="244"/>
    </contour>
  </outline>
</glyph>
<glyph name="e" format="1">
  <advance width="546"/>
  <unicode hex="0065"/>
  <outline>
    <contour>
      <point x="55" y="300" type="curve" name="hr00" smooth="yes"/>
      <point x="54" y="280"/>
      <point x="54" y="240"/>
      <point x="55" y="220" type="curve" smooth="yes"/>
      <point x="65" y="83"/>
      <point x="145" y="-10"/>
      <point x="274" y="-10" type="curve" smooth="yes"/>
      <point x="400" y="-10"/>
      <point x="478" y="73"/>
      <point x="480" y="111" type="curve" smooth="yes"/>
      <point x="481" y="123"/>
      <point x="471" y="131"/>
      <point x="459" y="131" type="curve" smooth="yes"/>
      <point x="443" y="131" type="line" smooth="yes"/>
      <point x="428" y="131"/>
      <point x="425" y="130"/>
      <point x="413" y="113" type="curve" smooth="yes"/>
      <point x="402" y="97"/>
      <point x="359" y="48"/>
      <point x="274" y="48" type="curve" smooth="yes"/>
      <point x="177" y="48"/>
      <point x="120" y="134"/>
      <point x="116" y="225" type="curve" smooth="yes"/>
      <point x="116" y="228"/>
      <point x="116" y="235"/>
      <point x="116" y="235" type="curve"/>
      <point x="472" y="235" type="line" smooth="yes"/>
      <point x="485" y="235"/>
      <point x="495" y="244"/>
      <point x="495" y="257" type="curve" smooth="yes"/>
      <point x="495" y="272" type="line" smooth="yes"/>
      <point x="495" y="432"/>
      <point x="413" y="530"/>
      <point x="274" y="530" type="curve" smooth="yes"/>
      <point x="144" y="530"/>
      <point x="65" y="436"/>
    </contour>
    <contour>
      <point x="116" y="295" type="line" smooth="yes"/>
      <point x="116" y="395"/>
      <point x="174" y="472"/>
      <point x="274" y="472" type="curve" smooth="yes"/>
      <point x="374" y="472"/>
      <point x="434" y="395"/>
      <point x="434" y="295" type="curve" smooth="yes"/>
      <point x="434" y="291" type="line"/>
      <point x="116" y="291" type="line"/>
    </contour>
  </outline>
</glyph>
<glyph name="f" format="1">
  <advance width="360"/>
  <unicode hex="0066"/>
  <outline>
    <contour>
      <point x="191" y="572" type="line" smooth="yes"/>
      <point x="191" y="643"/>
      <point x="210" y="682"/>
      <point x="281" y="682" type="curve" smooth="yes"/>
      <point x="333" y="682" type="line" smooth="yes"/>
      <point x="346" y="682"/>
      <point x="355" y="691"/>
      <point x="355" y="704" type="curve" name="hr01" smooth="yes"/>
      <point x="355" y="718" type="line" smooth="yes"/>
      <point x="355" y="731"/>
      <point x="346" y="740"/>
      <point x="333" y="740" type="curve" smooth="yes"/>
      <point x="281" y="740" type="line" smooth="yes"/>
      <point x="159" y="740"/>
      <point x="130" y="666"/>
      <point x="130" y="577" type="curve" smooth="yes"/>
      <point x="130" y="520" type="line"/>
      <point x="41" y="520" type="line" smooth="yes"/>
      <point x="28" y="520"/>
      <point x="19" y="511"/>
      <point x="19" y="498" type="curve" smooth="yes"/>
      <point x="19" y="484" type="line" smooth="yes"/>
      <point x="19" y="471"/>
      <point x="28" y="462"/>
      <point x="41" y="462" type="curve" smooth="yes"/>
      <point x="130" y="462" type="line"/>
      <point x="130" y="22" type="line" smooth="yes"/>
      <point x="130" y="9"/>
      <point x="139" y="0"/>
      <point x="152" y="0" type="curve" smooth="yes"/>
      <point x="169" y="0" type="line" smooth="yes"/>
      <point x="182" y="0"/>
      <point x="191" y="9"/>
      <point x="191" y="22" type="curve" name="hr02" smooth="yes"/>
      <point x="191" y="462" type="line"/>
      <point x="323" y="462" type="line" smooth="yes"/>
      <point x="336" y="462"/>
      <point x="345" y="471"/>
      <point x="345" y="484" type="curve" smooth="yes"/>
      <point x="345" y="498" type="line" smooth="yes"/>
      <point x="345" y="511"/>
      <point x="336" y="520"/>
      <point x="323" y="520" type="curve" smooth="yes"/>
      <point x="191" y="520" type="line"/>
    </contour>
  </outline>
</glyph>
<glyph name="h" format="1">
  <advance width="591"/>
  <unicode hex="0068"/>
  <outline>
    <contour>
      <point x="143" y="688" type="line" name="hr00" smooth="yes"/>
      <point x="143" y="701"/>
      <point x="134" y="710"/>
      <point x="121" y="710" type="curve" smooth="yes"/>
      <point x="104" y="710" type="line" smooth="yes"/>
      <point x="91" y="710"/>
      <point x="82" y="701"/>
      <point x="82" y="688" type="curve" smooth="yes"/>
      <point x="82" y="22" type="line" smooth="yes"/>
      <point x="82" y="9"/>
      <point x="91" y="0"/>
      <point x="104" y="0" type="curve" smooth="yes"/>
      <point x="121" y="0" type="line" smooth="yes"/>
      <point x="134" y="0"/>
      <point x="143" y="9"/>
      <point x="143" y="22" type="curve" smooth="yes"/>
      <point x="143" y="301" type="line" smooth="yes"/>
      <point x="143" y="408"/>
      <point x="206" y="472"/>
      <point x="301" y="472" type="curve" smooth="yes"/>
      <point x="401" y="472"/>
      <point x="454" y="407"/>
      <point x="454" y="301" type="curve" smooth="yes"/>
      <point x="454" y="22" type="line" smooth="yes"/>
      <point x="454" y="9"/>
      <point x="463" y="0"/>
      <point x="476" y="0" type="curve" smooth="yes"/>
      <point x="493" y="0" type="line" smooth="yes"/>
      <point x="506" y="0"/>
      <point x="515" y="9"/>
      <point x="515" y="22" type="curve" smooth="yes"/>
      <point x="515" y="306" type="line" smooth="yes"/>
      <point x="515" y="433"/>
      <point x="447" y="530"/>
      <point x="311" y="530" type="curve" smooth="yes"/>
      <point x="225" y="530"/>
      <point x="179" y="498"/>
      <point x="143" y="451" type="curve"/>
    </contour>
  </outline>
</glyph>
<glyph name="i" format="1">
  <advance width="223"/>
  <unicode hex="0069"/>
  <outline>
    <contour>
      <point x="153" y="687" type="line" name="hr00" smooth="yes"/>
      <point x="153" y="700"/>
      <point x="143" y="710"/>
      <point x="130" y="710" type="curve" smooth="yes"/>
      <point x="92" y="710" type="line" smooth="yes"/>
      <point x="79" y="710"/>
      <point x="70" y="700"/>
      <point x="70" y="687" type="curve" smooth="yes"/>
      <point x="70" y="649" type="line" smooth="yes"/>
      <point x="70" y="636"/>
      <point x="79" y="627"/>
      <point x="92" y="627" type="curve" smooth="yes"/>
      <point x="130" y="627" type="line" smooth="yes"/>
      <point x="143" y="627"/>
      <point x="153" y="636"/>
      <point x="153" y="649" type="curve" smooth="yes"/>
    </contour>
    <contour>
      <point x="142" y="498" type="line" smooth="yes"/>
      <point x="142" y="511"/>
      <point x="133" y="520"/>
      <point x="120" y="520" type="curve" smooth="yes"/>
      <point x="103" y="520" type="line" smooth="yes"/>
      <point x="90" y="520"/>
      <point x="81" y="511"/>
      <point x="81" y="498" type="curve" smooth="yes"/>
      <point x="81" y="22" type="line" smooth="yes"/>
      <point x="81" y="9"/>
      <point x="90" y="0"/>
      <point x="103" y="0" type="curve" smooth="yes"/>
      <point x="120" y="0" type="line" smooth="yes"/>
      <point x="133" y="0"/>
      <point x="142" y="9"/>
      <point x="142" y="22" type="curve" smooth="yes"/>
    </contour>
  </outline>
</glyph>
<glyph name="k" format="1">
  <advance width="487"/>
  <unicode hex="006B"/>
  <outline>
    <contour>
      <point x="434" y="480" type="line" name="hr00" smooth="yes"/>
      <point x="444" y="487"/>
      <point x="447" y="495"/>
      <point x="447" y="500" type="curve" smooth="yes"/>
      <point x="447" y="512"/>
      <point x="439" y="520"/>
      <point x="427" y="520" type="curve" smooth="yes"/>
      <point x="408" y="520" type="line" smooth="yes"/>
      <point x="388" y="520"/>
      <point x="385" y="517"/>
      <point x="366" y="503" type="curve" smooth="yes"/>
      <point x="143" y="334" type="line"/>
      <point x="143" y="688" type="line" smooth="yes"/>
      <point x="143" y="701"/>
      <point x="134" y="710"/>
      <point x="121" y="710" type="curve" smooth="yes"/>
      <point x="104" y="710" type="line" smooth="yes"/>
      <point x="91" y="710"/>
      <point x="82" y="701"/>
      <point x="82" y="688" type="curve" smooth="yes"/>
      <point x="82" y="22" type="line" smooth="yes"/>
      <point x="82" y="9"/>
      <point x="91" y="0"/>
      <point x="104" y="0" type="curve" smooth="yes"/>
      <point x="121" y="0" type="line" smooth="yes"/>
      <point x="134" y="0"/>
      <point x="143" y="9"/>
      <point x="143" y="22" type="curve" smooth="yes"/>
      <point x="143" y="240" type="line"/>
      <point x="394" y="17" type="line" smooth="yes"/>
      <point x="412" y="1"/>
      <point x="416" y="0"/>
      <point x="436" y="0" type="curve" smooth="yes"/>
      <point x="452" y="0" type="line" smooth="yes"/>
      <point x="464" y="0"/>
      <point x="472" y="8"/>
      <point x="472" y="20" type="curve" smooth="yes"/>
      <point x="472" y="25"/>
      <point x="468" y="32"/>
      <point x="459" y="40" type="curve" smooth="yes"/>
      <point x="181" y="288" type="line"/>
    </contour>
  </outline>
</glyph>
<glyph name="l" format="1">
  <advance width="225"/>
  <unicode hex="006C"/>
  <outline>
    <contour>
      <point x="143" y="688" type="line" name="hr00" smooth="yes"/>
      <point x="143" y="701"/>
      <point x="134" y="710"/>
      <point x="121" y="710" type="curve" smooth="yes"/>
      <point x="104" y="710" type="line" smooth="yes"/>
      <point x="91" y="710"/>
      <point x="82" y="701"/>
      <point x="82" y="688" type="curve" smooth="yes"/>
      <point x="82" y="22" type="line" smooth="yes"/>
      <point x="82" y="9"/>
      <point x="91" y="0"/>
      <point x="104" y="0" type="curve" smooth="yes"/>
      <point x="121" y="0" type="line" smooth="yes"/>
      <point x="134" y="0"/>
      <point x="143" y="9"/>
      <point x="143" y="22" type="curve" smooth="yes"/>
    </contour>
  </outline>
</glyph>
<glyph name="m" format="1">
  <advance width="878"/>
  <unicode hex="006D"/>
  <outline>
    <contour>
      <point x="142" y="498" type="line" smooth="yes"/>
      <point x="142" y="511"/>
      <point x="133" y="520"/>
      <point x="120" y="520" type="curve" smooth="yes"/>
      <point x="103" y="520" type="line" smooth="yes"/>
      <point x="90" y="520"/>
      <point x="81" y="511"/>
      <point x="81" y="498" type="curve" smooth="yes"/>
      <point x="81" y="22" type="line" smooth="yes"/>
      <point x="81" y="9"/>
      <point x="90" y="0"/>
      <point x="103" y="0" type="curve" smooth="yes"/>
      <point x="120" y="0" type="line" smooth="yes"/>
      <point x="133" y="0"/>
      <point x="142" y="9"/>
      <point x="142" y="22" type="curve" smooth="yes"/>
      <point x="142" y="304" type="line" smooth="yes"/>
      <point x="142" y="434"/>
      <point x="214" y="472"/>
      <point x="275" y="472" type="curve" name="hr01" smooth="yes"/>
      <point x="342" y="472"/>
      <point x="411" y="434"/>
      <point x="411" y="303" type="curve" smooth="yes"/>
      <point x="411" y="22" type="line" smooth="yes"/>
      <point x="411" y="9"/>
      <point x="420" y="0"/>
      <point x="433" y="0" type="curve" smooth="yes"/>
      <point x="450" y="0" type="line" smooth="yes"/>
      <point x="463" y="0"/>
      <point x="472" y="9"/>
      <point x="472" y="22" type="curve" smooth="yes"/>
      <point x="472" y="303" type="line" smooth="yes"/>
      <point x="472" y="434"/>
      <point x="544" y="472"/>
      <point x="605" y="472" type="curve" smooth="yes"/>
      <point x="677" y="472"/>
      <point x="741" y="434"/>
      <point x="741" y="303" type="curve" smooth="yes"/>
      <point x="741" y="22" type="line" smooth="yes"/>
      <point x="741" y="9"/>
      <point x="750" y="0"/>
      <point x="763" y="0" type="curve" smooth="yes"/>
      <point x="780" y="0" type="line" smooth="yes"/>
      <point x="793" y="0"/>
      <point x="802" y="9"/>
      <point x="802" y="22" type="curve" smooth="yes"/>
      <point x="802" y="313" type="line" smooth="yes"/>
      <point x="802" y="456"/>
      <point x="721" y="530"/>
      <point x="615" y="530" type="curve" smooth="yes"/>
      <point x="538" y="530"/>
      <point x="476" y="493"/>
      <point x="445" y="436" type="curve"/>
      <point x="414" y="497"/>
      <point x="360" y="530"/>
      <point x="285" y="530" type="curve" smooth="yes"/>
      <point x="219" y="530"/>
      <point x="175" y="506"/>
      <point x="142" y="463" type="curve"/>
    </contour>
  </outline>
</glyph>
<glyph name="n" format="1">
  <advance width="590"/>
  <unicode hex="006E"/>
  <outline>
    <contour>
      <point x="514" y="306" type="line" smooth="yes"/>
      <point x="514" y="433"/>
      <point x="446" y="530"/>
      <point x="310" y="530" type="curve" smooth="yes"/>
      <point x="224" y="530"/>
      <point x="178" y="498"/>
      <point x="142" y="451" type="curve"/>
      <point x="142" y="498" type="line" smooth="yes"/>
      <point x="142" y="511"/>
      <point x="133" y="520"/>
      <point x="120" y="520" type="curve" name="hr01" smooth="yes"/>
      <point x="103" y="520" type="line" smooth="yes"/>
      <point x="90" y="520"/>
      <point x="81" y="511"/>
      <point x="81" y="498" type="curve" smooth="yes"/>
      <point x="81" y="22" type="line" smooth="yes"/>
      <point x="81" y="9"/>
      <point x="90" y="0"/>
      <point x="103" y="0" type="curve" smooth="yes"/>
      <point x="120" y="0" type="line" smooth="yes"/>
      <point x="133" y="0"/>
      <point x="142" y="9"/>
      <point x="142" y="22" type="curve" smooth="yes"/>
      <point x="142" y="301" type="line" smooth="yes"/>
      <point x="142" y="408"/>
      <point x="205" y="472"/>
      <point x="300" y="472" type="curve" name="hr02" smooth="yes"/>
      <point x="400" y="472"/>
      <point x="453" y="407"/>
      <point x="453" y="301" type="curve" smooth="yes"/>
      <point x="453" y="22" type="line" smooth="yes"/>
      <point x="453" y="9"/>
      <point x="462" y="0"/>
      <point x="475" y="0" type="curve" smooth="yes"/>
      <point x="492" y="0" type="line" smooth="yes"/>
      <point x="505" y="0"/>
      <point x="514" y="9"/>
      <point x="514" y="22" type="curve" smooth="yes"/>
    </contour>
  </outline>
</glyph>
<glyph name="o" format="1">
  <advance width="558"/>
  <unicode hex="006F"/>
  <outline>
    <contour>
      <point x="279" y="530" type="curve" name="hr00" smooth="yes"/>
      <point x="135" y="530"/>
      <point x="61" y="431"/>
      <point x="57" y="302" type="curve" smooth="yes"/>
      <point x="56" y="282"/>
      <point x="56" y="238"/>
      <point x="57" y="218" type="curve" smooth="yes"/>
      <point x="61" y="89"/>
      <point x="135" y="-10"/>
      <point x="279" y="-10" type="curve" smooth="yes"/>
      <point x="423" y="-10"/>
      <point x="497" y="89"/>
      <point x="501" y="218" type="curve" smooth="yes"/>
      <point x="502" y="238"/>
      <point x="502" y="282"/>
      <point x="501" y="302" type="curve" smooth="yes"/>
      <point x="497" y="431"/>
      <point x="423" y="530"/>
    </contour>
    <contour>
      <point x="440" y="297" type="curve" smooth="yes"/>
      <point x="441" y="277"/>
      <point x="441" y="243"/>
      <point x="440" y="223" type="curve" smooth="yes"/>
      <point x="436" y="109"/>
      <point x="372" y="48"/>
      <point x="279" y="48" type="curve" smooth="yes"/>
      <point x="186" y="48"/>
      <point x="122" y="109"/>
      <point x="118" y="223" type="curve" smooth="yes"/>
      <point x="117" y="243"/>
      <point x="117" y="277"/>
      <point x="118" y="297" type="curve" smooth="yes"/>
      <point x="122" y="411"/>
      <point x="186" y="472"/>
      <point x="279" y="472" type="curve" smooth="yes"/>
      <point x="372" y="472"/>
      <point x="436" y="411"/>
    </contour>
  </outline>
</glyph>
<glyph name="p" format="1">
  <advance width="581"/>
  <unicode hex="0070"/>
  <outline>
    <contour>
      <point x="311" y="-10" type="curve" smooth="yes"/>
      <point x="467" y="-10"/>
      <point x="521" y="110"/>
      <point x="525" y="227" type="curve" smooth="yes"/>
      <point x="526" y="247"/>
      <point x="526" y="273"/>
      <point x="525" y="293" type="curve" smooth="yes"/>
      <point x="521" y="410"/>
      <point x="467" y="530"/>
      <point x="311" y="530" type="curve" smooth="yes"/>
      <point x="228" y="530"/>
      <point x="176" y="496"/>
      <point x="143" y="451" type="curve"/>
      <point x="143" y="498" type="line" smooth="yes"/>
      <point x="143" y="511"/>
      <point x="134" y="520"/>
      <point x="121" y="520" type="curve" name="hr01" smooth="yes"/>
      <point x="104" y="520" type="line" smooth="yes"/>
      <point x="91" y="520"/>
      <point x="82" y="511"/>
      <point x="82" y="498" type="curve" smooth="yes"/>
      <point x="82" y="-168" type="line" smooth="yes"/>
      <point x="82" y="-181"/>
      <point x="91" y="-190"/>
      <point x="104" y="-190" type="curve" smooth="yes"/>
      <point x="121" y="-190" type="line" smooth="yes"/>
      <point x="134" y="-190"/>
      <point x="143" y="-181"/>
      <point x="143" y="-168" type="curve" smooth="yes"/>
      <point x="143" y="69" type="line"/>
      <point x="176" y="25"/>
      <point x="228" y="-10"/>
    </contour>
    <contour>
      <point x="143" y="296" type="curve" smooth="yes"/>
      <point x="146" y="378"/>
      <point x="191" y="472"/>
      <point x="305" y="472" type="curve" name="hr02" smooth="yes"/>
      <point x="422" y="472"/>
      <point x="460" y="384"/>
      <point x="464" y="288" type="curve" smooth="yes"/>
      <point x="465" y="268"/>
      <point x="465" y="252"/>
      <point x="464" y="232" type="curve" smooth="yes"/>
      <point x="460" y="136"/>
      <point x="422" y="48"/>
      <point x="305" y="48" type="curve" smooth="yes"/>
      <point x="194" y="48"/>
      <point x="145" y="138"/>
      <point x="143" y="218" type="curve" smooth="yes"/>
      <point x="142" y="238"/>
      <point x="142" y="276"/>
    </contour>
  </outline>
</glyph>
<glyph name="q" format="1">
  <advance width="581"/>
  <unicode hex="0071"/>
  <outline>
    <contour>
      <point x="270" y="-10" type="curve" smooth="yes"/>
      <point x="353" y="-10"/>
      <point x="405" y="25"/>
      <point x="438" y="69" type="curve"/>
      <point x="438" y="-168" type="line" smooth="yes"/>
      <point x="438" y="-181"/>
      <point x="447" y="-190"/>
      <point x="460" y="-190" type="curve" smooth="yes"/>
      <point x="477" y="-190" type="line" smooth="yes"/>
      <point x="490" y="-190"/>
      <point x="499" y="-181"/>
      <point x="499" y="-168" type="curve" smooth="yes"/>
      <point x="499" y="498" type="line" smooth="yes"/>
      <point x="499" y="511"/>
      <point x="490" y="520"/>
      <point x="477" y="520" type="curve" smooth="yes"/>
      <point x="460" y="520" type="line" smooth="yes"/>
      <point x="447" y="520"/>
      <point x="438" y="511"/>
      <point x="438" y="498" type="curve" smooth="yes"/>
      <point x="438" y="451" type="line"/>
      <point x="405" y="496"/>
      <point x="353" y="530"/>
      <point x="270" y="530" type="curve" name="hr01" smooth="yes"/>
      <point x="114" y="530"/>
      <point x="60" y="410"/>
      <point x="56" y="293" type="curve" smooth="yes"/>
      <point x="55" y="273"/>
      <point x="55" y="247"/>
      <point x="56" y="227" type="curve" smooth="yes"/>
      <point x="60" y="110"/>
      <point x="114" y="-10"/>
    </contour>
    <contour>
      <point x="438" y="296" type="curve" smooth="yes"/>
      <point x="439" y="276"/>
      <point x="439" y="238"/>
      <point x="438" y="218" type="curve" smooth="yes"/>
      <point x="436" y="138"/>
      <point x="387" y="48"/>
      <point x="276" y="48" type="curve" smooth="yes"/>
      <point x="159" y="48"/>
      <point x="121" y="136"/>
      <point x="117" y="232" type="curve" smooth="yes"/>
      <point x="116" y="252"/>
      <point x="116" y="268"/>
      <point x="117" y="288" type="curve" smooth="yes"/>
      <point x="121" y="384"/>
      <point x="159" y="472"/>
      <point x="276" y="472" type="curve" smooth="yes"/>
      <point x="390" y="472"/>
      <point x="435" y="378"/>
    </contour>
  </outline>
</glyph>
<glyph name="r" format="1">
  <advance width="348"/>
  <unicode hex="0072"/>
  <outline>
    <contour>
      <point x="142" y="451" type="curve" name="hr00"/>
      <point x="142" y="497" type="line" smooth="yes"/>
      <point x="142" y="510"/>
      <point x="132" y="520"/>
      <point x="119" y="520" type="curve" smooth="yes"/>
      <point x="103" y="520" type="line" smooth="yes"/>
      <point x="90" y="520"/>
      <point x="81" y="510"/>
      <point x="81" y="497" type="curve" smooth="yes"/>
      <point x="81" y="22" type="line" smooth="yes"/>
      <point x="81" y="9"/>
      <point x="90" y="0"/>
      <point x="103" y="0" type="curve" smooth="yes"/>
      <point x="119" y="0" type="line" smooth="yes"/>
      <point x="132" y="0"/>
      <point x="142" y="9"/>
      <point x="142" y="22" type="curve" smooth="yes"/>
      <point x="142" y="332" type="line" smooth="yes"/>
      <point x="142" y="412"/>
      <point x="192" y="462"/>
      <point x="272" y="462" type="curve" smooth="yes"/>
      <point x="315" y="462" type="line" smooth="yes"/>
      <point x="328" y="462"/>
      <point x="337" y="471"/>
      <point x="337" y="484" type="curve" smooth="yes"/>
      <point x="337" y="498" type="line" smooth="yes"/>
      <point x="337" y="511"/>
      <point x="328" y="520"/>
      <point x="315" y="520" type="curve" smooth="yes"/>
      <point x="278" y="520" type="line" smooth="yes"/>
      <point x="211" y="520"/>
      <point x="166" y="497"/>
    </contour>
  </outline>
</glyph>
<glyph name="s" format="1">
  <advance width="492"/>
  <unicode hex="0073"/>
  <outline>
    <contour>
      <point x="384" y="139" type="curve" name="hr00" smooth="yes"/>
      <point x="384" y="79"/>
      <point x="326" y="48"/>
      <point x="246" y="48" type="curve" smooth="yes"/>
      <point x="166" y="48"/>
      <point x="131" y="79"/>
      <point x="106" y="114" type="curve" smooth="yes"/>
      <point x="97" y="126"/>
      <point x="92" y="127"/>
      <point x="84" y="127" type="curve" smooth="yes"/>
      <point x="69" y="127" type="line" smooth="yes"/>
      <point x="60" y="127"/>
      <point x="46" y="120"/>
      <point x="47" y="105" type="curve" smooth="yes"/>
      <point x="49" y="78"/>
      <point x="106" y="-10"/>
      <point x="246" y="-10" type="curve" smooth="yes"/>
      <point x="376" y="-10"/>
      <point x="445" y="59"/>
      <point x="445" y="139" type="curve" smooth="yes"/>
      <point x="445" y="214"/>
      <point x="404" y="259"/>
      <point x="276" y="288" type="curve" smooth="yes"/>
      <point x="149" y="317"/>
      <point x="123" y="340"/>
      <point x="123" y="385" type="curve" smooth="yes"/>
      <point x="123" y="435"/>
      <point x="161" y="472"/>
      <point x="241" y="472" type="curve" smooth="yes"/>
      <point x="321" y="472"/>
      <point x="345" y="443"/>
      <point x="366" y="411" type="curve" smooth="yes"/>
      <point x="371" y="403"/>
      <point x="377" y="398"/>
      <point x="388" y="398" type="curve" smooth="yes"/>
      <point x="403" y="398" type="line" smooth="yes"/>
      <point x="415" y="398"/>
      <point x="426" y="407"/>
      <point x="425" y="420" type="curve" smooth="yes"/>
      <point x="423" y="449"/>
      <point x="371" y="530"/>
      <point x="241" y="530" type="curve" smooth="yes"/>
      <point x="121" y="530"/>
      <point x="62" y="455"/>
      <point x="62" y="385" type="curve" smooth="yes"/>
      <point x="62" y="320"/>
      <point x="89" y="270"/>
      <point x="216" y="241" type="curve" smooth="yes"/>
      <point x="342" y="212"/>
      <point x="384" y="194"/>
    </contour>
  </outline>
</glyph>
<glyph name="t" format="1">
  <advance width="359"/>
  <unicode hex="0074"/>
  <outline>
    <contour>
      <point x="181" y="462" type="line"/>
      <point x="305" y="462" type="line" smooth="yes"/>
      <point x="318" y="462"/>
      <point x="327" y="471"/>
      <point x="327" y="484" type="curve" name="hr01" smooth="yes"/>
      <point x="327" y="498" type="line" smooth="yes"/>
      <point x="327" y="511"/>
      <point x="318" y="520"/>
      <point x="305" y="520" type="curve" smooth="yes"/>
      <point x="181" y="520" type="line" name="hr02"/>
      <point x="181" y="688" type="line" smooth="yes"/>
      <point x="181" y="701"/>
      <point x="172" y="710"/>
      <point x="159" y="710" type="curve" smooth="yes"/>
      <point x="142" y="710" type="line" smooth="yes"/>
      <point x="129" y="710"/>
      <point x="120" y="701"/>
      <point x="120" y="688" type="curve" smooth="yes"/>
      <point x="120" y="520" type="line"/>
      <point x="42" y="520" type="line" smooth="yes"/>
      <point x="29" y="520"/>
      <point x="20" y="511"/>
      <point x="20" y="498" type="curve" smooth="yes"/>
      <point x="20" y="484" type="line" smooth="yes"/>
      <point x="20" y="471"/>
      <point x="29" y="462"/>
      <point x="42" y="462" type="curve" smooth="yes"/>
      <point x="120" y="462" type="line"/>
      <point x="120" y="167" type="line" smooth="yes"/>
      <point x="120" y="73"/>
      <point x="151" y="0"/>
      <point x="256" y="0" type="curve" smooth="yes"/>
      <point x="315" y="0" type="line" smooth="yes"/>
      <point x="328" y="0"/>
      <point x="337" y="9"/>
      <point x="337" y="22" type="curve" smooth="yes"/>
      <point x="337" y="36" type="line" smooth="yes"/>
      <point x="337" y="49"/>
      <point x="328" y="58"/>
      <point x="315" y="58" type="curve" smooth="yes"/>
      <point x="261" y="58" type="line" smooth="yes"/>
      <point x="201" y="58"/>
      <point x="181" y="100"/>
      <point x="181" y="171" type="curve" smooth="yes"/>
    </contour>
  </outline>
</glyph>
<glyph name="u" format="1">
  <advance width="585"/>
  <unicode hex="0075"/>
  <outline>
    <contour>
      <point x="76" y="214" type="line" smooth="yes"/>
      <point x="76" y="87"/>
      <point x="140" y="-10"/>
      <point x="276" y="-10" type="curve" smooth="yes"/>
      <point x="362" y="-10"/>
      <point x="407" y="22"/>
      <point x="443" y="69" type="curve"/>
      <point x="443" y="22" type="line" smooth="yes"/>
      <point x="443" y="9"/>
      <point x="452" y="0"/>
      <point x="465" y="0" type="curve" name="hr01" smooth="yes"/>
      <point x="482" y="0" type="line" smooth="yes"/>
      <point x="495" y="0"/>
      <point x="504" y="9"/>
      <point x="504" y="22" type="curve" smooth="yes"/>
      <point x="504" y="498" type="line" smooth="yes"/>
      <point x="504" y="511"/>
      <point x="495" y="520"/>
      <point x="482" y="520" type="curve" smooth="yes"/>
      <point x="465" y="520" type="line" smooth="yes"/>
      <point x="452" y="520"/>
      <point x="443" y="511"/>
      <point x="443" y="498" type="curve" smooth="yes"/>
      <point x="443" y="219" type="line" smooth="yes"/>
      <point x="443" y="112"/>
      <point x="381" y="48"/>
      <point x="286" y="48" type="curve" name="hr02" smooth="yes"/>
      <point x="186" y="48"/>
      <point x="137" y="106"/>
      <point x="137" y="219" type="curve" smooth="yes"/>
      <point x="137" y="498" type="line" smooth="yes"/>
      <point x="137" y="511"/>
      <point x="128" y="520"/>
      <point x="115" y="520" type="curve" smooth="yes"/>
      <point x="98" y="520" type="line" smooth="yes"/>
      <point x="85" y="520"/>
      <point x="76" y="511"/>
      <point x="76" y="498" type="curve" smooth="yes"/>
    </contour>
  </outline>
</glyph>
<glyph name="v" format="1">
  <advance width="536"/>
  <unicode hex="0076"/>
  <outline>
    <contour>
      <point x="260" y="0" type="curve" name="hr00"/>
      <point x="276" y="0" type="line" smooth="yes"/>
      <point x="297" y="0"/>
      <point x="308" y="10"/>
      <point x="314" y="25" type="curve" smooth="yes"/>
      <point x="498" y="489" type="line" smooth="yes"/>
      <point x="499" y="492"/>
      <point x="500" y="498"/>
      <point x="500" y="500" type="curve" smooth="yes"/>
      <point x="500" y="511"/>
      <point x="491" y="520"/>
      <point x="480" y="520" type="curve" smooth="yes"/>
      <point x="459" y="520" type="line" smooth="yes"/>
      <point x="446" y="520"/>
      <point x="439" y="510"/>
      <point x="437" y="505" type="curve" smooth="yes"/>
      <point x="268" y="73" type="line"/>
      <point x="99" y="505" type="line" smooth="yes"/>
      <point x="97" y="510"/>
      <point x="90" y="520"/>
      <point x="77" y="520" type="curve" smooth="yes"/>
      <point x="56" y="520" type="line" smooth="yes"/>
      <point x="45" y="520"/>
      <point x="36" y="511"/>
      <point x="36" y="500" type="curve" smooth="yes"/>
      <point x="36" y="498"/>
      <point x="37" y="492"/>
      <point x="38" y="489" type="curve" smooth="yes"/>
      <point x="222" y="25" type="line" smooth="yes"/>
      <point x="228" y="10"/>
      <point x="239" y="0"/>
    </contour>
  </outline>
</glyph>
<glyph name="w" format="1">
  <advance width="786"/>
  <unicode hex="0077"/>
  <outline>
    <contour>
      <point x="430" y="500" type="line" name="hr00"/>
      <point x="428" y="508"/>
      <point x="420" y="520"/>
      <point x="403" y="520" type="curve"/>
      <point x="383" y="520" type="line"/>
      <point x="366" y="520"/>
      <point x="358" y="508"/>
      <point x="356" y="500" type="curve"/>
      <point x="225" y="89" type="line"/>
      <point x="102" y="505" type="line"/>
      <point x="101" y="510"/>
      <point x="93" y="520"/>
      <point x="80" y="520" type="curve"/>
      <point x="61" y="520" type="line"/>
      <point x="50" y="520"/>
      <point x="41" y="511"/>
      <point x="41" y="500" type="curve" smooth="yes"/>
      <point x="41" y="498"/>
      <point x="42" y="492"/>
      <point x="43" y="489" type="curve"/>
      <point x="184" y="25" type="line"/>
      <point x="190" y="8"/>
      <point x="198" y="0"/>
      <point x="216" y="0" type="curve"/>
      <point x="233" y="0" type="line"/>
      <point x="251" y="0"/>
      <point x="262" y="8"/>
      <point x="267" y="25" type="curve"/>
      <point x="393" y="419" type="line"/>
      <point x="519" y="25" type="line"/>
      <point x="524" y="8"/>
      <point x="535" y="0"/>
      <point x="553" y="0" type="curve"/>
      <point x="570" y="0" type="line"/>
      <point x="588" y="0"/>
      <point x="596" y="8"/>
      <point x="602" y="25" type="curve"/>
      <point x="743" y="489" type="line"/>
      <point x="744" y="492"/>
      <point x="745" y="498"/>
      <point x="745" y="500" type="curve" smooth="yes"/>
      <point x="745" y="511"/>
      <point x="736" y="520"/>
      <point x="725" y="520" type="curve"/>
      <point x="706" y="520" type="line"/>
      <point x="693" y="520"/>
      <point x="685" y="510"/>
      <point x="684" y="505" type="curve"/>
      <point x="561" y="89" type="line"/>
    </contour>
  </outline>
</glyph>
<glyph name="y" format="1">
  <advance width="532"/>
  <unicode hex="0079"/>
  <outline>
    <contour>
      <point x="212" y="-175" type="line" name="hr00" smooth="yes"/>
      <point x="208" y="-183"/>
      <point x="202" y="-190"/>
      <point x="189" y="-190" type="curve" smooth="yes"/>
      <point x="169" y="-190" type="line" smooth="yes"/>
      <point x="158" y="-190"/>
      <point x="149" y="-181"/>
      <point x="149" y="-170" type="curve" smooth="yes"/>
      <point x="149" y="-165"/>
      <point x="151" y="-160"/>
      <point x="155" y="-150" type="curve" smooth="yes"/>
      <point x="232" y="30" type="line"/>
      <point x="41" y="480" type="line" smooth="yes"/>
      <point x="37" y="490"/>
      <point x="35" y="495"/>
      <point x="35" y="500" type="curve" smooth="yes"/>
      <point x="35" y="511"/>
      <point x="44" y="520"/>
      <point x="55" y="520" type="curve" smooth="yes"/>
      <point x="76" y="520" type="line" smooth="yes"/>
      <point x="89" y="520"/>
      <point x="95" y="513"/>
      <point x="99" y="505" type="curve" smooth="yes"/>
      <point x="267" y="109" type="line"/>
      <point x="439" y="505" type="line" smooth="yes"/>
      <point x="443" y="513"/>
      <point x="449" y="520"/>
      <point x="462" y="520" type="curve" smooth="yes"/>
      <point x="482" y="520" type="line" smooth="yes"/>
      <point x="493" y="520"/>
      <point x="502" y="511"/>
      <point x="502" y="500" type="curve" smooth="yes"/>
      <point x="502" y="495"/>
      <point x="500" y="490"/>
      <point x="496" y="480" type="curve" smooth="yes"/>
    </contour>
  </outline>
</glyph>
<glyph name="z" format="1">
  <advance width="490"/>
  <unicode hex="007A"/>
  <outline>
    <contour>
      <point x="126" y="58" type="line" name="hr00"/>
      <point x="418" y="450" type="line" smooth="yes"/>
      <point x="425" y="460"/>
      <point x="432" y="470"/>
      <point x="432" y="481" type="curve" smooth="yes"/>
      <point x="432" y="498" type="line" smooth="yes"/>
      <point x="432" y="511"/>
      <point x="423" y="520"/>
      <point x="410" y="520" type="curve" smooth="yes"/>
      <point x="74" y="520" type="line" smooth="yes"/>
      <point x="61" y="520"/>
      <point x="52" y="511"/>
      <point x="52" y="498" type="curve" smooth="yes"/>
      <point x="52" y="484" type="line" smooth="yes"/>
      <point x="52" y="471"/>
      <point x="61" y="462"/>
      <point x="74" y="462" type="curve" smooth="yes"/>
      <point x="350" y="462" type="line"/>
      <point x="56" y="70" type="line" smooth="yes"/>
      <point x="49" y="60"/>
      <point x="42" y="50"/>
      <point x="42" y="39" type="curve" smooth="yes"/>
      <point x="42" y="22" type="line" smooth="yes"/>
      <point x="42" y="9"/>
      <point x="51" y="0"/>
      <point x="64" y="0" type="curve" smooth="yes"/>
      <point x="430" y="0" type="line" smooth="yes"/>
      <point x="443" y="0"/>
      <point x="452" y="9"/>
      <point x="452" y="22" type="curve" smooth="yes"/>
      <point x="452" y="36" type="line" smooth="yes"/>
      <point x="452" y="49"/>
      <point x="443" y="58"/>
      <point x="430" y="58" type="curve" smooth="yes"/>
    </contour>
  </outline>
</glyph>
<glyph name="braceleft" format="1">
  <advance width="344"/>
  <unicode hex="007B"/>
  <outline>
    <contour>
      <point x="183" y="152" type="curve" name="hr00" smooth="yes"/>
      <point x="183" y="230"/>
      <point x="160" y="278"/>
      <point x="108" y="309" type="curve"/>
      <point x="160" y="340"/>
      <point x="183" y="388"/>
      <point x="183" y="466" type="curve" smooth="yes"/>
      <point x="183" y="645"/>
      <point x="187" y="717"/>
      <point x="290" y="718" type="curve" smooth="yes"/>
      <point x="295" y="718" type="line" smooth="yes"/>
      <point x="308" y="718"/>
      <point x="317" y="727"/>
      <point x="317" y="740" type="curve" smooth="yes"/>
      <point x="317" y="754" type="line" smooth="yes"/>
      <point x="317" y="767"/>
      <point x="308" y="776"/>
      <point x="295" y="776" type="curve" smooth="yes"/>
      <point x="290" y="776" type="line" smooth="yes"/>
      <point x="133" y="776"/>
      <point x="122" y="670"/>
      <point x="122" y="487" type="curve" smooth="yes"/>
      <point x="122" y="408"/>
      <point x="102" y="379"/>
      <point x="61" y="352" type="curve" smooth="yes"/>
      <point x="43" y="340"/>
      <point x="37" y="331"/>
      <point x="37" y="315" type="curve" smooth="yes"/>
      <point x="37" y="303" type="line" smooth="yes"/>
      <point x="37" y="287"/>
      <point x="43" y="278"/>
      <point x="61" y="266" type="curve" smooth="yes"/>
      <point x="102" y="239"/>
      <point x="122" y="210"/>
      <point x="122" y="131" type="curve" smooth="yes"/>
      <point x="122" y="-52"/>
      <point x="133" y="-159"/>
      <point x="290" y="-159" type="curve" smooth="yes"/>
      <point x="295" y="-159" type="line" smooth="yes"/>
      <point x="308" y="-159"/>
      <point x="317" y="-150"/>
      <point x="317" y="-137" type="curve" smooth="yes"/>
      <point x="317" y="-123" type="line" smooth="yes"/>
      <point x="317" y="-110"/>
      <point x="308" y="-101"/>
      <point x="295" y="-101" type="curve" smooth="yes"/>
      <point x="290" y="-101" type="line" smooth="yes"/>
      <point x="187" y="-100"/>
      <point x="183" y="-27"/>
    </contour>
  </outline>
</glyph>
<glyph name="bar" format="1">
  <advance width="219"/>
  <unicode hex="007C"/>
  <outline>
    <contour>
      <point x="140" y="874" type="line" name="hr00" smooth="yes"/>
      <point x="140" y="887"/>
      <point x="131" y="896"/>
      <point x="118" y="896" type="curve" smooth="yes"/>
      <point x="101" y="896" type="line" smooth="yes"/>
      <point x="88" y="896"/>
      <point x="79" y="887"/>
      <point x="79" y="874" type="curve" smooth="yes"/>
      <point x="79" y="-186" type="line" smooth="yes"/>
      <point x="79" y="-199"/>
      <point x="88" y="-208"/>
      <point x="101" y="-208" type="curve" smooth="yes"/>
      <point x="118" y="-208" type="line" smooth="yes"/>
      <point x="131" y="-208"/>
      <point x="140" y="-199"/>
      <point x="140" y="-186" type="curve" smooth="yes"/>
    </contour>
  </outline>
</glyph>
<glyph name="braceright" format="1">
  <advance width="344"/>
  <unicode hex="007D"/>
  <outline>
    <contour>
      <point x="161" y="152" type="curve" name="hr00" smooth="yes"/>
      <point x="161" y="-27"/>
      <point x="157" y="-100"/>
      <point x="54" y="-101" type="curve" smooth="yes"/>
      <point x="49" y="-101" type="line" smooth="yes"/>
      <point x="36" y="-101"/>
      <point x="27" y="-110"/>
      <point x="27" y="-123" type="curve" smooth="yes"/>
      <point x="27" y="-137" type="line" smooth="yes"/>
      <point x="27" y="-150"/>
      <point x="36" y="-159"/>
      <point x="49" y="-159" type="curve" smooth="yes"/>
      <point x="54" y="-159" type="line" smooth="yes"/>
      <point x="211" y="-159"/>
      <point x="222" y="-52"/>
      <point x="222" y="131" type="curve" smooth="yes"/>
      <point x="222" y="210"/>
      <point x="242" y="239"/>
      <point x="283" y="266" type="curve" smooth="yes"/>
      <point x="301" y="278"/>
      <point x="307" y="287"/>
      <point x="307" y="303" type="curve" smooth="yes"/>
      <point x="307" y="315" type="line" smooth="yes"/>
      <point x="307" y="331"/>
      <point x="301" y="340"/>
      <point x="283" y="352" type="curve" smooth="yes"/>
      <point x="242" y="379"/>
      <point x="222" y="408"/>
      <point x="222" y="487" type="curve" smooth="yes"/>
      <point x="222" y="670"/>
      <point x="211" y="776"/>
      <point x="54" y="776" type="curve" smooth="yes"/>
      <point x="49" y="776" type="line" smooth="yes"/>
      <point x="36" y="776"/>
      <point x="27" y="767"/>
      <point x="27" y="754" type="curve" smooth="yes"/>
      <point x="27" y="740" type="line" smooth="yes"/>
      <point x="27" y="727"/>
      <point x="36" y="718"/>
      <point x="49" y="718" type="curve" smooth="yes"/>
      <point x="54" y="718" type="line" smooth="yes"/>
      <point x="157" y="717"/>
      <point x="161" y="645"/>
      <point x="161" y="466" type="curve" smooth="yes"/>
      <point x="161" y="388"/>
      <point x="184" y="340"/>
      <point x="236" y="309" type="curve"/>
      <point x="184" y="278"/>
      <point x="161" y="230"/>
    </contour>
  </outline>
</glyph>
<glyph name="asciitilde" format="1">
  <advance width="563"/>
  <unicode hex="007E"/>
  <outline>
    <contour>
      <point x="377" y="252" type="curve" smooth="yes"/>
      <point x="433" y="252"/>
      <point x="487" y="282"/>
      <point x="487" y="307" type="curve" smooth="yes"/>
      <point x="487" y="330" type="line" smooth="yes"/>
      <point x="487" y="340"/>
      <point x="480" y="347"/>
      <point x="470" y="347" type="curve" name="hr01" smooth="yes"/>
      <point x="451" y="347"/>
      <point x="430" y="312"/>
      <point x="378" y="312" type="curve" name="hr02" smooth="yes"/>
      <point x="306" y="312"/>
      <point x="271" y="347"/>
      <point x="187" y="347" type="curve" name="hr03" smooth="yes"/>
      <point x="131" y="347"/>
      <point x="77" y="317"/>
      <point x="77" y="292" type="curve" smooth="yes"/>
      <point x="77" y="269" type="line" smooth="yes"/>
      <point x="77" y="259"/>
      <point x="84" y="252"/>
      <point x="94" y="252" type="curve" name="hr04" smooth="yes"/>
      <point x="113" y="252"/>
      <point x="134" y="287"/>
      <point x="186" y="287" type="curve" name="hr05" smooth="yes"/>
      <point x="261" y="287"/>
      <point x="297" y="252"/>
    </contour>
  </outline>
</glyph>
<glyph name="cent" format="1">
  <advance width="544"/>
  <unicode hex="00A2"/>
  <outline>
    <contour>
      <point x="122" y="295" type="curve" name="hr00" smooth="yes"/>
      <point x="126" y="420"/>
      <point x="193" y="472"/>
      <point x="274" y="472" type="curve" smooth="yes"/>
      <point x="344" y="472"/>
      <point x="401" y="446"/>
      <point x="429" y="370" type="curve" smooth="yes"/>
      <point x="435" y="354"/>
      <point x="439" y="349"/>
      <point x="453" y="349" type="curve"/>
      <point x="467" y="349" type="line"/>
      <point x="479" y="349"/>
      <point x="490" y="358"/>
      <point x="489" y="371" type="curve" smooth="yes"/>
      <point x="487" y="419"/>
      <point x="441" y="516"/>
      <point x="304" y="529" type="curve"/>
      <point x="304" y="588" type="line"/>
      <point x="304" y="601"/>
      <point x="295" y="610"/>
      <point x="282" y="610" type="curve"/>
      <point x="266" y="610" type="line"/>
      <point x="253" y="610"/>
      <point x="244" y="601"/>
      <point x="244" y="588" type="curve"/>
      <point x="244" y="528" type="line"/>
      <point x="131" y="516"/>
      <point x="64" y="431"/>
      <point x="61" y="300" type="curve" smooth="yes"/>
      <point x="60" y="280"/>
      <point x="60" y="240"/>
      <point x="61" y="220" type="curve" smooth="yes"/>
      <point x="64" y="88"/>
      <point x="131" y="4"/>
      <point x="244" y="-8" type="curve"/>
      <point x="244" y="-78" type="line"/>
      <point x="244" y="-91"/>
      <point x="253" y="-100"/>
      <point x="266" y="-100" type="curve"/>
      <point x="282" y="-100" type="line"/>
      <point x="295" y="-100"/>
      <point x="304" y="-91"/>
      <point x="304" y="-78" type="curve"/>
      <point x="304" y="-9" type="line"/>
      <point x="441" y="3"/>
      <point x="487" y="100"/>
      <point x="489" y="149" type="curve" smooth="yes"/>
      <point x="490" y="162"/>
      <point x="479" y="171"/>
      <point x="467" y="171" type="curve"/>
      <point x="453" y="171" type="line"/>
      <point x="439" y="171"/>
      <point x="435" y="166"/>
      <point x="429" y="150" type="curve" smooth="yes"/>
      <point x="401" y="74"/>
      <point x="344" y="48"/>
      <point x="274" y="48" type="curve" smooth="yes"/>
      <point x="193" y="48"/>
      <point x="126" y="100"/>
      <point x="122" y="225" type="curve" smooth="yes"/>
      <point x="121" y="245"/>
      <point x="121" y="275"/>
    </contour>
  </outline>
</glyph>
<glyph name="yen" format="1">
  <advance width="586"/>
  <unicode hex="00A5"/>
  <outline>
    <contour>
      <point x="101" y="685" type="line" name="hr00" smooth="yes"/>
      <point x="95" y="695"/>
      <point x="87" y="700"/>
      <point x="78" y="700" type="curve" smooth="yes"/>
      <point x="56" y="700" type="line" smooth="yes"/>
      <point x="45" y="700"/>
      <point x="36" y="691"/>
      <point x="36" y="680" type="curve" smooth="yes"/>
      <point x="36" y="675"/>
      <point x="38" y="671"/>
      <point x="40" y="667" type="curve" smooth="yes"/>
      <point x="255" y="303" type="line"/>
      <point x="113" y="303" type="line" smooth="yes"/>
      <point x="100" y="303"/>
      <point x="91" y="294"/>
      <point x="91" y="281" type="curve" smooth="yes"/>
      <point x="91" y="265" type="line" smooth="yes"/>
      <point x="91" y="252"/>
      <point x="100" y="243"/>
      <point x="113" y="243" type="curve" smooth="yes"/>
      <point x="262" y="243" type="line"/>
      <point x="262" y="183" type="line"/>
      <point x="113" y="183" type="line" smooth="yes"/>
      <point x="100" y="183"/>
      <point x="91" y="174"/>
      <point x="91" y="161" type="curve" smooth="yes"/>
      <point x="91" y="145" type="line" smooth="yes"/>
      <point x="91" y="132"/>
      <point x="100" y="123"/>
      <point x="113" y="123" type="curve" smooth="yes"/>
      <point x="262" y="123" type="line"/>
      <point x="262" y="22" type="line" smooth="yes"/>
      <point x="262" y="9"/>
      <point x="271" y="0"/>
      <point x="284" y="0" type="curve" smooth="yes"/>
      <point x="302" y="0" type="line" smooth="yes"/>
      <point x="315" y="0"/>
      <point x="324" y="9"/>
      <point x="324" y="22" type="curve" smooth="yes"/>
      <point x="324" y="123" type="line"/>
      <point x="473" y="123" type="line" smooth="yes"/>
      <point x="486" y="123"/>
      <point x="495" y="132"/>
      <point x="495" y="145" type="curve" smooth="yes"/>
      <point x="495" y="161" type="line" smooth="yes"/>
      <point x="495" y="174"/>
      <point x="486" y="183"/>
      <point x="473" y="183" type="curve" smooth="yes"/>
      <point x="324" y="183" type="line"/>
      <point x="324" y="243" type="line"/>
      <point x="473" y="243" type="line" smooth="yes"/>
      <point x="486" y="243"/>
      <point x="495" y="252"/>
      <point x="495" y="265" type="curve" smooth="yes"/>
      <point x="495" y="281" type="line" smooth="yes"/>
      <point x="495" y="294"/>
      <point x="486" y="303"/>
      <point x="473" y="303" type="curve" smooth="yes"/>
      <point x="331" y="303" type="line"/>
      <point x="546" y="667" type="line" smooth="yes"/>
      <point x="548" y="671"/>
      <point x="550" y="675"/>
      <point x="550" y="680" type="curve" smooth="yes"/>
      <point x="550" y="691"/>
      <point x="541" y="700"/>
      <point x="530" y="700" type="curve" smooth="yes"/>
      <point x="508" y="700" type="line" smooth="yes"/>
      <point x="499" y="700"/>
      <point x="491" y="695"/>
      <point x="485" y="685" type="curve" smooth="yes"/>
      <point x="293" y="361" type="line"/>
    </contour>
  </outline>
</glyph>
<glyph name="brokenbar" format="1">
  <advance width="225"/>
  <unicode hex="00A6"/>
  <outline>
    <contour>
      <point x="143" y="807" type="line" name="hr00"/>
      <point x="143" y="820"/>
      <point x="134" y="829"/>
      <point x="121" y="829" type="curve" smooth="yes"/>
      <point x="104" y="829" type="line" smooth="yes"/>
      <point x="91" y="829"/>
      <point x="82" y="820"/>
      <point x="82" y="807" type="curve" smooth="yes"/>
      <point x="82" y="497" type="line" smooth="yes"/>
      <point x="82" y="484"/>
      <point x="91" y="475"/>
      <point x="104" y="475" type="curve" smooth="yes"/>
      <point x="121" y="475" type="line" smooth="yes"/>
      <point x="134" y="475"/>
      <point x="143" y="484"/>
      <point x="143" y="497" type="curve" smooth="yes"/>
    </contour>
    <contour>
      <point x="143" y="332" type="line"/>
      <point x="143" y="345"/>
      <point x="134" y="354"/>
      <point x="121" y="354" type="curve" smooth="yes"/>
      <point x="104" y="354" type="line" smooth="yes"/>
      <point x="91" y="354"/>
      <point x="82" y="345"/>
      <point x="82" y="332" type="curve" smooth="yes"/>
      <point x="82" y="22" type="line" smooth="yes"/>
      <point x="82" y="9"/>
      <point x="91" y="0"/>
      <point x="104" y="0" type="curve" smooth="yes"/>
      <point x="121" y="0" type="line" smooth="yes"/>
      <point x="134" y="0"/>
      <point x="143" y="9"/>
      <point x="143" y="22" type="curve" smooth="yes"/>
    </contour>
  </outline>
</glyph>
<glyph name="dieresis" format="1">
  <advance width="376"/>
  <unicode hex="00A8"/>
  <outline>
    <contour>
      <point x="306" y="687" type="line" name="hr00" smooth="yes"/>
      <point x="306" y="700"/>
      <point x="296" y="710"/>
      <point x="283" y="710" type="curve" smooth="yes"/>
      <point x="245" y="710" type="line" smooth="yes"/>
      <point x="232" y="710"/>
      <point x="223" y="700"/>
      <point x="223" y="687" type="curve" smooth="yes"/>
      <point x="223" y="649" type="line" smooth="yes"/>
      <point x="223" y="636"/>
      <point x="232" y="627"/>
      <point x="245" y="627" type="curve" smooth="yes"/>
      <point x="283" y="627" type="line" smooth="yes"/>
      <point x="296" y="627"/>
      <point x="306" y="636"/>
      <point x="306" y="649" type="curve" smooth="yes"/>
    </contour>
    <contour>
      <point x="153" y="687" type="line" smooth="yes"/>
      <point x="153" y="700"/>
      <point x="143" y="710"/>
      <point x="130" y="710" type="curve" smooth="yes"/>
      <point x="92" y="710" type="line" smooth="yes"/>
      <point x="79" y="710"/>
      <point x="70" y="700"/>
      <point x="70" y="687" type="curve" smooth="yes"/>
      <point x="70" y="649" type="line" smooth="yes"/>
      <point x="70" y="636"/>
      <point x="79" y="627"/>
      <point x="92" y="627" type="curve" smooth="yes"/>
      <point x="130" y="627" type="line" smooth="yes"/>
      <point x="143" y="627"/>
      <point x="153" y="636"/>
      <point x="153" y="649" type="curve" smooth="yes"/>
    </contour>
  </outline>
</glyph>
<glyph name="guillemotleft" format="1">
  <advance width="603"/>
  <unicode hex="00AB"/>
  <outline>
    <contour>
      <point x="278" y="493" type="line" name="hr00"/>
      <point x="291" y="506"/>
      <point x="296" y="513"/>
      <point x="296" y="529" type="curve" smooth="yes"/>
      <point x="296" y="546" type="line" smooth="yes"/>
      <point x="296" y="558"/>
      <point x="288" y="566"/>
      <point x="276" y="566" type="curve" smooth="yes"/>
      <point x="268" y="566"/>
      <point x="260" y="561"/>
      <point x="252" y="554" type="curve" smooth="yes"/>
      <point x="64" y="372" type="line" smooth="yes"/>
      <point x="51" y="359"/>
      <point x="48" y="348"/>
      <point x="47" y="337" type="curve"/>
      <point x="47" y="321" type="line"/>
      <point x="48" y="310"/>
      <point x="51" y="299"/>
      <point x="64" y="286" type="curve" smooth="yes"/>
      <point x="252" y="104" type="line" smooth="yes"/>
      <point x="260" y="97"/>
      <point x="268" y="92"/>
      <point x="276" y="92" type="curve" smooth="yes"/>
      <point x="288" y="92"/>
      <point x="296" y="100"/>
      <point x="296" y="112" type="curve" smooth="yes"/>
      <point x="296" y="129" type="line" smooth="yes"/>
      <point x="296" y="145"/>
      <point x="291" y="152"/>
      <point x="278" y="165" type="curve" smooth="yes"/>
      <point x="109" y="329" type="line"/>
    </contour>
    <contour>
      <point x="527" y="493" type="line"/>
      <point x="540" y="506"/>
      <point x="545" y="513"/>
      <point x="545" y="529" type="curve" smooth="yes"/>
      <point x="545" y="546" type="line" smooth="yes"/>
      <point x="545" y="558"/>
      <point x="537" y="566"/>
      <point x="525" y="566" type="curve" smooth="yes"/>
      <point x="517" y="566"/>
      <point x="509" y="561"/>
      <point x="501" y="554" type="curve" smooth="yes"/>
      <point x="313" y="372" type="line" smooth="yes"/>
      <point x="300" y="359"/>
      <point x="297" y="348"/>
      <point x="296" y="337" type="curve"/>
      <point x="296" y="321" type="line"/>
      <point x="297" y="310"/>
      <point x="300" y="299"/>
      <point x="313" y="286" type="curve" smooth="yes"/>
      <point x="501" y="104" type="line" smooth="yes"/>
      <point x="509" y="97"/>
      <point x="517" y="92"/>
      <point x="525" y="92" type="curve" smooth="yes"/>
      <point x="537" y="92"/>
      <point x="545" y="100"/>
      <point x="545" y="112" type="curve" smooth="yes"/>
      <point x="545" y="129" type="line" smooth="yes"/>
      <point x="545" y="145"/>
      <point x="540" y="152"/>
      <point x="527" y="165" type="curve" smooth="yes"/>
      <point x="358" y="329" type="line"/>
    </contour>
  </outline>
</glyph>
<glyph name="logicalnot" format="1">
  <advance width="581"/>
  <unicode hex="00AC"/>
  <outline>
    <contour>
      <point x="465" y="170" type="curve" name="hr00"/>
      <point x="483" y="170" type="line" smooth="yes"/>
      <point x="496" y="170"/>
      <point x="505" y="179"/>
      <point x="505" y="192" type="curve" smooth="yes"/>
      <point x="505" y="328" type="line" smooth="yes"/>
      <point x="505" y="341"/>
      <point x="496" y="350"/>
      <point x="483" y="350" type="curve" smooth="yes"/>
      <point x="98" y="350" type="line" smooth="yes"/>
      <point x="85" y="350"/>
      <point x="76" y="341"/>
      <point x="76" y="328" type="curve" smooth="yes"/>
      <point x="76" y="314" type="line" smooth="yes"/>
      <point x="76" y="301"/>
      <point x="85" y="292"/>
      <point x="98" y="292" type="curve" smooth="yes"/>
      <point x="443" y="292" type="line"/>
      <point x="443" y="192" type="line" smooth="yes"/>
      <point x="443" y="179"/>
      <point x="452" y="170"/>
    </contour>
  </outline>
</glyph>
<glyph name="registered" format="1">
  <advance width="834"/>
  <unicode hex="00AE"/>
  <outline>
    <contour>
      <point x="57" y="350" type="curve" smooth="yes"/>
      <point x="57" y="151"/>
      <point x="218" y="-10"/>
      <point x="417" y="-10" type="curve" smooth="yes"/>
      <point x="616" y="-10"/>
      <point x="777" y="151"/>
      <point x="777" y="350" type="curve" smooth="yes"/>
      <point x="777" y="549"/>
      <point x="616" y="710"/>
      <point x="417" y="710" type="curve" smooth="yes"/>
      <point x="218" y="710"/>
      <point x="57" y="549"/>
    </contour>
    <contour>
      <point x="117" y="350" type="curve" smooth="yes"/>
      <point x="117" y="516"/>
      <point x="251" y="655"/>
      <point x="417" y="655" type="curve" smooth="yes"/>
      <point x="583" y="655"/>
      <point x="717" y="516"/>
      <point x="717" y="350" type="curve" smooth="yes"/>
      <point x="717" y="184"/>
      <point x="583" y="45"/>
      <point x="417" y="45" type="curve" smooth="yes"/>
      <point x="251" y="45"/>
      <point x="117" y="184"/>
    </contour>
    <contour>
      <point x="304" y="168" type="curve"/>
      <point x="321" y="168" type="line" smooth="yes"/>
      <point x="334" y="168"/>
      <point x="343" y="177"/>
      <point x="343" y="190" type="curve" smooth="yes"/>
      <point x="343" y="302" type="line" name="hr01"/>
      <point x="432" y="302" type="line"/>
      <point x="504" y="187" type="line" smooth="yes"/>
      <point x="511" y="175"/>
      <point x="519" y="168"/>
      <point x="533" y="168" type="curve" name="hr02" smooth="yes"/>
      <point x="547" y="168" type="line" smooth="yes"/>
      <point x="562" y="168"/>
      <point x="569" y="179"/>
      <point x="569" y="190" type="curve" smooth="yes"/>
      <point x="569" y="196"/>
      <point x="567" y="201"/>
      <point x="565" y="204" type="curve" smooth="yes"/>
      <point x="496" y="313" type="line"/>
      <point x="539" y="329"/>
      <point x="568" y="364"/>
      <point x="568" y="418" type="curve" smooth="yes"/>
      <point x="568" y="504"/>
      <point x="508" y="534"/>
      <point x="432" y="534" type="curve" smooth="yes"/>
      <point x="304" y="534" type="line" smooth="yes"/>
      <point x="291" y="534"/>
      <point x="282" y="525"/>
      <point x="282" y="512" type="curve" smooth="yes"/>
      <point x="282" y="190" type="line" smooth="yes"/>
      <point x="282" y="177"/>
      <point x="291" y="168"/>
    </contour>
    <contour>
      <point x="343" y="476" type="line"/>
      <point x="430" y="476" type="line" smooth="yes"/>
      <point x="491" y="476"/>
      <point x="507" y="448"/>
      <point x="507" y="418" type="curve" smooth="yes"/>
      <point x="507" y="388"/>
      <point x="491" y="360"/>
      <point x="430" y="360" type="curve" smooth="yes"/>
      <point x="343" y="360" type="line"/>
    </contour>
  </outline>
</glyph>
<glyph name="macron" format="1">
  <advance width="383"/>
  <unicode hex="00AF"/>
  <outline>
    <contour>
      <point x="291" y="622" type="line" name="hr00" smooth="yes"/>
      <point x="304" y="622"/>
      <point x="313" y="631"/>
      <point x="313" y="644" type="curve" smooth="yes"/>
      <point x="313" y="658" type="line" smooth="yes"/>
      <point x="313" y="671"/>
      <point x="304" y="680"/>
      <point x="291" y="680" type="curve" smooth="yes"/>
      <point x="92" y="680" type="line" smooth="yes"/>
      <point x="79" y="680"/>
      <point x="70" y="671"/>
      <point x="70" y="658" type="curve" smooth="yes"/>
      <point x="70" y="644" type="line" smooth="yes"/>
      <point x="70" y="631"/>
      <point x="79" y="622"/>
      <point x="92" y="622" type="curve" smooth="yes"/>
    </contour>
  </outline>
</glyph>
<glyph name="degree" format="1">
  <advance width="378"/>
  <unicode hex="00B0"/>
  <outline>
    <contour>
      <point x="113" y="579" type="curve" name="hr00" smooth="yes"/>
      <point x="113" y="624"/>
      <point x="144" y="655"/>
      <point x="189" y="655" type="curve" smooth="yes"/>
      <point x="234" y="655"/>
      <point x="265" y="624"/>
      <point x="265" y="579" type="curve" smooth="yes"/>
      <point x="265" y="534"/>
      <point x="234" y="503"/>
      <point x="189" y="503" type="curve" smooth="yes"/>
      <point x="144" y="503"/>
      <point x="113" y="534"/>
    </contour>
    <contour>
      <point x="53" y="579" type="curve" smooth="yes"/>
      <point x="53" y="504"/>
      <point x="114" y="448"/>
      <point x="189" y="448" type="curve" smooth="yes"/>
      <point x="264" y="448"/>
      <point x="325" y="504"/>
      <point x="325" y="579" type="curve" smooth="yes"/>
      <point x="325" y="654"/>
      <point x="264" y="710"/>
      <point x="189" y="710" type="curve" smooth="yes"/>
      <point x="114" y="710"/>
      <point x="53" y="654"/>
    </contour>
  </outline>
</glyph>
<glyph name="plusminus" format="1">
  <advance width="556"/>
  <unicode hex="00B1"/>
  <outline>
    <contour>
      <point x="308" y="585" type="line" name="hr00" smooth="yes"/>
      <point x="308" y="598"/>
      <point x="299" y="607"/>
      <point x="286" y="607" type="curve" smooth="yes"/>
      <point x="270" y="607" type="line" smooth="yes"/>
      <point x="257" y="607"/>
      <point x="248" y="598"/>
      <point x="248" y="585" type="curve" smooth="yes"/>
      <point x="248" y="431" type="line"/>
      <point x="91" y="431" type="line" smooth="yes"/>
      <point x="78" y="431"/>
      <point x="69" y="422"/>
      <point x="69" y="409" type="curve" smooth="yes"/>
      <point x="69" y="395" type="line" smooth="yes"/>
      <point x="69" y="382"/>
      <point x="78" y="373"/>
      <point x="91" y="373" type="curve" smooth="yes"/>
      <point x="248" y="373" type="line"/>
      <point x="248" y="215" type="line" smooth="yes"/>
      <point x="248" y="202"/>
      <point x="257" y="193"/>
      <point x="270" y="193" type="curve" smooth="yes"/>
      <point x="286" y="193" type="line" smooth="yes"/>
      <point x="299" y="193"/>
      <point x="308" y="202"/>
      <point x="308" y="215" type="curve" smooth="yes"/>
      <point x="308" y="373" type="line"/>
      <point x="465" y="373" type="line" smooth="yes"/>
      <point x="478" y="373"/>
      <point x="487" y="382"/>
      <point x="487" y="395" type="curve" smooth="yes"/>
      <point x="487" y="409" type="line" smooth="yes"/>
      <point x="487" y="422"/>
      <point x="478" y="431"/>
      <point x="465" y="431" type="curve" smooth="yes"/>
      <point x="308" y="431" type="line"/>
    </contour>
    <contour>
      <point x="455" y="0" type="line" smooth="yes"/>
      <point x="468" y="0"/>
      <point x="477" y="9"/>
      <point x="477" y="22" type="curve" smooth="yes"/>
      <point x="477" y="36" type="line" smooth="yes"/>
      <point x="477" y="49"/>
      <point x="468" y="58"/>
      <point x="455" y="58" type="curve" smooth="yes"/>
      <point x="101" y="58" type="line" smooth="yes"/>
      <point x="88" y="58"/>
      <point x="79" y="49"/>
      <point x="79" y="36" type="curve" smooth="yes"/>
      <point x="79" y="22" type="line" smooth="yes"/>
      <point x="79" y="9"/>
      <point x="88" y="0"/>
      <point x="101" y="0" type="curve" smooth="yes"/>
    </contour>
  </outline>
</glyph>
<glyph name="acute" format="1">
  <advance width="311"/>
  <unicode hex="00B4"/>
  <outline>
    <contour>
      <point x="75" y="624" type="line" name="hr00" smooth="yes"/>
      <point x="72" y="621"/>
      <point x="70" y="616"/>
      <point x="70" y="611" type="curve" smooth="yes"/>
      <point x="70" y="601"/>
      <point x="76" y="595"/>
      <point x="86" y="595" type="curve" smooth="yes"/>
      <point x="96" y="595" type="line" smooth="yes"/>
      <point x="109" y="595"/>
      <point x="116" y="596"/>
      <point x="127" y="605" type="curve" smooth="yes"/>
      <point x="236" y="694" type="line" smooth="yes"/>
      <point x="239" y="697"/>
      <point x="241" y="701"/>
      <point x="241" y="706" type="curve" smooth="yes"/>
      <point x="241" y="718"/>
      <point x="234" y="725"/>
      <point x="222" y="725" type="curve" smooth="yes"/>
      <point x="181" y="725" type="line" smooth="yes"/>
      <point x="161" y="725"/>
      <point x="155" y="720"/>
      <point x="144" y="707" type="curve" smooth="yes"/>
    </contour>
  </outline>
</glyph>
<glyph name="paragraph" format="1">
  <advance width="491"/>
  <unicode hex="00B6"/>
  <outline>
    <contour>
      <point x="32" y="523" type="curve" smooth="yes"/>
      <point x="32" y="425"/>
      <point x="111" y="346"/>
      <point x="209" y="346" type="curve" name="hr01"/>
      <point x="209" y="-78" type="line" smooth="yes"/>
      <point x="209" y="-91"/>
      <point x="218" y="-100"/>
      <point x="231" y="-100" type="curve" smooth="yes"/>
      <point x="248" y="-100" type="line" smooth="yes"/>
      <point x="261" y="-100"/>
      <point x="270" y="-91"/>
      <point x="270" y="-78" type="curve" smooth="yes"/>
      <point x="270" y="642" type="line"/>
      <point x="349" y="642" type="line"/>
      <point x="349" y="-78" type="line" smooth="yes"/>
      <point x="349" y="-91"/>
      <point x="358" y="-100"/>
      <point x="371" y="-100" type="curve" smooth="yes"/>
      <point x="388" y="-100" type="line" smooth="yes"/>
      <point x="401" y="-100"/>
      <point x="410" y="-91"/>
      <point x="410" y="-78" type="curve" smooth="yes"/>
      <point x="410" y="678" type="line" smooth="yes"/>
      <point x="410" y="691"/>
      <point x="401" y="700"/>
      <point x="388" y="700" type="curve" smooth="yes"/>
      <point x="209" y="700" type="line" smooth="yes"/>
      <point x="111" y="700"/>
      <point x="32" y="621"/>
    </contour>
  </outline>
</glyph>
<glyph name="periodcentered" format="1">
  <advance width="330"/>
  <unicode hex="00B7"/>
  <outline>
    <contour>
      <point x="65" y="300" type="curve" name="hr00" smooth="yes"/>
      <point x="65" y="245"/>
      <point x="110" y="200"/>
      <point x="165" y="200" type="curve" smooth="yes"/>
      <point x="220" y="200"/>
      <point x="265" y="245"/>
      <point x="265" y="300" type="curve" smooth="yes"/>
      <point x="265" y="355"/>
      <point x="220" y="400"/>
      <point x="165" y="400" type="curve" smooth="yes"/>
      <point x="110" y="400"/>
      <point x="65" y="355"/>
    </contour>
  </outline>
</glyph>
<glyph name="ordmasculine" format="1">
  <advance width="361"/>
  <unicode hex="00BA"/>
  <outline>
    <contour>
      <point x="61" y="594" type="curve" name="hr00" smooth="yes"/>
      <point x="60" y="584"/>
      <point x="60" y="550"/>
      <point x="61" y="540" type="curve" smooth="yes"/>
      <point x="65" y="465"/>
      <point x="112" y="429"/>
      <point x="181" y="429" type="curve" smooth="yes"/>
      <point x="250" y="429"/>
      <point x="297" y="465"/>
      <point x="301" y="540" type="curve" smooth="yes"/>
      <point x="302" y="550"/>
      <point x="302" y="584"/>
      <point x="301" y="594" type="curve" smooth="yes"/>
      <point x="297" y="669"/>
      <point x="244" y="705"/>
      <point x="181" y="705" type="curve" smooth="yes"/>
      <point x="118" y="705"/>
      <point x="65" y="669"/>
    </contour>
    <contour>
      <point x="181" y="647" type="curve" smooth="yes"/>
      <point x="218" y="647"/>
      <point x="238" y="624"/>
      <point x="240" y="589" type="curve" smooth="yes"/>
      <point x="241" y="579"/>
      <point x="241" y="555"/>
      <point x="240" y="545" type="curve" smooth="yes"/>
      <point x="238" y="507"/>
      <point x="218" y="487"/>
      <point x="181" y="487" type="curve" smooth="yes"/>
      <point x="144" y="487"/>
      <point x="124" y="507"/>
      <point x="122" y="545" type="curve" smooth="yes"/>
      <point x="121" y="555"/>
      <point x="121" y="579"/>
      <point x="122" y="589" type="curve" smooth="yes"/>
      <point x="124" y="624"/>
      <point x="144" y="647"/>
    </contour>
  </outline>
</glyph>
<glyph name="AE" format="1">
  <advance width="920"/>
  <unicode hex="00C6"/>
  <outline>
    <contour>
      <point x="5" y="20" type="curve" name="hr00" smooth="yes"/>
      <point x="5" y="9"/>
      <point x="14" y="0"/>
      <point x="25" y="0" type="curve" smooth="yes"/>
      <point x="48" y="0" type="line" smooth="yes"/>
      <point x="57" y="0"/>
      <point x="65" y="6"/>
      <point x="70" y="15" type="curve"/>
      <point x="70" y="15"/>
      <point x="71" y="17"/>
      <point x="160" y="175" type="curve"/>
      <point x="422" y="175" type="line"/>
      <point x="422" y="22" type="line" smooth="yes"/>
      <point x="422" y="9"/>
      <point x="431" y="0"/>
      <point x="444" y="0" type="curve" smooth="yes"/>
      <point x="842" y="0" type="line" smooth="yes"/>
      <point x="856" y="0"/>
      <point x="865" y="9"/>
      <point x="865" y="22" type="curve" smooth="yes"/>
      <point x="865" y="37" type="line" smooth="yes"/>
      <point x="865" y="51"/>
      <point x="856" y="60"/>
      <point x="842" y="60" type="curve" smooth="yes"/>
      <point x="485" y="60" type="line"/>
      <point x="485" y="325" type="line"/>
      <point x="812" y="325" type="line" smooth="yes"/>
      <point x="826" y="325"/>
      <point x="835" y="334"/>
      <point x="835" y="347" type="curve" smooth="yes"/>
      <point x="835" y="362" type="line" smooth="yes"/>
      <point x="835" y="376"/>
      <point x="826" y="385"/>
      <point x="812" y="385" type="curve" smooth="yes"/>
      <point x="485" y="385" type="line"/>
      <point x="485" y="640" type="line"/>
      <point x="834" y="640" type="line" smooth="yes"/>
      <point x="848" y="640"/>
      <point x="857" y="649"/>
      <point x="857" y="662" type="curve" smooth="yes"/>
      <point x="857" y="677" type="line" smooth="yes"/>
      <point x="857" y="691"/>
      <point x="848" y="700"/>
      <point x="834" y="700" type="curve" smooth="yes"/>
      <point x="401" y="700" type="line" smooth="yes"/>
      <point x="392" y="700"/>
      <point x="383" y="696"/>
      <point x="375" y="681" type="curve" smooth="yes"/>
      <point x="17" y="49"/>
      <point x="9" y="34"/>
      <point x="9" y="34" type="curve"/>
      <point x="7" y="30"/>
      <point x="5" y="25"/>
    </contour>
    <contour>
      <point x="422" y="235" type="line"/>
      <point x="194" y="235" type="line"/>
      <point x="422" y="633" type="line"/>
    </contour>
  </outline>
</glyph>
<glyph name="Ccedilla" format="1">
  <advance width="651"/>
  <unicode hex="00C7"/>
  <outline>
    <contour>
      <point x="129" y="434" type="curve" name="hr00" smooth="yes"/>
      <point x="134" y="585"/>
      <point x="209" y="650"/>
      <point x="331" y="650" type="curve" smooth="yes"/>
      <point x="438" y="650"/>
      <point x="509" y="614"/>
      <point x="535" y="495" type="curve" smooth="yes"/>
      <point x="538" y="479"/>
      <point x="546" y="474"/>
      <point x="557" y="474" type="curve"/>
      <point x="577" y="474" type="line"/>
      <point x="589" y="474"/>
      <point x="599" y="482"/>
      <point x="598" y="494" type="curve" smooth="yes"/>
      <point x="593" y="589"/>
      <point x="521" y="710"/>
      <point x="331" y="710" type="curve" smooth="yes"/>
      <point x="149" y="710"/>
      <point x="72" y="595"/>
      <point x="66" y="439" type="curve" smooth="yes"/>
      <point x="64" y="382"/>
      <point x="64" y="315"/>
      <point x="66" y="261" type="curve" smooth="yes"/>
      <point x="71" y="121"/>
      <point x="133" y="15"/>
      <point x="277" y="-6" type="curve"/>
      <point x="257" y="-53" type="line"/>
      <point x="253" y="-63"/>
      <point x="245" y="-75"/>
      <point x="252" y="-83" type="curve"/>
      <point x="268" y="-100" type="line"/>
      <point x="283" y="-116"/>
      <point x="296" y="-96"/>
      <point x="328" y="-96" type="curve" smooth="yes"/>
      <point x="351" y="-96"/>
      <point x="371" y="-110"/>
      <point x="371" y="-134" type="curve" smooth="yes"/>
      <point x="371" y="-159"/>
      <point x="351" y="-174"/>
      <point x="328" y="-174" type="curve" smooth="yes"/>
      <point x="284" y="-174"/>
      <point x="277" y="-140"/>
      <point x="260" y="-156" type="curve"/>
      <point x="246" y="-169" type="line"/>
      <point x="230" y="-184"/>
      <point x="271" y="-219"/>
      <point x="328" y="-220" type="curve" smooth="yes"/>
      <point x="391" y="-221"/>
      <point x="422" y="-180"/>
      <point x="422" y="-132" type="curve" smooth="yes"/>
      <point x="422" y="-84"/>
      <point x="390" y="-50"/>
      <point x="346" y="-50" type="curve" smooth="yes"/>
      <point x="331" y="-50"/>
      <point x="316" y="-53"/>
      <point x="308" y="-58" type="curve"/>
      <point x="331" y="-10" type="line"/>
      <point x="521" y="-10"/>
      <point x="593" y="111"/>
      <point x="598" y="206" type="curve" smooth="yes"/>
      <point x="599" y="218"/>
      <point x="589" y="226"/>
      <point x="577" y="226" type="curve"/>
      <point x="557" y="226" type="line"/>
      <point x="546" y="226"/>
      <point x="538" y="221"/>
      <point x="535" y="205" type="curve" smooth="yes"/>
      <point x="509" y="86"/>
      <point x="438" y="50"/>
      <point x="331" y="50" type="curve" smooth="yes"/>
      <point x="209" y="50"/>
      <point x="134" y="115"/>
      <point x="129" y="266" type="curve" smooth="yes"/>
      <point x="127" y="323"/>
      <point x="127" y="379"/>
    </contour>
  </outline>
</glyph>
<glyph name="Eth" format="1">
  <advance width="683"/>
  <unicode hex="00D0"/>
  <outline>
    <contour>
      <point x="335" y="700" type="curve" name="hr00"/>
      <point x="122" y="700" type="line" smooth="yes"/>
      <point x="109" y="700"/>
      <point x="100" y="691"/>
      <point x="100" y="677" type="curve" smooth="yes"/>
      <point x="100" y="382" type="line"/>
      <point x="37" y="382" type="line" smooth="yes"/>
      <point x="24" y="382"/>
      <point x="15" y="373"/>
      <point x="15" y="360" type="curve" smooth="yes"/>
      <point x="15" y="344" type="line" smooth="yes"/>
      <point x="15" y="331"/>
      <point x="24" y="322"/>
      <point x="37" y="322" type="curve" smooth="yes"/>
      <point x="100" y="322" type="line"/>
      <point x="100" y="22" type="line" smooth="yes"/>
      <point x="100" y="9"/>
      <point x="109" y="0"/>
      <point x="122" y="0" type="curve" smooth="yes"/>
      <point x="340" y="0" type="line" smooth="yes"/>
      <point x="546" y="0"/>
      <point x="609" y="87"/>
      <point x="613" y="271" type="curve" smooth="yes"/>
      <point x="614" y="331"/>
      <point x="614" y="370"/>
      <point x="613" y="430" type="curve" smooth="yes"/>
      <point x="610" y="604"/>
      <point x="547" y="700"/>
    </contour>
    <contour>
      <point x="550" y="425" type="curve" smooth="yes"/>
      <point x="551" y="365"/>
      <point x="551" y="336"/>
      <point x="550" y="276" type="curve" smooth="yes"/>
      <point x="547" y="120"/>
      <point x="494" y="60"/>
      <point x="335" y="60" type="curve" smooth="yes"/>
      <point x="163" y="60" type="line"/>
      <point x="163" y="322" type="line"/>
      <point x="313" y="322" type="line" smooth="yes"/>
      <point x="326" y="322"/>
      <point x="335" y="331"/>
      <point x="335" y="344" type="curve" smooth="yes"/>
      <point x="335" y="360" type="line" smooth="yes"/>
      <point x="335" y="373"/>
      <point x="326" y="382"/>
      <point x="313" y="382" type="curve" smooth="yes"/>
      <point x="163" y="382" type="line"/>
      <point x="163" y="640" type="line"/>
      <point x="330" y="640" type="line" smooth="yes"/>
      <point x="490" y="640"/>
      <point x="547" y="571"/>
    </contour>
  </outline>
</glyph>
<glyph name="Oslash" format="1">
  <advance width="682"/>
  <unicode hex="00D8"/>
  <outline>
    <contour>
      <point x="342" y="710" type="curve" name="hr00" smooth="yes"/>
      <point x="186" y="710"/>
      <point x="83" y="620"/>
      <point x="78" y="434" type="curve" smooth="yes"/>
      <point x="76" y="380"/>
      <point x="75" y="336"/>
      <point x="77" y="284" type="curve"/>
      <point x="33" y="267" type="line" smooth="yes"/>
      <point x="17" y="261"/>
      <point x="11" y="257"/>
      <point x="11" y="242" type="curve" smooth="yes"/>
      <point x="11" y="223" type="line" smooth="yes"/>
      <point x="11" y="211"/>
      <point x="19" y="205"/>
      <point x="30" y="205" type="curve" smooth="yes"/>
      <point x="34" y="205"/>
      <point x="38" y="206"/>
      <point x="43" y="208" type="curve" smooth="yes"/>
      <point x="81" y="222" type="line"/>
      <point x="98" y="63"/>
      <point x="189" y="-10"/>
      <point x="342" y="-10" type="curve" smooth="yes"/>
      <point x="508" y="-10"/>
      <point x="601" y="77"/>
      <point x="606" y="266" type="curve" smooth="yes"/>
      <point x="608" y="323"/>
      <point x="608" y="370"/>
      <point x="606" y="427" type="curve"/>
      <point x="648" y="443" type="line" smooth="yes"/>
      <point x="664" y="449"/>
      <point x="670" y="453"/>
      <point x="670" y="468" type="curve" smooth="yes"/>
      <point x="670" y="487" type="line" smooth="yes"/>
      <point x="670" y="499"/>
      <point x="662" y="505"/>
      <point x="651" y="505" type="curve" smooth="yes"/>
      <point x="647" y="505"/>
      <point x="643" y="504"/>
      <point x="638" y="502" type="curve" smooth="yes"/>
      <point x="601" y="488" type="line"/>
      <point x="579" y="637"/>
      <point x="482" y="710"/>
    </contour>
    <contour>
      <point x="543" y="271" type="curve" smooth="yes"/>
      <point x="538" y="115"/>
      <point x="456" y="50"/>
      <point x="342" y="50" type="curve" smooth="yes"/>
      <point x="234" y="50"/>
      <point x="155" y="108"/>
      <point x="142" y="246" type="curve"/>
      <point x="544" y="403" type="line"/>
      <point x="545" y="357"/>
      <point x="544" y="322"/>
    </contour>
    <contour>
      <point x="342" y="650" type="curve" smooth="yes"/>
      <point x="446" y="650"/>
      <point x="524" y="595"/>
      <point x="540" y="464" type="curve"/>
      <point x="139" y="309" type="line"/>
      <point x="138" y="349"/>
      <point x="139" y="383"/>
      <point x="141" y="429" type="curve" smooth="yes"/>
      <point x="146" y="585"/>
      <point x="229" y="650"/>
    </contour>
  </outline>
</glyph>
<glyph name="Thorn" format="1">
  <advance width="633"/>
  <unicode hex="00DE"/>
  <outline>
    <contour>
      <point x="157" y="678" type="line" name="hr00"/>
      <point x="157" y="691"/>
      <point x="148" y="700"/>
      <point x="135" y="700" type="curve"/>
      <point x="116" y="700" type="line"/>
      <point x="103" y="700"/>
      <point x="94" y="691"/>
      <point x="94" y="678" type="curve"/>
      <point x="94" y="22" type="line"/>
      <point x="94" y="9"/>
      <point x="103" y="0"/>
      <point x="116" y="0" type="curve"/>
      <point x="134" y="0" type="line"/>
      <point x="148" y="0"/>
      <point x="157" y="9"/>
      <point x="157" y="22" type="curve"/>
      <point x="157" y="143" type="line"/>
      <point x="359" y="143" type="line"/>
      <point x="499" y="143"/>
      <point x="589" y="214"/>
      <point x="589" y="350" type="curve" smooth="yes"/>
      <point x="589" y="486"/>
      <point x="499" y="557"/>
      <point x="359" y="557" type="curve"/>
      <point x="157" y="557" type="line"/>
    </contour>
    <contour>
      <point x="157" y="497" type="line"/>
      <point x="354" y="497" type="line"/>
      <point x="470" y="497"/>
      <point x="526" y="445"/>
      <point x="526" y="350" type="curve" smooth="yes"/>
      <point x="526" y="255"/>
      <point x="470" y="203"/>
      <point x="354" y="203" type="curve"/>
      <point x="157" y="203" type="line"/>
    </contour>
  </outline>
</glyph>
<glyph name="ae" format="1">
  <advance width="881"/>
  <unicode hex="00E6"/>
  <outline>
    <contour>
      <point x="263" y="530" type="curve" smooth="yes"/>
      <point x="130" y="530"/>
      <point x="77" y="442"/>
      <point x="77" y="405" type="curve" smooth="yes"/>
      <point x="77" y="393"/>
      <point x="87" y="383"/>
      <point x="99" y="383" type="curve"/>
      <point x="113" y="383" type="line"/>
      <point x="125" y="383"/>
      <point x="132" y="388"/>
      <point x="137" y="404" type="curve" smooth="yes"/>
      <point x="148" y="437"/>
      <point x="189" y="472"/>
      <point x="263" y="472" type="curve" smooth="yes"/>
      <point x="357" y="472"/>
      <point x="399" y="429"/>
      <point x="399" y="358" type="curve"/>
      <point x="399" y="326" type="line"/>
      <point x="241" y="304" type="line"/>
      <point x="124" y="288"/>
      <point x="43" y="229"/>
      <point x="43" y="139" type="curve" smooth="yes"/>
      <point x="43" y="55"/>
      <point x="116" y="-10"/>
      <point x="222" y="-10" type="curve" smooth="yes"/>
      <point x="320" y="-10"/>
      <point x="388" y="26"/>
      <point x="427" y="100" type="curve"/>
      <point x="458" y="36"/>
      <point x="516" y="-10"/>
      <point x="614" y="-10" type="curve" smooth="yes"/>
      <point x="749" y="-10"/>
      <point x="816" y="81"/>
      <point x="816" y="111" type="curve" smooth="yes"/>
      <point x="816" y="123"/>
      <point x="807" y="131"/>
      <point x="795" y="131" type="curve" name="hr01"/>
      <point x="783" y="131" type="line"/>
      <point x="768" y="131"/>
      <point x="764" y="129"/>
      <point x="753" y="113" type="curve" smooth="yes"/>
      <point x="721" y="67"/>
      <point x="666" y="48"/>
      <point x="614" y="48" type="curve" name="hr02" smooth="yes"/>
      <point x="545" y="48"/>
      <point x="465" y="95"/>
      <point x="461" y="225" type="curve"/>
      <point x="461" y="235" type="line"/>
      <point x="807" y="235" type="line"/>
      <point x="820" y="235"/>
      <point x="830" y="244"/>
      <point x="830" y="257" type="curve"/>
      <point x="830" y="272" type="line"/>
      <point x="830" y="373"/>
      <point x="801" y="530"/>
      <point x="615" y="530" type="curve" smooth="yes"/>
      <point x="531" y="530"/>
      <point x="475" y="494"/>
      <point x="441" y="442" type="curve"/>
      <point x="417" y="491"/>
      <point x="364" y="530"/>
    </contour>
    <contour>
      <point x="232" y="48" type="curve" smooth="yes"/>
      <point x="170" y="48"/>
      <point x="104" y="78"/>
      <point x="104" y="144" type="curve" smooth="yes"/>
      <point x="104" y="198"/>
      <point x="161" y="235"/>
      <point x="270" y="250" type="curve"/>
      <point x="399" y="268" type="line"/>
      <point x="399" y="234" type="line"/>
      <point x="399" y="108"/>
      <point x="324" y="48"/>
    </contour>
    <contour>
      <point x="461" y="295" type="line"/>
      <point x="465" y="416"/>
      <point x="539" y="472"/>
      <point x="615" y="472" type="curve" smooth="yes"/>
      <point x="720" y="472"/>
      <point x="769" y="396"/>
      <point x="769" y="295" type="curve"/>
      <point x="769" y="291" type="line"/>
      <point x="461" y="291" type="line"/>
    </contour>
  </outline>
</glyph>
<glyph name="eth" format="1">
  <advance width="550"/>
  <unicode hex="00F0"/>
  <outline>
    <contour>
      <point x="54" y="231" type="curve" name="hr00"/>
      <point x="53" y="94"/>
      <point x="129" y="-10"/>
      <point x="273" y="-10" type="curve" smooth="yes"/>
      <point x="417" y="-10"/>
      <point x="493" y="94"/>
      <point x="492" y="231" type="curve" smooth="yes"/>
      <point x="490" y="402"/>
      <point x="455" y="501"/>
      <point x="398" y="575" type="curve"/>
      <point x="460" y="599" type="line"/>
      <point x="476" y="605"/>
      <point x="482" y="609"/>
      <point x="482" y="624" type="curve"/>
      <point x="482" y="643" type="line"/>
      <point x="482" y="655"/>
      <point x="474" y="661"/>
      <point x="463" y="661" type="curve" smooth="yes"/>
      <point x="459" y="661"/>
      <point x="455" y="660"/>
      <point x="450" y="658" type="curve"/>
      <point x="357" y="622" type="line"/>
      <point x="336" y="644"/>
      <point x="313" y="665"/>
      <point x="288" y="687" type="curve" smooth="yes"/>
      <point x="278" y="695"/>
      <point x="268" y="700"/>
      <point x="252" y="700" type="curve"/>
      <point x="232" y="700" type="line"/>
      <point x="220" y="700"/>
      <point x="212" y="692"/>
      <point x="212" y="680" type="curve" smooth="yes"/>
      <point x="212" y="675"/>
      <point x="215" y="669"/>
      <point x="229" y="658" type="curve" smooth="yes"/>
      <point x="253" y="638"/>
      <point x="276" y="618"/>
      <point x="296" y="599" type="curve"/>
      <point x="234" y="575" type="line"/>
      <point x="218" y="569"/>
      <point x="212" y="565"/>
      <point x="212" y="550" type="curve"/>
      <point x="212" y="531" type="line"/>
      <point x="212" y="519"/>
      <point x="220" y="513"/>
      <point x="231" y="513" type="curve" smooth="yes"/>
      <point x="235" y="513"/>
      <point x="239" y="514"/>
      <point x="244" y="516" type="curve"/>
      <point x="340" y="553" type="line"/>
      <point x="368" y="518"/>
      <point x="389" y="479"/>
      <point x="405" y="431" type="curve"/>
      <point x="371" y="456"/>
      <point x="326" y="470"/>
      <point x="273" y="470" type="curve" smooth="yes"/>
      <point x="129" y="470"/>
      <point x="53" y="368"/>
    </contour>
    <contour>
      <point x="431" y="231" type="curve" smooth="yes"/>
      <point x="431" y="130"/>
      <point x="378" y="48"/>
      <point x="273" y="48" type="curve" smooth="yes"/>
      <point x="168" y="48"/>
      <point x="115" y="130"/>
      <point x="115" y="231" type="curve" smooth="yes"/>
      <point x="115" y="332"/>
      <point x="168" y="412"/>
      <point x="273" y="412" type="curve" smooth="yes"/>
      <point x="378" y="412"/>
      <point x="431" y="332"/>
    </contour>
  </outline>
</glyph>
<glyph name="divide" format="1">
  <advance width="565"/>
  <unicode hex="00F7"/>
  <outline>
    <contour>
      <point x="329" y="150" type="line" name="hr00" smooth="yes"/>
      <point x="329" y="163"/>
      <point x="319" y="173"/>
      <point x="306" y="173" type="curve" smooth="yes"/>
      <point x="258" y="173" type="line" smooth="yes"/>
      <point x="245" y="173"/>
      <point x="236" y="163"/>
      <point x="236" y="150" type="curve" smooth="yes"/>
      <point x="236" y="102" type="line" smooth="yes"/>
      <point x="236" y="89"/>
      <point x="245" y="80"/>
      <point x="258" y="80" type="curve" smooth="yes"/>
      <point x="306" y="80" type="line" smooth="yes"/>
      <point x="319" y="80"/>
      <point x="329" y="89"/>
      <point x="329" y="102" type="curve" smooth="yes"/>
    </contour>
    <contour>
      <point x="329" y="500" type="line" smooth="yes"/>
      <point x="329" y="513"/>
      <point x="319" y="523"/>
      <point x="306" y="523" type="curve" smooth="yes"/>
      <point x="258" y="523" type="line" smooth="yes"/>
      <point x="245" y="523"/>
      <point x="236" y="513"/>
      <point x="236" y="500" type="curve" smooth="yes"/>
      <point x="236" y="452" type="line" smooth="yes"/>
      <point x="236" y="439"/>
      <point x="245" y="430"/>
      <point x="258" y="430" type="curve" smooth="yes"/>
      <point x="306" y="430" type="line" smooth="yes"/>
      <point x="319" y="430"/>
      <point x="329" y="439"/>
      <point x="329" y="452" type="curve" smooth="yes"/>
    </contour>
    <contour>
      <point x="470" y="272" type="line" smooth="yes"/>
      <point x="483" y="272"/>
      <point x="492" y="281"/>
      <point x="492" y="294" type="curve" smooth="yes"/>
      <point x="492" y="308" type="line" smooth="yes"/>
      <point x="492" y="321"/>
      <point x="483" y="330"/>
      <point x="470" y="330" type="curve" smooth="yes"/>
      <point x="95" y="330" type="line" smooth="yes"/>
      <point x="82" y="330"/>
      <point x="73" y="321"/>
      <point x="73" y="308" type="curve" smooth="yes"/>
      <point x="73" y="294" type="line" smooth="yes"/>
      <point x="73" y="281"/>
      <point x="82" y="272"/>
      <point x="95" y="272" type="curve" smooth="yes"/>
    </contour>
  </outline>
</glyph>
<glyph name="oslash" format="1">
  <advance width="594"/>
  <unicode hex="00F8"/>
  <outline>
    <contour>
      <point x="297" y="530" type="curve" name="hr00" smooth="yes"/>
      <point x="133" y="530"/>
      <point x="78" y="411"/>
      <point x="75" y="302" type="curve" smooth="yes"/>
      <point x="73" y="270"/>
      <point x="73" y="238"/>
      <point x="76" y="203" type="curve"/>
      <point x="37" y="188" type="line" smooth="yes"/>
      <point x="21" y="182"/>
      <point x="15" y="178"/>
      <point x="15" y="163" type="curve" smooth="yes"/>
      <point x="15" y="144" type="line" smooth="yes"/>
      <point x="15" y="132"/>
      <point x="23" y="126"/>
      <point x="34" y="126" type="curve" smooth="yes"/>
      <point x="38" y="126"/>
      <point x="42" y="127"/>
      <point x="47" y="129" type="curve" smooth="yes"/>
      <point x="85" y="144" type="line"/>
      <point x="108" y="61"/>
      <point x="170" y="-10"/>
      <point x="297" y="-10" type="curve" smooth="yes"/>
      <point x="461" y="-10"/>
      <point x="516" y="109"/>
      <point x="519" y="218" type="curve" smooth="yes"/>
      <point x="520" y="242"/>
      <point x="520" y="289"/>
      <point x="518" y="312" type="curve"/>
      <point x="557" y="327" type="line" smooth="yes"/>
      <point x="573" y="333"/>
      <point x="579" y="337"/>
      <point x="579" y="352" type="curve" smooth="yes"/>
      <point x="579" y="371" type="line" smooth="yes"/>
      <point x="579" y="383"/>
      <point x="571" y="389"/>
      <point x="560" y="389" type="curve" smooth="yes"/>
      <point x="556" y="389"/>
      <point x="552" y="388"/>
      <point x="547" y="386" type="curve" smooth="yes"/>
      <point x="509" y="371" type="line"/>
      <point x="487" y="456"/>
      <point x="426" y="530"/>
    </contour>
    <contour>
      <point x="136" y="302" type="curve" smooth="yes"/>
      <point x="140" y="426"/>
      <point x="214" y="472"/>
      <point x="297" y="472" type="curve" smooth="yes"/>
      <point x="368" y="472"/>
      <point x="433" y="438"/>
      <point x="452" y="349" type="curve"/>
      <point x="136" y="226" type="line"/>
      <point x="135" y="248"/>
      <point x="135" y="284"/>
    </contour>
    <contour>
      <point x="458" y="218" type="curve" smooth="yes"/>
      <point x="454" y="94"/>
      <point x="380" y="48"/>
      <point x="297" y="48" type="curve" smooth="yes"/>
      <point x="227" y="48"/>
      <point x="163" y="81"/>
      <point x="142" y="166" type="curve"/>
      <point x="458" y="289" type="line"/>
      <point x="459" y="267"/>
      <point x="459" y="234"/>
    </contour>
  </outline>
</glyph>
<glyph name="Aogonek" format="1">
  <advance width="650"/>
  <unicode hex="0104"/>
  <outline>
    <contour>
      <point x="592" y="-220" type="line" name="hr00" smooth="yes"/>
      <point x="605" y="-220"/>
      <point x="614" y="-211"/>
      <point x="614" y="-198" type="curve" smooth="yes"/>
      <point x="614" y="-185" type="line" smooth="yes"/>
      <point x="614" y="-172"/>
      <point x="605" y="-163"/>
      <point x="592" y="-163" type="curve" smooth="yes"/>
      <point x="577" y="-163" type="line" smooth="yes"/>
      <point x="533" y="-163"/>
      <point x="501" y="-133"/>
      <point x="501" y="-82" type="curve" smooth="yes"/>
      <point x="501" y="-31"/>
      <point x="533" y="0"/>
      <point x="577" y="0" type="curve" smooth="yes"/>
      <point x="606" y="0" type="line" smooth="yes"/>
      <point x="617" y="0"/>
      <point x="626" y="9"/>
      <point x="626" y="20" type="curve" smooth="yes"/>
      <point x="626" y="22"/>
      <point x="625" y="28"/>
      <point x="624" y="31" type="curve" smooth="yes"/>
      <point x="371" y="680" type="line" smooth="yes"/>
      <point x="366" y="693"/>
      <point x="358" y="700"/>
      <point x="342" y="700" type="curve" smooth="yes"/>
      <point x="308" y="700" type="line" smooth="yes"/>
      <point x="292" y="700"/>
      <point x="284" y="693"/>
      <point x="279" y="680" type="curve" smooth="yes"/>
      <point x="26" y="31" type="line" smooth="yes"/>
      <point x="25" y="28"/>
      <point x="24" y="22"/>
      <point x="24" y="20" type="curve" smooth="yes"/>
      <point x="24" y="9"/>
      <point x="33" y="0"/>
      <point x="44" y="0" type="curve" smooth="yes"/>
      <point x="64" y="0" type="line" smooth="yes"/>
      <point x="77" y="0"/>
      <point x="84" y="10"/>
      <point x="86" y="15" type="curve" smooth="yes"/>
      <point x="148" y="175" type="line"/>
      <point x="502" y="175" type="line"/>
      <point x="548" y="55" type="line"/>
      <point x="482" y="45"/>
      <point x="441" y="-6"/>
      <point x="441" y="-82" type="curve" smooth="yes"/>
      <point x="441" y="-167"/>
      <point x="492" y="-220"/>
      <point x="573" y="-220" type="curve" smooth="yes"/>
    </contour>
    <contour>
      <point x="325" y="629" type="line"/>
      <point x="478" y="235" type="line"/>
      <point x="172" y="235" type="line"/>
    </contour>
  </outline>
</glyph>
<glyph name="aogonek" format="1">
  <advance width="536"/>
  <unicode hex="0105"/>
  <outline>
    <contour>
      <point x="437" y="-220" type="line" name="hr00" smooth="yes"/>
      <point x="450" y="-220"/>
      <point x="459" y="-211"/>
      <point x="459" y="-198" type="curve" smooth="yes"/>
      <point x="459" y="-185" type="line" smooth="yes"/>
      <point x="459" y="-172"/>
      <point x="450" y="-163"/>
      <point x="437" y="-163" type="curve" smooth="yes"/>
      <point x="432" y="-163" type="line" smooth="yes"/>
      <point x="398" y="-163"/>
      <point x="376" y="-141"/>
      <point x="376" y="-90" type="curve" smooth="yes"/>
      <point x="376" y="-44"/>
      <point x="398" y="-20"/>
      <point x="443" y="0" type="curve" smooth="yes"/>
      <point x="455" y="6"/>
      <point x="459" y="14"/>
      <point x="459" y="22" type="curve" smooth="yes"/>
      <point x="459" y="355" type="line" smooth="yes"/>
      <point x="459" y="435"/>
      <point x="420" y="530"/>
      <point x="262" y="530" type="curve" smooth="yes"/>
      <point x="129" y="530"/>
      <point x="77" y="442"/>
      <point x="77" y="405" type="curve" smooth="yes"/>
      <point x="77" y="393"/>
      <point x="87" y="383"/>
      <point x="99" y="383" type="curve" smooth="yes"/>
      <point x="113" y="383" type="line" smooth="yes"/>
      <point x="125" y="383"/>
      <point x="132" y="388"/>
      <point x="137" y="404" type="curve" smooth="yes"/>
      <point x="148" y="437"/>
      <point x="188" y="472"/>
      <point x="262" y="472" type="curve" smooth="yes"/>
      <point x="356" y="472"/>
      <point x="398" y="429"/>
      <point x="398" y="358" type="curve" smooth="yes"/>
      <point x="398" y="323" type="line"/>
      <point x="240" y="301" type="line" smooth="yes"/>
      <point x="123" y="285"/>
      <point x="42" y="229"/>
      <point x="42" y="139" type="curve" smooth="yes"/>
      <point x="42" y="55"/>
      <point x="125" y="-10"/>
      <point x="221" y="-10" type="curve" smooth="yes"/>
      <point x="324" y="-10"/>
      <point x="374" y="33"/>
      <point x="398" y="69" type="curve"/>
      <point x="398" y="35" type="line"/>
      <point x="362" y="18"/>
      <point x="316" y="-26"/>
      <point x="316" y="-90" type="curve" smooth="yes"/>
      <point x="316" y="-175"/>
      <point x="367" y="-220"/>
      <point x="428" y="-220" type="curve" smooth="yes"/>
    </contour>
    <contour>
      <point x="231" y="48" type="curve" smooth="yes"/>
      <point x="169" y="48"/>
      <point x="103" y="78"/>
      <point x="103" y="144" type="curve" smooth="yes"/>
      <point x="103" y="198"/>
      <point x="160" y="235"/>
      <point x="269" y="250" type="curve" smooth="yes"/>
      <point x="398" y="268" type="line"/>
      <point x="398" y="234" type="line" smooth="yes"/>
      <point x="398" y="108"/>
      <point x="323" y="48"/>
    </contour>
  </outline>
</glyph>
<glyph name="dcroat" format="1">
  <advance width="580"/>
  <unicode hex="0111"/>
  <outline>
    <contour>
      <point x="270" y="530" type="curve" smooth="yes"/>
      <point x="94" y="530"/>
      <point x="59" y="385"/>
      <point x="56" y="288" type="curve" smooth="yes"/>
      <point x="55" y="268"/>
      <point x="55" y="252"/>
      <point x="56" y="232" type="curve" smooth="yes"/>
      <point x="59" y="135"/>
      <point x="94" y="-10"/>
      <point x="270" y="-10" type="curve" smooth="yes"/>
      <point x="353" y="-10"/>
      <point x="405" y="24"/>
      <point x="438" y="69" type="curve"/>
      <point x="438" y="22" type="line" smooth="yes"/>
      <point x="438" y="9"/>
      <point x="447" y="0"/>
      <point x="460" y="0" type="curve" name="hr01" smooth="yes"/>
      <point x="477" y="0" type="line" smooth="yes"/>
      <point x="490" y="0"/>
      <point x="499" y="9"/>
      <point x="499" y="22" type="curve" smooth="yes"/>
      <point x="499" y="571" type="line"/>
      <point x="557" y="571" type="line" smooth="yes"/>
      <point x="570" y="571"/>
      <point x="579" y="580"/>
      <point x="579" y="593" type="curve" smooth="yes"/>
      <point x="579" y="607" type="line" smooth="yes"/>
      <point x="579" y="620"/>
      <point x="570" y="629"/>
      <point x="557" y="629" type="curve" smooth="yes"/>
      <point x="499" y="629" type="line"/>
      <point x="499" y="688" type="line" smooth="yes"/>
      <point x="499" y="701"/>
      <point x="490" y="710"/>
      <point x="477" y="710" type="curve" smooth="yes"/>
      <point x="460" y="710" type="line" smooth="yes"/>
      <point x="447" y="710"/>
      <point x="438" y="701"/>
      <point x="438" y="688" type="curve" smooth="yes"/>
      <point x="438" y="629" type="line"/>
      <point x="380" y="629" type="line" smooth="yes"/>
      <point x="367" y="629"/>
      <point x="358" y="620"/>
      <point x="358" y="607" type="curve" smooth="yes"/>
      <point x="358" y="593" type="line" smooth="yes"/>
      <point x="358" y="580"/>
      <point x="367" y="571"/>
      <point x="380" y="571" type="curve" smooth="yes"/>
      <point x="438" y="571" type="line"/>
      <point x="438" y="451" type="line"/>
      <point x="405" y="495"/>
      <point x="353" y="530"/>
    </contour>
    <contour>
      <point x="438" y="224" type="curve" smooth="yes"/>
      <point x="435" y="142"/>
      <point x="390" y="48"/>
      <point x="276" y="48" type="curve" name="hr02" smooth="yes"/>
      <point x="159" y="48"/>
      <point x="120" y="136"/>
      <point x="117" y="232" type="curve" smooth="yes"/>
      <point x="116" y="252"/>
      <point x="116" y="268"/>
      <point x="117" y="288" type="curve" smooth="yes"/>
      <point x="120" y="384"/>
      <point x="159" y="472"/>
      <point x="276" y="472" type="curve" smooth="yes"/>
      <point x="387" y="472"/>
      <point x="436" y="382"/>
      <point x="438" y="302" type="curve" smooth="yes"/>
      <point x="439" y="282"/>
      <point x="439" y="244"/>
    </contour>
  </outline>
</glyph>
<glyph name="Hbar" format="1">
  <advance width="710"/>
  <unicode hex="0126"/>
  <outline>
    <contour>
      <point x="41" y="571" type="line" name="hr00" smooth="yes"/>
      <point x="28" y="571"/>
      <point x="19" y="562"/>
      <point x="19" y="548" type="curve" smooth="yes"/>
      <point x="19" y="533" type="line" smooth="yes"/>
      <point x="19" y="520"/>
      <point x="28" y="511"/>
      <point x="41" y="511" type="curve" smooth="yes"/>
      <point x="99" y="511" type="line"/>
      <point x="99" y="22" type="line" smooth="yes"/>
      <point x="99" y="9"/>
      <point x="108" y="0"/>
      <point x="121" y="0" type="curve" smooth="yes"/>
      <point x="139" y="0" type="line" smooth="yes"/>
      <point x="153" y="0"/>
      <point x="162" y="9"/>
      <point x="162" y="22" type="curve" smooth="yes"/>
      <point x="162" y="325" type="line"/>
      <point x="548" y="325" type="line"/>
      <point x="548" y="22" type="line" smooth="yes"/>
      <point x="548" y="9"/>
      <point x="557" y="0"/>
      <point x="570" y="0" type="curve" smooth="yes"/>
      <point x="588" y="0" type="line" smooth="yes"/>
      <point x="602" y="0"/>
      <point x="611" y="9"/>
      <point x="611" y="22" type="curve" smooth="yes"/>
      <point x="611" y="511" type="line"/>
      <point x="668" y="511" type="line" smooth="yes"/>
      <point x="682" y="511"/>
      <point x="691" y="520"/>
      <point x="691" y="533" type="curve" smooth="yes"/>
      <point x="691" y="548" type="line" smooth="yes"/>
      <point x="691" y="562"/>
      <point x="682" y="571"/>
      <point x="668" y="571" type="curve" smooth="yes"/>
      <point x="611" y="571" type="line"/>
      <point x="611" y="677" type="line" smooth="yes"/>
      <point x="611" y="691"/>
      <point x="602" y="700"/>
      <point x="588" y="700" type="curve" smooth="yes"/>
      <point x="570" y="700" type="line" smooth="yes"/>
      <point x="557" y="700"/>
      <point x="548" y="691"/>
      <point x="548" y="677" type="curve" smooth="yes"/>
      <point x="548" y="571" type="line"/>
      <point x="162" y="571" type="line"/>
      <point x="162" y="677" type="line" smooth="yes"/>
      <point x="162" y="691"/>
      <point x="153" y="700"/>
      <point x="139" y="700" type="curve" smooth="yes"/>
      <point x="121" y="700" type="line" smooth="yes"/>
      <point x="108" y="700"/>
      <point x="99" y="691"/>
      <point x="99" y="677" type="curve" smooth="yes"/>
      <point x="99" y="571" type="line"/>
    </contour>
    <contour>
      <point x="162" y="385" type="line"/>
      <point x="162" y="511" type="line"/>
      <point x="548" y="511" type="line"/>
      <point x="548" y="385" type="line"/>
    </contour>
  </outline>
</glyph>
<glyph name="hbar" format="1">
  <advance width="590"/>
  <unicode hex="0127"/>
  <outline>
    <contour>
      <point x="142" y="688" type="line" name="hr00"/>
      <point x="142" y="701"/>
      <point x="133" y="710"/>
      <point x="120" y="710" type="curve"/>
      <point x="103" y="710" type="line"/>
      <point x="90" y="710"/>
      <point x="81" y="701"/>
      <point x="81" y="688" type="curve"/>
      <point x="81" y="629" type="line"/>
      <point x="23" y="629" type="line"/>
      <point x="10" y="629"/>
      <point x="1" y="620"/>
      <point x="1" y="607" type="curve"/>
      <point x="1" y="593" type="line"/>
      <point x="1" y="580"/>
      <point x="10" y="571"/>
      <point x="23" y="571" type="curve"/>
      <point x="81" y="571" type="line"/>
      <point x="81" y="22" type="line"/>
      <point x="81" y="9"/>
      <point x="90" y="0"/>
      <point x="103" y="0" type="curve"/>
      <point x="120" y="0" type="line"/>
      <point x="133" y="0"/>
      <point x="142" y="9"/>
      <point x="142" y="22" type="curve"/>
      <point x="142" y="301" type="line"/>
      <point x="142" y="408"/>
      <point x="205" y="472"/>
      <point x="300" y="472" type="curve" smooth="yes"/>
      <point x="400" y="472"/>
      <point x="453" y="407"/>
      <point x="453" y="301" type="curve"/>
      <point x="453" y="22" type="line"/>
      <point x="453" y="9"/>
      <point x="462" y="0"/>
      <point x="475" y="0" type="curve"/>
      <point x="492" y="0" type="line"/>
      <point x="505" y="0"/>
      <point x="514" y="9"/>
      <point x="514" y="22" type="curve"/>
      <point x="514" y="306" type="line"/>
      <point x="514" y="433"/>
      <point x="446" y="530"/>
      <point x="310" y="530" type="curve" smooth="yes"/>
      <point x="224" y="530"/>
      <point x="178" y="498"/>
      <point x="142" y="451" type="curve"/>
      <point x="142" y="571" type="line"/>
      <point x="200" y="571" type="line"/>
      <point x="213" y="571"/>
      <point x="222" y="580"/>
      <point x="222" y="593" type="curve"/>
      <point x="222" y="607" type="line"/>
      <point x="222" y="620"/>
      <point x="213" y="629"/>
      <point x="200" y="629" type="curve"/>
      <point x="142" y="629" type="line"/>
    </contour>
  </outline>
</glyph>
<glyph name="iogonek" format="1">
  <advance width="244"/>
  <unicode hex="012F"/>
  <outline>
    <contour>
      <point x="163" y="498" type="line" name="hr00"/>
      <point x="163" y="511"/>
      <point x="154" y="520"/>
      <point x="141" y="520" type="curve"/>
      <point x="124" y="520" type="line"/>
      <point x="111" y="520"/>
      <point x="102" y="511"/>
      <point x="102" y="498" type="curve"/>
      <point x="102" y="54" type="line"/>
      <point x="39" y="42"/>
      <point x="0" y="-8"/>
      <point x="0" y="-82" type="curve" smooth="yes"/>
      <point x="0" y="-167"/>
      <point x="51" y="-220"/>
      <point x="132" y="-220" type="curve"/>
      <point x="151" y="-220" type="line"/>
      <point x="164" y="-220"/>
      <point x="173" y="-211"/>
      <point x="173" y="-198" type="curve"/>
      <point x="173" y="-185" type="line"/>
      <point x="173" y="-172"/>
      <point x="164" y="-163"/>
      <point x="151" y="-163" type="curve"/>
      <point x="136" y="-163" type="line"/>
      <point x="92" y="-163"/>
      <point x="60" y="-133"/>
      <point x="60" y="-82" type="curve" smooth="yes"/>
      <point x="60" y="-31"/>
      <point x="92" y="0"/>
      <point x="136" y="0" type="curve"/>
      <point x="141" y="0" type="line"/>
      <point x="154" y="0"/>
      <point x="163" y="9"/>
      <point x="163" y="22" type="curve"/>
    </contour>
    <contour>
      <point x="174" y="687" type="line"/>
      <point x="174" y="700"/>
      <point x="164" y="710"/>
      <point x="151" y="710" type="curve"/>
      <point x="113" y="710" type="line"/>
      <point x="100" y="710"/>
      <point x="91" y="700"/>
      <point x="91" y="687" type="curve"/>
      <point x="91" y="649" type="line"/>
      <point x="91" y="636"/>
      <point x="100" y="627"/>
      <point x="113" y="627" type="curve"/>
      <point x="151" y="627" type="line"/>
      <point x="164" y="627"/>
      <point x="174" y="636"/>
      <point x="174" y="649" type="curve"/>
    </contour>
  </outline>
</glyph>
<glyph name="dotlessi" format="1">
  <advance width="223"/>
  <unicode hex="0131"/>
  <outline>
    <contour>
      <point x="142" y="498" type="line" name="hr00" smooth="yes"/>
      <point x="142" y="511"/>
      <point x="133" y="520"/>
      <point x="120" y="520" type="curve" smooth="yes"/>
      <point x="103" y="520" type="line" smooth="yes"/>
      <point x="90" y="520"/>
      <point x="81" y="511"/>
      <point x="81" y="498" type="curve" smooth="yes"/>
      <point x="81" y="22" type="line" smooth="yes"/>
      <point x="81" y="9"/>
      <point x="90" y="0"/>
      <point x="103" y="0" type="curve" smooth="yes"/>
      <point x="120" y="0" type="line" smooth="yes"/>
      <point x="133" y="0"/>
      <point x="142" y="9"/>
      <point x="142" y="22" type="curve" smooth="yes"/>
    </contour>
  </outline>
</glyph>
<glyph name="IJ" format="1">
  <advance width="589"/>
  <unicode hex="0132"/>
  <outline>
    <contour>
      <point x="259" y="50" type="curve" smooth="yes"/>
      <point x="246" y="50"/>
      <point x="237" y="41"/>
      <point x="237" y="27" type="curve"/>
      <point x="237" y="12" type="line"/>
      <point x="237" y="-1"/>
      <point x="246" y="-10"/>
      <point x="259" y="-10" type="curve" smooth="yes"/>
      <point x="416" y="-10"/>
      <point x="501" y="99"/>
      <point x="501" y="255" type="curve"/>
      <point x="501" y="677" type="line"/>
      <point x="501" y="691"/>
      <point x="492" y="700"/>
      <point x="478" y="700" type="curve"/>
      <point x="460" y="700" type="line"/>
      <point x="447" y="700"/>
      <point x="438" y="691"/>
      <point x="438" y="678" type="curve"/>
      <point x="438" y="256" type="line"/>
      <point x="438" y="135"/>
      <point x="376" y="50"/>
    </contour>
    <contour>
      <point x="157" y="678" type="line"/>
      <point x="157" y="691"/>
      <point x="148" y="700"/>
      <point x="135" y="700" type="curve"/>
      <point x="116" y="700" type="line"/>
      <point x="103" y="700"/>
      <point x="94" y="691"/>
      <point x="94" y="678" type="curve"/>
      <point x="94" y="22" type="line"/>
      <point x="94" y="9"/>
      <point x="103" y="0"/>
      <point x="116" y="0" type="curve" name="hr01"/>
      <point x="135" y="0" type="line"/>
      <point x="148" y="0"/>
      <point x="157" y="9"/>
      <point x="157" y="22" type="curve"/>
    </contour>
  </outline>
</glyph>
<glyph name="kgreenlandic" format="1">
  <advance width="488"/>
  <unicode hex="0138"/>
  <outline>
    <contour>
      <point x="438" y="480" type="line" name="hr00"/>
      <point x="448" y="487"/>
      <point x="451" y="495"/>
      <point x="451" y="500" type="curve" smooth="yes"/>
      <point x="451" y="512"/>
      <point x="443" y="520"/>
      <point x="431" y="520" type="curve" smooth="yes"/>
      <point x="415" y="520" type="line" smooth="yes"/>
      <point x="395" y="520"/>
      <point x="392" y="517"/>
      <point x="373" y="503" type="curve"/>
      <point x="142" y="308" type="line"/>
      <point x="142" y="498" type="line" smooth="yes"/>
      <point x="142" y="511"/>
      <point x="133" y="520"/>
      <point x="120" y="520" type="curve" smooth="yes"/>
      <point x="103" y="520" type="line" smooth="yes"/>
      <point x="90" y="520"/>
      <point x="81" y="511"/>
      <point x="81" y="498" type="curve" smooth="yes"/>
      <point x="81" y="22" type="line" smooth="yes"/>
      <point x="81" y="9"/>
      <point x="90" y="0"/>
      <point x="103" y="0" type="curve" smooth="yes"/>
      <point x="120" y="0" type="line" smooth="yes"/>
      <point x="133" y="0"/>
      <point x="142" y="9"/>
      <point x="142" y="22" type="curve" smooth="yes"/>
      <point x="142" y="212" type="line"/>
      <point x="391" y="17" type="line"/>
      <point x="408" y="4"/>
      <point x="413" y="0"/>
      <point x="433" y="0" type="curve" smooth="yes"/>
      <point x="451" y="0" type="line" smooth="yes"/>
      <point x="463" y="0"/>
      <point x="471" y="8"/>
      <point x="471" y="20" type="curve" smooth="yes"/>
      <point x="471" y="25"/>
      <point x="467" y="33"/>
      <point x="458" y="40" type="curve" smooth="yes"/>
      <point x="178" y="260" type="line"/>
    </contour>
  </outline>
</glyph>
<glyph name="Lslash" format="1">
  <advance width="556"/>
  <unicode hex="0141"/>
  <outline>
    <contour>
      <point x="511" y="0" type="line" name="hr00" smooth="yes"/>
      <point x="524" y="0"/>
      <point x="533" y="9"/>
      <point x="533" y="22" type="curve" smooth="yes"/>
      <point x="533" y="38" type="line" smooth="yes"/>
      <point x="533" y="51"/>
      <point x="524" y="60"/>
      <point x="511" y="60" type="curve" smooth="yes"/>
      <point x="165" y="60" type="line"/>
      <point x="165" y="317" type="line"/>
      <point x="320" y="377" type="line" smooth="yes"/>
      <point x="336" y="383"/>
      <point x="342" y="387"/>
      <point x="342" y="402" type="curve" smooth="yes"/>
      <point x="342" y="421" type="line" smooth="yes"/>
      <point x="342" y="433"/>
      <point x="334" y="439"/>
      <point x="323" y="439" type="curve" smooth="yes"/>
      <point x="319" y="439"/>
      <point x="315" y="438"/>
      <point x="310" y="436" type="curve" smooth="yes"/>
      <point x="165" y="380" type="line"/>
      <point x="165" y="678" type="line" smooth="yes"/>
      <point x="165" y="691"/>
      <point x="156" y="700"/>
      <point x="143" y="700" type="curve" smooth="yes"/>
      <point x="124" y="700" type="line" smooth="yes"/>
      <point x="111" y="700"/>
      <point x="102" y="691"/>
      <point x="102" y="678" type="curve" smooth="yes"/>
      <point x="102" y="355" type="line"/>
      <point x="34" y="329" type="line" smooth="yes"/>
      <point x="18" y="323"/>
      <point x="12" y="319"/>
      <point x="12" y="304" type="curve" smooth="yes"/>
      <point x="12" y="285" type="line" smooth="yes"/>
      <point x="12" y="273"/>
      <point x="20" y="267"/>
      <point x="31" y="267" type="curve" smooth="yes"/>
      <point x="35" y="267"/>
      <point x="39" y="268"/>
      <point x="44" y="270" type="curve" smooth="yes"/>
      <point x="102" y="292" type="line"/>
      <point x="102" y="22" type="line" smooth="yes"/>
      <point x="102" y="9"/>
      <point x="111" y="0"/>
      <point x="124" y="0" type="curve" smooth="yes"/>
    </contour>
  </outline>
</glyph>
<glyph name="lslash" format="1">
  <advance width="247"/>
  <unicode hex="0142"/>
  <outline>
    <contour>
      <point x="225" y="404" type="line" name="hr00" smooth="yes"/>
      <point x="225" y="416"/>
      <point x="217" y="422"/>
      <point x="206" y="422" type="curve" smooth="yes"/>
      <point x="202" y="422"/>
      <point x="198" y="421"/>
      <point x="193" y="419" type="curve" smooth="yes"/>
      <point x="155" y="404" type="line"/>
      <point x="155" y="688" type="line" smooth="yes"/>
      <point x="155" y="701"/>
      <point x="146" y="710"/>
      <point x="133" y="710" type="curve" smooth="yes"/>
      <point x="116" y="710" type="line" smooth="yes"/>
      <point x="103" y="710"/>
      <point x="94" y="701"/>
      <point x="94" y="688" type="curve" smooth="yes"/>
      <point x="94" y="381" type="line"/>
      <point x="46" y="363" type="line" smooth="yes"/>
      <point x="30" y="357"/>
      <point x="24" y="353"/>
      <point x="24" y="338" type="curve" smooth="yes"/>
      <point x="24" y="319" type="line" smooth="yes"/>
      <point x="24" y="307"/>
      <point x="32" y="301"/>
      <point x="43" y="301" type="curve" smooth="yes"/>
      <point x="47" y="301"/>
      <point x="51" y="302"/>
      <point x="56" y="304" type="curve" smooth="yes"/>
      <point x="94" y="318" type="line"/>
      <point x="94" y="22" type="line" smooth="yes"/>
      <point x="94" y="9"/>
      <point x="103" y="0"/>
      <point x="116" y="0" type="curve" smooth="yes"/>
      <point x="133" y="0" type="line" smooth="yes"/>
      <point x="146" y="0"/>
      <point x="155" y="9"/>
      <point x="155" y="22" type="curve" smooth="yes"/>
      <point x="155" y="341" type="line"/>
      <point x="203" y="360" type="line" smooth="yes"/>
      <point x="219" y="366"/>
      <point x="225" y="370"/>
      <point x="225" y="385" type="curve" smooth="yes"/>
    </contour>
  </outline>
</glyph>
<glyph name="Eng" format="1">
  <advance width="684"/>
  <unicode hex="014A"/>
  <outline>
    <contour>
      <point x="527" y="-57" type="line" name="hr00"/>
      <point x="527" y="-118"/>
      <point x="515" y="-165"/>
      <point x="439" y="-165" type="curve"/>
      <point x="435" y="-165" type="line"/>
      <point x="422" y="-165"/>
      <point x="413" y="-174"/>
      <point x="413" y="-187" type="curve"/>
      <point x="413" y="-203" type="line"/>
      <point x="413" y="-216"/>
      <point x="422" y="-225"/>
      <point x="435" y="-225" type="curve"/>
      <point x="439" y="-225" type="line"/>
      <point x="564" y="-225"/>
      <point x="590" y="-151"/>
      <point x="590" y="-57" type="curve"/>
      <point x="590" y="677" type="line"/>
      <point x="590" y="691"/>
      <point x="581" y="700"/>
      <point x="567" y="700" type="curve"/>
      <point x="549" y="700" type="line"/>
      <point x="536" y="700"/>
      <point x="527" y="691"/>
      <point x="527" y="677" type="curve"/>
      <point x="527" y="124" type="line"/>
      <point x="158" y="688" type="line"/>
      <point x="156" y="691"/>
      <point x="150" y="700"/>
      <point x="137" y="700" type="curve"/>
      <point x="116" y="700" type="line"/>
      <point x="103" y="700"/>
      <point x="94" y="691"/>
      <point x="94" y="677" type="curve"/>
      <point x="94" y="22" type="line"/>
      <point x="94" y="9"/>
      <point x="103" y="0"/>
      <point x="116" y="0" type="curve"/>
      <point x="134" y="0" type="line"/>
      <point x="148" y="0"/>
      <point x="157" y="9"/>
      <point x="157" y="22" type="curve"/>
      <point x="157" y="574" type="line"/>
      <point x="527" y="8" type="line"/>
    </contour>
  </outline>
</glyph>
<glyph name="OE" format="1">
  <advance width="900"/>
  <unicode hex="0152"/>
  <outline>
    <contour>
      <point x="823" y="0" type="line" name="hr00"/>
      <point x="837" y="0"/>
      <point x="846" y="9"/>
      <point x="846" y="22" type="curve"/>
      <point x="846" y="37" type="line"/>
      <point x="846" y="51"/>
      <point x="837" y="60"/>
      <point x="823" y="60" type="curve"/>
      <point x="506" y="60" type="line"/>
      <point x="506" y="325" type="line"/>
      <point x="793" y="325" type="line"/>
      <point x="807" y="325"/>
      <point x="816" y="334"/>
      <point x="816" y="347" type="curve"/>
      <point x="816" y="362" type="line"/>
      <point x="816" y="376"/>
      <point x="807" y="385"/>
      <point x="793" y="385" type="curve"/>
      <point x="506" y="385" type="line"/>
      <point x="506" y="640" type="line"/>
      <point x="815" y="640" type="line"/>
      <point x="829" y="640"/>
      <point x="838" y="649"/>
      <point x="838" y="662" type="curve"/>
      <point x="838" y="677" type="line"/>
      <point x="838" y="691"/>
      <point x="829" y="700"/>
      <point x="815" y="700" type="curve"/>
      <point x="348" y="700" type="line"/>
      <point x="136" y="700"/>
      <point x="73" y="604"/>
      <point x="70" y="430" type="curve" smooth="yes"/>
      <point x="69" y="370"/>
      <point x="69" y="331"/>
      <point x="70" y="271" type="curve" smooth="yes"/>
      <point x="74" y="87"/>
      <point x="137" y="0"/>
      <point x="343" y="0" type="curve"/>
    </contour>
    <contour>
      <point x="133" y="425" type="curve" smooth="yes"/>
      <point x="136" y="571"/>
      <point x="193" y="640"/>
      <point x="353" y="640" type="curve"/>
      <point x="443" y="640" type="line"/>
      <point x="443" y="60" type="line"/>
      <point x="348" y="60" type="line"/>
      <point x="189" y="60"/>
      <point x="136" y="120"/>
      <point x="133" y="276" type="curve" smooth="yes"/>
      <point x="132" y="336"/>
      <point x="132" y="365"/>
    </contour>
  </outline>
</glyph>
<glyph name="oe" format="1">
  <advance width="931"/>
  <unicode hex="0153"/>
  <outline>
    <contour>
      <point x="280" y="530" type="curve" name="hr00" smooth="yes"/>
      <point x="136" y="530"/>
      <point x="62" y="431"/>
      <point x="58" y="302" type="curve" smooth="yes"/>
      <point x="57" y="282"/>
      <point x="57" y="238"/>
      <point x="58" y="218" type="curve" smooth="yes"/>
      <point x="62" y="89"/>
      <point x="136" y="-10"/>
      <point x="280" y="-10" type="curve" smooth="yes"/>
      <point x="376" y="-10"/>
      <point x="440" y="33"/>
      <point x="474" y="101" type="curve"/>
      <point x="510" y="32"/>
      <point x="575" y="-10"/>
      <point x="662" y="-10" type="curve" smooth="yes"/>
      <point x="783" y="-10"/>
      <point x="861" y="73"/>
      <point x="863" y="111" type="curve" smooth="yes"/>
      <point x="864" y="123"/>
      <point x="854" y="131"/>
      <point x="842" y="131" type="curve" smooth="yes"/>
      <point x="826" y="131" type="line" smooth="yes"/>
      <point x="811" y="131"/>
      <point x="808" y="130"/>
      <point x="796" y="113" type="curve" smooth="yes"/>
      <point x="785" y="97"/>
      <point x="742" y="48"/>
      <point x="662" y="48" type="curve" smooth="yes"/>
      <point x="565" y="48"/>
      <point x="508" y="134"/>
      <point x="504" y="225" type="curve" smooth="yes"/>
      <point x="504" y="235" type="line"/>
      <point x="860" y="235" type="line" smooth="yes"/>
      <point x="873" y="235"/>
      <point x="883" y="244"/>
      <point x="883" y="257" type="curve" smooth="yes"/>
      <point x="883" y="272" type="line" smooth="yes"/>
      <point x="883" y="432"/>
      <point x="801" y="530"/>
      <point x="662" y="530" type="curve" smooth="yes"/>
      <point x="574" y="530"/>
      <point x="510" y="487"/>
      <point x="474" y="418" type="curve"/>
      <point x="440" y="486"/>
      <point x="376" y="530"/>
    </contour>
    <contour>
      <point x="441" y="297" type="curve" smooth="yes"/>
      <point x="442" y="277"/>
      <point x="442" y="243"/>
      <point x="441" y="223" type="curve" smooth="yes"/>
      <point x="437" y="109"/>
      <point x="373" y="48"/>
      <point x="280" y="48" type="curve" smooth="yes"/>
      <point x="187" y="48"/>
      <point x="123" y="109"/>
      <point x="119" y="223" type="curve" smooth="yes"/>
      <point x="118" y="243"/>
      <point x="118" y="277"/>
      <point x="119" y="297" type="curve" smooth="yes"/>
      <point x="123" y="411"/>
      <point x="187" y="472"/>
      <point x="280" y="472" type="curve" smooth="yes"/>
      <point x="373" y="472"/>
      <point x="437" y="411"/>
    </contour>
    <contour>
      <point x="504" y="295" type="line" smooth="yes"/>
      <point x="504" y="395"/>
      <point x="562" y="472"/>
      <point x="662" y="472" type="curve" smooth="yes"/>
      <point x="762" y="472"/>
      <point x="822" y="395"/>
      <point x="822" y="295" type="curve" smooth="yes"/>
      <point x="822" y="291" type="line"/>
      <point x="504" y="291" type="line"/>
    </contour>
  </outline>
</glyph>
